<svg id="Layer_1" xmlns="http://www.w3.org/2000/svg" viewBox="0 0 34 34"><style>.st0{fill:#fff}.st1,.st2{opacity:.4;fill:#fff;enable-background:new}.st2{opacity:.1;fill:#3e2723}</style><path class="st0" d="M14.2 16.7v2h3.3c-.1.8-1 2.5-3.3 2.5-2 0-3.6-1.6-3.6-3.6s1.6-3.6 3.6-3.6c1.1 0 1.9.5 2.3.9l1.6-1.5c-1-.9-2.3-1.5-3.9-1.5-3.2 0-5.8 2.6-5.8 5.8s2.6 5.8 5.8 5.8c3.3 0 5.5-2.3 5.5-5.6 0-.4 0-.7-.1-1h-5.4v-.2z"/><path class="st1" d="M14.2 16.8h5.5c.1.3.1.6.1.9v-.1c0-.4 0-.7-.1-1h-5.5v.2zm0-5c1.5 0 2.8.6 3.8 1.5l.1-.1c-1-.9-2.3-1.5-3.9-1.4-3.2-.1-5.8 2.5-5.8 5.7.1-3.1 2.6-5.7 5.8-5.7zm0 9.4c2.3 0 3.1-1.6 3.3-2.5-.2.9-1 2.4-3.3 2.4-2 0-3.5-1.6-3.6-3.6 0 2.1 1.6 3.7 3.6 3.7z"/><path class="st2" d="M14.2 13.9c1.1 0 1.9.5 2.3.9l1.6-1.5H18l-1.5 1.5c-.4-.5-1.2-.9-2.3-.9zm0 4.8l3.3.1v-.1h-3.3z"/><path class="st2" d="M14.2 23.3c-3.2 0-5.7-2.6-5.8-5.7 0 3.2 2.6 5.8 5.8 5.7 3.3.1 5.5-2.2 5.5-5.5 0 3.2-2.2 5.5-5.5 5.5z"/><path class="st0" d="M26.6 16.7h-1.7V15h-1.6v1.6h-1.7v1.7h1.7V20h1.6v-1.6h1.7"/><path class="st1" d="M24.9 16.7h1.7v.1l-1.7-.1zM23.3 15h1.6v.1l-1.6-.1zm-1.7 1.7h1.7v.1l-1.7-.1z"/><path class="st2" d="M21.6 18.3h1.7v.1l-1.7-.1zm3.3 0h1.7v.1l-1.7-.1zM23.3 20h1.6v.1l-1.6-.1z"/></svg>