<svg xmlns="http://www.w3.org/2000/svg" viewBox="0 0 34 34"><linearGradient id="a" gradientUnits="userSpaceOnUse" x1="17" y1="-460.596" x2="17" y2="-493.244" gradientTransform="translate(0 494)"><stop offset="0" stop-color="#e09b3d"/><stop offset=".3" stop-color="#c74c4d"/><stop offset=".6" stop-color="#c21975"/><stop offset="1" stop-color="#7024c4"/></linearGradient><path d="M23.7.5H10.3C4.9.5.5 4.9.5 10.3v13.3c0 5.4 4.4 9.8 9.8 9.8h13.3c5.4 0 9.8-4.4 9.8-9.8V10.3c.1-5.4-4.3-9.8-9.7-9.8zm6.5 23.2c0 3.6-2.9 6.5-6.5 6.5H10.3c-3.6 0-6.5-2.9-6.5-6.5V10.3c0-3.6 2.9-6.5 6.5-6.5h13.3c3.6 0 6.5 2.9 6.5 6.5l.1 13.4z" fill="url(#a)"/><linearGradient id="b" gradientUnits="userSpaceOnUse" x1="17" y1="-460.596" x2="17" y2="-493.244" gradientTransform="translate(0 494)"><stop offset="0" stop-color="#e09b3d"/><stop offset=".3" stop-color="#c74c4d"/><stop offset=".6" stop-color="#c21975"/><stop offset="1" stop-color="#7024c4"/></linearGradient><path d="M17 8.5c-4.7 0-8.5 3.8-8.5 8.5s3.8 8.5 8.5 8.5 8.5-3.8 8.5-8.5-3.8-8.5-8.5-8.5zm0 13.7c-2.9 0-5.2-2.3-5.2-5.2s2.3-5.2 5.2-5.2c2.9 0 5.2 2.3 5.2 5.2 0 2.9-2.3 5.2-5.2 5.2z" fill="url(#b)"/><linearGradient id="c" gradientUnits="userSpaceOnUse" x1="25.552" y1="-460.596" x2="25.552" y2="-493.244" gradientTransform="translate(0 494)"><stop offset="0" stop-color="#e09b3d"/><stop offset=".3" stop-color="#c74c4d"/><stop offset=".6" stop-color="#c21975"/><stop offset="1" stop-color="#7024c4"/></linearGradient><circle cx="25.6" cy="8.5" r="2" fill="url(#c)"/></svg>