<svg id="Layer_1" xmlns="http://www.w3.org/2000/svg" viewBox="0 0 34 34"><style>.st2{fill:#fff}</style><path class="st2" d="M17 5.1c-3.4 0-6.1 2.7-6.1 6.1 0 3.4 2.7 6.1 6.1 6.1s6.1-2.7 6.1-6.1c0-3.4-2.7-6.1-6.1-6.1zm0 8.6c-1.4 0-2.5-1.1-2.5-2.5s1.1-2.5 2.5-2.5 2.5 1.1 2.5 2.5-1.1 2.5-2.5 2.5zm2.1 8.5c2.4-.5 3.9-1.7 4-1.7.7-.6.8-1.6.3-2.3-.6-.7-1.6-.8-2.3-.3 0 0-1.6 1.2-4.1 1.2-2.6 0-4.2-1.2-4.2-1.2-.7-.6-1.8-.5-2.3.3-.6.7-.5 1.8.3 2.3.1.1 1.6 1.3 4.1 1.7l-3.5 3.7c-.6.7-.6 1.7 0 2.4.3.3.7.5 1.2.5.4 0 .9-.2 1.2-.5l3.3-3.5 3.6 3.5c.6.7 1.7.6 2.3 0 .6-.7.6-1.7 0-2.4l-3.9-3.7zm-2.2-3.1z"/></svg>