<svg id="Layer_1" xmlns="http://www.w3.org/2000/svg" viewBox="0 0 34 34"><style>.st0{fill:#fff}</style><path class="st0" d="M30 9.3c-.9.4-2 .7-3.1.9 1.1-.6 2-1.7 2.4-2.9-1 .6-2.2 1-3.4 1.3-.9-1-2.4-1.7-3.9-1.7-2.9 0-5.4 2.4-5.4 5.4 0 .4.1.8.2 1.2-4.4-.2-8.4-2.4-11-5.6-.5.8-.7 1.7-.7 2.7 0 1.8.9 3.5 2.4 4.4-.9 0-1.7-.2-2.4-.6v.1c0 2.6 1.8 4.7 4.3 5.2-.5.2-.9.2-1.4.2-.3 0-.7 0-1-.1.7 2.1 2.7 3.6 5 3.7-1.8 1.4-4.1 2.3-6.6 2.3-.4 0-.9 0-1.3-.1 2.4 1.5 5.2 2.4 8.2 2.4 9.9 0 15.2-8.1 15.2-15.2v-.7c.8-.9 1.8-1.8 2.5-2.9"/></svg>