<svg xmlns="http://www.w3.org/2000/svg" viewBox="0 0 34 34"><path d="M27.5 11.9c.2-.5 0-.9-.7-.9h-2.4c-.6 0-.9.3-1 .7 0 0-1.2 3-3 4.9-.6.6-.8.7-1.1.7-.2 0-.4-.2-.4-.7v-4.8c0-.6-.2-.9-.7-.9h-3.8c-.4 0-.6.3-.6.6 0 .6.9.7 1 2.3v3.5c0 .8-.1.9-.4.9-.8 0-2.8-3-4-6.4-.3-.5-.5-.8-1.1-.8H6.9c-.7 0-.9.3-.9.7 0 .6.8 3.8 3.8 8 2 2.9 4.8 4.4 7.3 4.4 1.5 0 1.7-.3 1.7-.9V21c0-.7.1-.8.6-.8.4 0 1 .2 2.4 1.6 1.6 1.6 1.9 2.4 2.8 2.4H27c.7 0 1-.3.8-1-.2-.7-1-1.7-2-2.8-.6-.7-1.4-1.4-1.7-1.7-.4-.5-.3-.7 0-1.1.2-.2 3.1-4.3 3.4-5.7z" fill="#fff"/></svg>