<svg id="Layer_1" xmlns="http://www.w3.org/2000/svg" viewBox="0 0 645.8 645.8"><style>.st0{fill:#f90}.st1{fill:#222427}.st2{fill:#292b2f}.st3{fill:#333}.st4{fill:#fff}.st5{fill:#010101}.st6{fill:#020202}</style><circle class="st0" cx="322.9" cy="322.9" r="322.9"/><ellipse transform="rotate(-45.001 322.89 322.906)" class="st1" cx="322.9" cy="322.9" rx="312.3" ry="312.3"/><ellipse transform="rotate(-45.001 322.89 322.906)" class="st2" cx="322.9" cy="322.9" rx="281.9" ry="281.9"/><path class="st3" d="M335.8 330.3l189.4 190.2c48-49.2 78.2-116.6 80.2-189.6l-269.6-.6zm-17.8 3.9L126 525.4c49.6 48.4 117.2 78.7 191.4 80.3l.6-271.5zm-8-14.5l-191.1-192C71.1 177.6 41.4 245 40.4 319.1l269.6.6z"/><path class="st0" d="M328.3 605.5c73-1.2 140.3-30.5 189.9-77.7L328.9 337.6l-.6 267.9zm-17.7-278.8l-269.7-.6c.8 74.2 30.2 141.7 77.7 191.7l192-191.1zm7.7-14.9l.6-271.4c-74.2 1.2-141.9 31.3-191.7 79.4l191.1 192zm286.6 9.7c-1.2-74.2-30.5-140.3-77.7-189.9L337.1 320.9l267.8.6z"/><path class="st3" d="M328.6 309.8l190.2-189.4c-49.2-48-115.5-78.2-189.6-80.2l-.6 269.6z"/><path class="st4" d="M366 117.9c-3.5-1.3-5.7-3.2-6.5-5.7s-.6-5.6.8-9.2l4.6-12.6c.7-1.8 1.4-3.3 2.3-4.5.8-1.2 1.8-2.2 2.9-2.9 1.1-.7 2.4-1.1 3.9-1.1s3.1.3 4.9 1c3.5 1.3 5.7 3.2 6.5 5.6s.6 5.5-.7 9.1l-4.6 12.6c-.7 1.8-1.4 3.3-2.3 4.5-.8 1.2-1.8 2.2-3 2.9-1.1.7-2.4 1.1-3.9 1.1-1.5.1-3.1-.2-4.9-.8zm.2-5.5c.4.3.9.6 1.5.8.6.2 1.2.3 1.6.3.5 0 .9-.1 1.3-.3.4-.2.7-.5 1-.9s.6-.8.8-1.3c.2-.5.4-1 .7-1.6l5.7-15.6c.3-.8.5-1.5.6-2.1s.1-1.2.1-1.7c-.1-.6-.3-1.1-.7-1.5-.4-.4-1-.8-1.7-1-.7-.3-1.4-.4-2-.3s-1.1.3-1.5.7c-.4.4-.8.9-1 1.4-.3.5-.6 1.2-.9 2l-5.7 15.6c-.2.6-.4 1.2-.5 1.7s-.2 1-.2 1.5 0 1 .2 1.4c.1.2.4.6.7.9zm23.6 14.2c-3.5-1.3-5.7-3.2-6.5-5.7s-.6-5.6.8-9.2l4.6-12.6c.7-1.8 1.4-3.3 2.3-4.5.8-1.2 1.8-2.2 2.9-2.9 1.1-.7 2.4-1.1 3.9-1.1s3.1.3 4.9 1c3.5 1.3 5.7 3.2 6.5 5.6.8 2.5.6 5.5-.7 9.1l-4.6 12.6c-.7 1.8-1.4 3.3-2.3 4.5-.8 1.2-1.8 2.2-3 2.9-1.1.7-2.4 1.1-3.9 1.1-1.5.2-3.2-.2-4.9-.8zm.2-5.5c.4.3.9.6 1.5.8s1.2.3 1.6.3c.5 0 .9-.1 1.3-.3.4-.2.7-.5 1-.9s.6-.8.8-1.3c.2-.5.4-1 .7-1.6l5.7-15.6c.3-.8.5-1.5.6-2.1s.1-1.2.1-1.7c-.1-.6-.3-1.1-.7-1.5-.4-.4-1-.8-1.7-1-.7-.3-1.4-.4-2-.3s-1.1.3-1.5.7c-.4.4-.8.9-1 1.4-.3.5-.6 1.2-.9 2l-5.7 15.6c-.2.6-.4 1.2-.5 1.7s-.2 1-.2 1.5 0 1 .2 1.4c.1.2.3.6.7.9zm14.3 10.4l12.6-34.2 9.9 3.6c5.8 2.1 7.6 6.5 5.2 12.9-1.2 3.2-2.8 5.2-5 6.1-2.1.9-4.7.8-7.6-.3l-3.2-1.2-5.6 15.3-6.3-2.2zm13.5-17.4l2 .7c1.8.6 3.1.7 4 .3.9-.5 1.7-1.6 2.3-3.5.4-1.1.6-1.9.8-2.5.1-.6.1-1.2 0-1.8-.1-.6-.5-1.1-1-1.5s-1.3-.8-2.3-1.2l-2-.7-3.8 10.2zm17 29c-6-2.2-7.9-6.9-5.7-13.9l5.8.9c-1.5 4.6-1.1 7.3 1.4 8.2 1 .3 1.8.3 2.4-.1.7-.4 1.2-1.1 1.5-2.1s.5-1.9.4-2.8-.2-1.7-.5-2.4-.7-1.5-1.3-2.6l-3.1-5.6c-.9-1.6-1.4-3.2-1.6-4.7s.1-3.2.7-5c1-2.7 2.5-4.4 4.6-5.3s4.5-.9 7.3.1c1.3.4 2.3 1 3.2 1.7.8.7 1.5 1.4 1.9 2.2.4.8.7 1.6.8 2.6s.1 1.9 0 2.9-.3 2-.6 3.1l-5.7-.9c.2-.7.4-1.3.5-1.8s.2-1.1.2-1.7 0-1.1-.1-1.5-.4-.8-.7-1.1c-.3-.3-.8-.6-1.3-.7-.9-.3-1.8-.2-2.5.1-.7.4-1.2 1-1.6 2-.4 1.1-.5 2.1-.3 3s.6 1.9 1.2 3l3 5.5c.5.9.9 1.8 1.2 2.7.3.8.6 1.8.8 2.7.2 1 .3 2 .2 3.1-.1 1.1-.3 2.2-.7 3.2-.9 2.5-2.4 4.2-4.6 5.2-1.9.9-4.3.9-6.8 0zm11.7 3.9l2-5.6 5.6 2.1-2 5.6-5.6-2.1zm4.8-7.3l7.9-26.9 5.8 2.1-11.6 25.5-2.1-.7zm-98.7 2l6.6-18-3.9-1.4.5-1.4 9.6 3.5-.5 1.4-3.8-1.4-6.6 18-1.9-.7zm7.2 2.6l7.1-19.4 4.4 1.6c1.7.6 2.8 1.5 3.2 2.6.4 1.1.4 2.5-.2 4.1-1 2.7-2.4 3.9-4.4 3.6l-.6 11-1.8-.7.7-10.6-3-1.1-3.5 9.6-1.9-.7zm5.8-10.2l2.5.9c1.2.4 2.1.4 2.8 0 .7-.4 1.2-1.2 1.7-2.5s.6-2.2.3-2.9c-.2-.7-.9-1.3-2.1-1.7l-2.5-.9-2.7 7.1zm9.6 15.9l2.4-6.5.4-14.6 1.8.7-.5 12.1 7.3-9.6 1.8.7-9 11.4-2.4 6.5-1.8-.7zm12 4.4l11.2-17.9 1.9.7-3 20.9-1.8-.7.9-5.5-4.6-1.7-2.8 4.8-1.8-.6zm5.4-5.4l4.1 1.5 1.8-11.2-5.9 9.7zm11.4 11.8c-.9-.3-1.6-.8-2.1-1.3s-.9-1.1-1-1.8c-.2-.7-.2-1.4-.1-2.2s.3-1.7.7-2.6l2.8-7.6c.4-1 .8-1.8 1.2-2.5s.9-1.2 1.5-1.6c.6-.4 1.2-.7 2-.7s1.6.1 2.6.5c1.7.6 2.7 1.5 3.1 2.7s.2 2.7-.4 4.6l-.3.7-1.7-.6.3-.7c.5-1.5.7-2.6.5-3.4-.2-.8-.8-1.4-2-1.8-.5-.2-1-.3-1.4-.3s-.8.1-1.1.3c-.3.2-.6.4-.9.8-.3.4-.5.7-.7 1.1s-.4.9-.6 1.5l-2.9 8c-.3.8-.5 1.4-.6 2s-.1 1.1 0 1.6.3.9.6 1.3c.3.3.8.6 1.4.9 1.1.4 2.1.3 2.8-.2.7-.6 1.4-1.6 1.9-3.2l.8-2.3-2.9-1 .5-1.3 4.5 1.7-3.5 9.4-1.2-.4.6-2.3c-1.1 1-2.6 1.4-4.4.7zm7.1 2.4l11.2-17.9 1.9.7-3 20.9-1.8-.7.9-5.5-4.6-1.7-2.9 4.8-1.7-.6zm5.4-5.5l4.1 1.5 1.8-11.2-5.9 9.7zm7.2 10.1l7.1-19.4 1.8.7-7.1 19.4-1.8-.7zm5.2 1.9l7.1-19.4 1.3.5.7 17.4 5.5-15.1 1.6.6L438 173l-1.3-.5-.6-17.6-5.6 15.3-1.6-.5zm99.4 199.9c1.3-3.5 3.1-5.7 5.6-6.6s5.6-.6 9.3.7l12.7 4.5c1.8.7 3.3 1.4 4.6 2.2 1.2.8 2.2 1.8 2.9 2.9s1.1 2.4 1.1 3.9-.3 3.1-.9 4.9c-1.3 3.5-3.1 5.7-5.6 6.6-2.4.9-5.5.6-9.2-.7l-12.7-4.5c-1.8-.6-3.3-1.4-4.5-2.2-1.2-.8-2.2-1.8-2.9-2.9s-1.1-2.4-1.2-3.9c-.2-1.5.1-3.2.8-4.9zm5.4.1c-.3.4-.6.9-.8 1.5s-.3 1.2-.3 1.7.1.9.3 1.3.5.7.9 1 .9.6 1.3.8c.5.2 1 .4 1.7.7l15.6 5.6c.8.3 1.5.5 2.1.6s1.2.1 1.7.1c.6-.1 1.1-.3 1.5-.7s.8-1 1-1.7c.3-.7.4-1.4.3-2-.1-.6-.3-1.1-.7-1.5s-.9-.8-1.4-1c-.5-.3-1.2-.6-2-.9l-15.6-5.6c-.6-.2-1.2-.4-1.7-.5s-1-.2-1.5-.2-1 0-1.4.2c-.3 0-.6.3-1 .6zm-14 23.7c1.3-3.5 3.1-5.7 5.6-6.6s5.6-.6 9.3.7l12.7 4.5c1.8.7 3.3 1.4 4.6 2.2 1.2.8 2.2 1.8 2.9 2.9s1.1 2.4 1.1 3.9-.3 3.1-.9 4.9c-1.3 3.5-3.1 5.7-5.6 6.6-2.4.9-5.5.6-9.2-.7l-12.7-4.5c-1.8-.6-3.3-1.4-4.5-2.2-1.2-.8-2.2-1.8-2.9-2.9s-1.1-2.4-1.2-3.9c-.1-1.5.2-3.1.8-4.9zm5.5.2c-.3.4-.6.9-.8 1.5s-.3 1.2-.3 1.7.1.9.3 1.3.5.7.9 1 .9.6 1.3.8c.5.2 1 .4 1.7.7l15.6 5.6c.8.3 1.5.5 2.1.6s1.2.1 1.7.1c.6-.1 1.1-.3 1.5-.7s.8-1 1-1.7c.3-.7.4-1.4.3-2-.1-.6-.3-1.1-.7-1.5s-.9-.8-1.4-1c-.5-.3-1.2-.6-2-.9l-15.6-5.6c-.6-.2-1.2-.4-1.7-.5s-1-.2-1.5-.2-1 0-1.4.2c-.3-.1-.7.2-1 .6zM515 408l34.3 12.3-3.5 9.9c-2.1 5.9-6.4 7.6-12.9 5.3-3.2-1.1-5.2-2.8-6.1-4.9-.9-2.1-.8-4.7.2-7.6l1.2-3.2-15.3-5.5 2.1-6.3zm17.5 13.3l-.7 2c-.6 1.8-.7 3.1-.2 4s1.6 1.6 3.5 2.3c1.1.4 1.9.6 2.5.8.6.1 1.2.1 1.8 0s1.1-.5 1.5-1 .8-1.3 1.1-2.3l.7-2-10.2-3.8zm-28.9 17.2c2.2-6 6.8-8 13.9-5.8l-.8 5.9c-4.6-1.5-7.3-1-8.2 1.5-.3 1-.3 1.8.1 2.4s1.1 1.2 2.1 1.5 1.9.5 2.8.4c.9-.1 1.7-.2 2.4-.5s1.5-.7 2.6-1.3l5.5-3.1c1.6-.9 3.2-1.5 4.7-1.7s3.2 0 5 .7c2.7 1 4.5 2.5 5.4 4.6s.9 4.5-.1 7.3c-.4 1.3-1 2.3-1.7 3.2s-1.4 1.5-2.2 1.9-1.6.7-2.6.8-1.9.1-2.9 0-2-.3-3.1-.6l.9-5.7c.7.2 1.3.4 1.8.5s1.1.2 1.7.2c.6 0 1.1 0 1.5-.1s.8-.4 1.1-.7c.3-.3.6-.8.7-1.3.3-.9.2-1.8-.2-2.5s-1-1.2-2-1.5c-1.1-.4-2.1-.5-3-.3s-1.9.6-3 1.2l-5.5 3.1c-.9.5-1.8.9-2.7 1.2-.8.3-1.7.6-2.7.8-1 .2-2 .3-3.1.2-1.1-.1-2.2-.3-3.2-.7-2.5-.9-4.2-2.4-5.2-4.6-.9-2.1-1-4.4 0-7zm-3.8 11.8l5.6 2-2 5.6-5.6-2 2-5.6zm7.3 4.7l27 7.7-2.1 5.8-25.6-11.5.7-2zm-2.7-98.7l18.1 6.5 1.4-3.9 1.4.5-3.4 9.6-1.4-.5 1.4-3.8-18.1-6.5.6-1.9zm-2.6 7.2l19.5 7-1.6 4.4c-.6 1.7-1.5 2.8-2.6 3.3-1.1.4-2.5.4-4.1-.2-2.7-1-3.9-2.4-3.6-4.4l-11.1-.6.6-1.8 10.6.6 1.1-3.1-9.6-3.4.8-1.8zm10.2 5.8l-.9 2.5c-.4 1.2-.4 2.1 0 2.8s1.3 1.2 2.5 1.7c1.3.4 2.2.6 3 .3.7-.2 1.3-1 1.7-2.1l.9-2.5-7.2-2.7zm-15.8 9.7l6.5 2.3 14.6.3-.6 1.8-12.1-.4 9.6 7.3-.6 1.8-11.5-9-6.5-2.3.6-1.8zm-4.3 12l18 11.1-.7 1.9-21-2.8.6-1.8 5.6.9 1.7-4.7-4.9-2.9.7-1.7zm5.5 5.4l-1.5 4.1 11.3 1.7-9.8-5.8zm-11.8 11.5c.3-.9.7-1.6 1.3-2.1.5-.5 1.1-.9 1.8-1 .7-.2 1.4-.2 2.2-.1.8.1 1.7.3 2.6.7l7.6 2.7c1 .4 1.8.7 2.5 1.1s1.2.9 1.6 1.5.7 1.2.7 2-.1 1.6-.4 2.6c-.6 1.7-1.5 2.7-2.7 3.1s-2.7.3-4.6-.4l-.7-.2.6-1.7.7.2c1.5.5 2.6.7 3.4.5s1.4-.8 1.8-2c.2-.5.3-1 .3-1.4s-.1-.8-.3-1.1c-.2-.3-.4-.6-.8-.9s-.7-.5-1.1-.7-.9-.4-1.5-.6l-8-2.9c-.8-.3-1.4-.5-2-.5-.6-.1-1.1-.1-1.6 0s-.9.3-1.2.6c-.3.3-.6.8-.9 1.5-.4 1.1-.3 2.1.3 2.8.6.7 1.6 1.3 3.2 1.9l2.3.8 1-2.9 1.4.5-1.6 4.6-9.4-3.4.4-1.2 2.3.6c-1.5-1.4-1.9-2.8-1.2-4.6zm-2.3 7.1l18 11.1-.7 1.9-21-2.8.6-1.8 5.6.9 1.7-4.7-4.9-2.9.7-1.7zm5.5 5.4l-1.5 4.1 11.3 1.7-9.8-5.8zm-10 7.2l19.5 7-.6 1.8-19.5-7 .6-1.8zm-1.9 5.3l19.5 7-.5 1.4-17.4.8 15.1 5.4-.6 1.6-19.5-7 .5-1.3 17.5-.8-15.3-5.5.7-1.6zM279.6 534.8c3.5 1.3 5.7 3.2 6.5 5.7s.6 5.6-.8 9.2l-4.6 12.6c-.7 1.8-1.4 3.3-2.3 4.5-.8 1.2-1.8 2.2-2.9 2.9s-2.4 1.1-3.9 1.1-3.1-.3-4.9-1c-3.5-1.3-5.7-3.2-6.5-5.6s-.6-5.5.7-9.1l4.6-12.6c.7-1.8 1.4-3.3 2.3-4.5.8-1.2 1.8-2.2 3-2.9 1.1-.7 2.4-1.1 3.9-1.1 1.5-.2 3.1.2 4.9.8zm-.2 5.5c-.4-.3-.9-.6-1.5-.8s-1.2-.3-1.6-.3c-.5 0-.9.1-1.3.3s-.7.5-1 .9-.6.8-.8 1.3c-.2.5-.4 1-.7 1.6l-5.7 15.6c-.3.8-.5 1.5-.6 2.1s-.1 1.2-.1 1.7c.1.6.3 1.1.7 1.5.4.4 1 .8 1.7 1 .7.3 1.4.4 2 .3.6-.1 1.1-.3 1.5-.7s.8-.9 1-1.4c.3-.5.6-1.2.9-2l5.7-15.6c.2-.6.4-1.2.5-1.7s.2-1 .2-1.5 0-1-.2-1.4c-.1-.2-.3-.6-.7-.9zm-23.5-14.2c3.5 1.3 5.7 3.2 6.5 5.7s.6 5.6-.8 9.2l-4.6 12.6c-.7 1.8-1.4 3.3-2.3 4.5-.8 1.2-1.8 2.2-2.9 2.9-1.1.7-2.4 1.1-3.9 1.1s-3.1-.3-4.9-1c-3.5-1.3-5.7-3.2-6.5-5.6-.8-2.4-.6-5.5.7-9.1l4.6-12.6c.7-1.8 1.4-3.3 2.3-4.5.8-1.2 1.8-2.2 3-2.9 1.1-.7 2.4-1.1 3.9-1.1 1.5-.2 3.1.1 4.9.8zm-.3 5.5c-.4-.3-.9-.6-1.5-.8s-1.2-.3-1.6-.3c-.5 0-.9.1-1.3.3-.4.2-.7.5-1 .9s-.6.8-.8 1.3-.4 1-.7 1.6l-5.7 15.6c-.3.8-.5 1.5-.6 2.1s-.1 1.2-.1 1.7c.1.6.3 1.1.7 1.5s1 .8 1.7 1c.7.3 1.4.4 2 .3.6-.1 1.1-.3 1.5-.7s.8-.9 1-1.4c.3-.5.6-1.2.9-2l5.7-15.6c.2-.6.4-1.2.5-1.7s.2-1 .2-1.5 0-1-.2-1.4c0-.2-.3-.6-.7-.9zm-14.3-10.4l-12.6 34.2-9.9-3.6c-5.8-2.1-7.6-6.5-5.2-12.9 1.2-3.2 2.8-5.2 5-6.1 2.1-.9 4.7-.8 7.6.3l3.2 1.2L235 519l6.3 2.2zm-13.5 17.4l-2-.7c-1.8-.6-3.1-.7-4-.3-.9.5-1.7 1.6-2.3 3.5-.4 1.1-.6 1.9-.8 2.5-.1.6-.1 1.2 0 1.8s.5 1.1 1 1.5 1.3.8 2.3 1.2l2 .7 3.8-10.2zm-16.9-29c6 2.2 7.9 6.9 5.7 13.9l-5.8-.9c1.5-4.6 1.1-7.3-1.4-8.2-1-.3-1.8-.3-2.4.1-.7.4-1.2 1.1-1.5 2.1s-.5 1.9-.4 2.8c.1.9.2 1.7.5 2.4s.7 1.5 1.3 2.6l3.1 5.6c.9 1.6 1.4 3.2 1.6 4.7.2 1.5-.1 3.2-.7 5-1 2.7-2.5 4.4-4.6 5.3-2.1.9-4.5.9-7.3-.1-1.3-.4-2.3-1-3.2-1.7-.8-.7-1.5-1.4-1.9-2.2s-.7-1.6-.8-2.6-.1-1.9 0-2.9.3-2 .6-3.1l5.7.9c-.2.7-.4 1.3-.5 1.8s-.2 1.1-.2 1.7c0 .6 0 1.1.1 1.5s.4.8.7 1.1.8.6 1.3.7c.9.3 1.8.2 2.5-.1.7-.4 1.2-1 1.6-2 .4-1.1.5-2.1.3-3s-.6-1.9-1.2-3l-3-5.5c-.5-.9-.9-1.8-1.2-2.7-.3-.8-.6-1.8-.8-2.7-.2-1-.3-2-.2-3.1s.3-2.2.7-3.2c.9-2.5 2.4-4.2 4.6-5.2 1.9-1 4.2-1 6.8 0zm-16.5 3.4l-7.9 26.9-5.8-2.1 11.6-25.5 2.1.7zm4.7-7.3l-2 5.6-5.6-2.1 2-5.6 5.6 2.1zm94 5.3l-6.6 18 3.9 1.4-.5 1.4-9.6-3.5.5-1.4 3.8 1.4 6.6-18 1.9.7zm-7.2-2.6l-7.1 19.4-4.4-1.6c-1.7-.6-2.8-1.5-3.2-2.6-.4-1.1-.4-2.5.2-4.1 1-2.7 2.4-3.9 4.4-3.6l.6-11 1.8.7-.7 10.6 3 1.1 3.5-9.6 1.9.7zm-5.9 10.2l-2.5-.9c-1.2-.4-2.1-.4-2.8 0-.7.4-1.2 1.2-1.7 2.5s-.6 2.2-.3 2.9c.2.7.9 1.3 2.1 1.7l2.5.9 2.7-7.1zm-9.5-15.9l-2.4 6.5-.4 14.6-1.8-.7.5-12.1-7.3 9.6-1.8-.7 9-11.4 2.4-6.5 1.8.7zm-12.1-4.4l-11.2 17.9-1.9-.7 3-20.9 1.8.7-.9 5.5 4.6 1.7 2.9-4.8 1.7.6zm-5.4 5.4l-4.1-1.5-1.8 11.2 5.9-9.7zm-11.4-11.9c.9.3 1.6.8 2.1 1.3s.9 1.1 1 1.8c.2.7.2 1.4.1 2.2-.1.8-.3 1.7-.7 2.6l-2.8 7.6c-.4 1-.8 1.8-1.2 2.5s-.9 1.2-1.5 1.6-1.2.7-2 .7-1.6-.1-2.6-.5c-1.7-.6-2.7-1.5-3.1-2.7-.4-1.2-.2-2.7.4-4.6l.3-.7 1.7.6-.3.7c-.5 1.5-.7 2.6-.5 3.4s.8 1.4 2 1.8c.5.2 1 .3 1.4.3s.8-.1 1.1-.3c.3-.2.6-.4.9-.8.3-.4.5-.7.7-1.1s.4-.9.6-1.5l2.9-8c.3-.8.5-1.4.6-2s.1-1.1 0-1.6-.3-.9-.6-1.3c-.3-.3-.8-.6-1.4-.9-1.1-.4-2.1-.3-2.8.2-.7.6-1.4 1.6-1.9 3.2l-.8 2.3 2.9 1-.5 1.3-4.5-1.7 3.5-9.4 1.2.4-.6 2.3c1.2-.9 2.6-1.3 4.4-.7zm-7.1-2.3l-11.2 17.9-1.9-.7 3-20.9 1.8.7-.9 5.5 4.6 1.7 2.9-4.8 1.7.6zm-5.4 5.4l-4.1-1.5-1.8 11.2 5.9-9.7zm-7.2-10l-7.1 19.4-1.8-.7 7.1-19.4 1.8.7zm-5.2-1.9l-7.1 19.4-1.3-.5-.7-17.4-5.5 15.1-1.6-.6 7.1-19.4 1.3.5.6 17.6 5.6-15.3 1.6.6zm-99.3-199.9c-1.3 3.5-3.1 5.7-5.6 6.6s-5.6.6-9.3-.7l-12.7-4.5c-1.8-.7-3.3-1.4-4.6-2.2-1.2-.8-2.2-1.8-2.9-2.9-.7-1.1-1.1-2.4-1.1-3.9s.3-3.1.9-4.9c1.3-3.5 3.1-5.7 5.6-6.6 2.4-.9 5.5-.6 9.2.7l12.7 4.5c1.8.6 3.3 1.4 4.5 2.2 1.2.8 2.2 1.8 2.9 2.9.7 1.1 1.1 2.4 1.2 3.9s-.2 3.1-.8 4.9zm-5.5-.2c.3-.4.6-.9.8-1.5s.3-1.2.3-1.7-.1-.9-.3-1.3c-.2-.4-.5-.7-.9-1s-.9-.6-1.3-.8c-.5-.2-1-.4-1.7-.7l-15.6-5.6c-.8-.3-1.5-.5-2.1-.6s-1.2-.1-1.7-.1c-.6.1-1.1.3-1.5.7-.4.4-.8 1-1 1.7s-.4 1.4-.3 2 .3 1.1.7 1.5c.4.4.9.8 1.4 1 .5.3 1.2.6 2 .9l15.6 5.6c.6.2 1.2.4 1.7.5s1 .2 1.5.2 1 0 1.4-.2c.3.1.7-.2 1-.6zm14-23.6c-1.3 3.5-3.1 5.7-5.6 6.6-2.5.8-5.6.6-9.3-.7l-12.7-4.5c-1.8-.7-3.3-1.4-4.6-2.2-1.2-.8-2.2-1.8-2.9-2.9-.7-1.1-1.1-2.4-1.1-3.9s.3-3.1.9-4.9c1.3-3.5 3.1-5.7 5.6-6.6 2.4-.9 5.5-.6 9.2.7l12.7 4.5c1.8.6 3.3 1.4 4.5 2.2s2.2 1.8 2.9 2.9c.7 1.1 1.1 2.4 1.2 3.9s-.2 3.1-.8 4.9zm-5.5-.2c.3-.4.6-.9.8-1.5s.3-1.2.3-1.7-.1-.9-.3-1.3c-.2-.4-.5-.7-.9-1s-.9-.6-1.3-.8c-.5-.2-1-.4-1.7-.7l-15.6-5.6c-.8-.3-1.5-.5-2.1-.6s-1.2-.1-1.7-.1c-.6.1-1.1.3-1.5.7s-.8 1-1 1.7c-.3.7-.4 1.4-.3 2s.3 1.1.7 1.5c.4.4.9.8 1.4 1 .5.3 1.2.6 2 .9l15.6 5.6c.6.2 1.2.4 1.7.5s1 .2 1.5.2 1 0 1.4-.2c.3 0 .7-.2 1-.6zm10.3-14.4l-34.3-12.3 3.5-9.9c2.1-5.9 6.4-7.6 12.9-5.3 3.2 1.1 5.2 2.8 6.1 4.9.9 2.1.8 4.7-.2 7.6l-1.2 3.2 15.3 5.5-2.1 6.3zm-17.5-13.3l.7-2c.6-1.8.7-3.1.2-4s-1.6-1.6-3.5-2.3c-1.1-.4-1.9-.6-2.5-.8-.6-.1-1.2-.1-1.8 0-.6.1-1.1.5-1.5 1s-.8 1.3-1.1 2.3l-.7 2 10.2 3.8zm28.9-17.2c-2.2 6-6.8 8-13.9 5.8l.8-5.9c4.6 1.5 7.3 1 8.2-1.5.3-1 .3-1.8-.1-2.4-.4-.7-1.1-1.2-2.1-1.5s-1.9-.5-2.8-.4c-.9.1-1.7.2-2.4.5s-1.5.7-2.6 1.3l-5.5 3.1c-1.6.9-3.2 1.5-4.7 1.7s-3.2 0-5-.7c-2.7-1-4.5-2.5-5.4-4.6s-.9-4.5.1-7.3c.4-1.3 1-2.3 1.7-3.2s1.4-1.5 2.2-1.9c.8-.4 1.6-.7 2.6-.8s1.9-.1 2.9 0 2 .3 3.1.6l-.9 5.7c-.7-.2-1.3-.4-1.9-.5-.5-.1-1.1-.2-1.7-.2s-1.1 0-1.5.1-.8.4-1.1.7c-.3.3-.6.8-.7 1.3-.3.9-.2 1.8.2 2.5s1 1.2 2 1.5c1.1.4 2.1.5 3 .3s1.9-.6 3-1.2l5.5-3.1c.9-.5 1.8-.9 2.7-1.2.8-.3 1.7-.6 2.7-.8s2-.3 3.1-.2 2.2.3 3.2.7c2.5.9 4.2 2.4 5.2 4.6 1 2.1 1 4.4.1 7zm-3.6-16.5l-27-7.7 2.1-5.8 25.6 11.4-.7 2.1zm7.3 4.7l-5.6-2 2-5.6 5.6 2-2 5.6zm-4.5 94l-18.1-6.5-1.4 3.9-1.4-.5 3.4-9.6 1.4.5-1.4 3.8 18.1 6.5-.6 1.9zm2.5-7.2l-19.5-7 1.6-4.4c.6-1.7 1.5-2.8 2.6-3.3 1.1-.4 2.5-.4 4.1.2 2.7 1 3.9 2.4 3.6 4.4l11.1.6-.6 1.8-10.6-.6-1.1 3.1 9.6 3.4-.8 1.8zm-10.2-5.8l.9-2.5c.4-1.2.4-2.1 0-2.8s-1.3-1.2-2.5-1.7c-1.3-.4-2.2-.6-3-.3-.7.2-1.3 1-1.7 2.1l-.9 2.5 7.2 2.7zm15.8-9.7l-6.5-2.3-14.6-.3.6-1.8 12.1.4-9.6-7.3.6-1.8 11.5 9 6.5 2.3-.6 1.8zm4.3-12l-18-11.1.7-1.9 21 2.8-.6 1.8-5.6-.9-1.7 4.7 4.9 2.9-.7 1.7zm-5.5-5.4l1.5-4.1-11.3-1.7 9.8 5.8zm11.8-11.5c-.3.9-.7 1.6-1.3 2.1-.5.5-1.1.9-1.8 1-.7.2-1.4.2-2.2.1s-1.7-.3-2.6-.7l-7.6-2.7c-1-.4-1.8-.7-2.5-1.1-.7-.4-1.2-.9-1.6-1.5-.4-.6-.7-1.2-.7-2s.1-1.6.4-2.6c.6-1.7 1.5-2.7 2.7-3.1 1.2-.4 2.7-.3 4.6.4l.7.2-.6 1.7-.7-.2c-1.5-.5-2.6-.7-3.4-.5-.8.2-1.4.8-1.8 2-.2.5-.3 1-.3 1.4s.1.8.3 1.1.4.6.8.9c.4.3.7.5 1.1.7.4.2.9.4 1.5.6l8 2.9c.8.3 1.4.5 2 .5.6.1 1.1.1 1.6 0s.9-.3 1.2-.6.6-.8.9-1.5c.4-1.1.3-2.1-.3-2.8s-1.6-1.3-3.2-1.9l-2.3-.8-1 2.9-1.4-.5 1.6-4.6 9.4 3.4-.4 1.2-2.3-.6c1.5 1.3 1.9 2.8 1.2 4.6zm2.3-7.1l-18-11.1.7-1.9 21 2.8-.6 1.8-5.6-.9-1.7 4.7 4.9 2.9-.7 1.7zm-5.5-5.4l1.5-4.1-11.3-1.7 9.8 5.8zm10-7.2l-19.5-7 .6-1.8 19.5 7-.6 1.8zm1.9-5.3l-19.5-7 .5-1.4 17.4-.8-15.1-5.4.6-1.6 19.5 7-.5 1.3-17.5.8 15.3 5.5-.7 1.6z"/><path d="M204.5 161.9l-26.4-47.6 8.6-3.4 15.6 29.2-7.6-32.4 6.8-2.7 16.8 28.6-8.6-31.9 8.5-3.4 13.3 52.8-8.6 3.4-17.5-29.8 7.8 33.6-8.7 3.6zm39.3-15.5L224 96.2l10.1-4 19.9 50.2-10.2 4zm17.7-7.1l-19.9-50.2 7.1-2.8 21.5 21.6-10.3-26 8.5-3.4 19.9 50.2-6.8 2.7-22.2-23.3 11 27.7-8.8 3.5zm31.4-26.5L275.1 76l9.3-3.7 11.7 39.2-3.2 1.3zm2 13.3l-3.5-8.9 8.9-3.5 3.5 8.9-8.9 3.5z"/><path class="st5" d="M292.2 156.1c0 1.1-.2 2.1-.7 3.1-.3.7-.6 1.3-1 1.9-.3.5-.7 1.1-1.1 1.6-.5.6-1.1 1.3-1.7 1.9-.6.6-1.3 1.2-2 1.7-1.5 1.2-3.2 2.3-4.9 3.2-1.7.9-3.4 1.6-5.2 2.2-1.6.5-3.1 1-4.7 1.3-1.4.3-2.7.5-4.1.5h-2.7c-.7 0-1.5-.2-2.2-.3-1.1-.2-2.2-.5-3.3-1-.6-.3-1.2-.7-1.8-1.1-.7-.5-1.3-1.2-1.8-1.9-.7-1.2-1-2.5-.9-3.9.1-1.5.6-2.8 1.4-4.1.4-.7.9-1.4 1.4-2.1.5-.7 1.1-1.3 1.7-1.8.7-.7 1.5-1.3 2.2-1.9 1.2-1 2.5-1.8 3.9-2.6 1-.5 2-1.1 3-1.5 1.2-.5 2.4-1 3.6-1.3l3.3-.9c1-.2 2-.4 2.9-.5.8-.1 1.6-.2 2.4-.2 1.1 0 2.1 0 3.2.1 1.3.1 2.6.4 3.8.9 1 .4 2 .9 2.8 1.6 1.7 1.4 2.5 3.1 2.5 5.1zm-39.4 52.8h-1.9c-1.1-.1-2.2-.2-3.3-.5-1-.2-1.9-.5-2.8-1-1.5-.7-2.7-1.7-3.5-3.2-.6-1.1-.8-2.2-.7-3.4.1-1.5.5-2.8 1.2-4s1.5-2.3 2.4-3.3c1.7-1.9 3.8-3.5 6-4.8 1.7-1 3.5-1.9 5.4-2.6 1.7-.7 3.5-1.2 5.2-1.6 1.3-.3 2.6-.5 3.9-.6 1-.1 2.1-.1 3.2-.1 1.5 0 3 .3 4.4.7.9.3 1.7.6 2.5 1 1.1.6 2 1.4 2.7 2.5.7 1.2 1.1 2.4 1 3.8-.1 1.2-.4 2.4-1 3.5-.7 1.4-1.5 2.6-2.5 3.7-1 1.2-2.2 2.2-3.4 3.1-.9.6-1.8 1.3-2.7 1.8-1.6 1-3.2 1.8-4.9 2.4-1.6.6-3.1 1.2-4.8 1.6-1.4.3-2.7.5-4.1.7-.7.3-1.5.3-2.3.3 0 .1 0 0 0 0z"/><path class="st6" d="M242.5 207.7l.1.1c.6.9 1.4 1.7 2.3 2.2.8.5 1.6.9 2.5 1.2 1.3.4 2.6.7 4 .7 1 0 2 .1 2.9 0 1 0 2.1-.1 3.1-.3 1.4-.2 2.7-.5 4.1-.9s2.7-.9 4.1-1.4c1.7-.6 3.2-1.5 4.8-2.4 1.2-.7 2.4-1.5 3.4-2.5.7-.6 1.5-1.3 2.1-2 .8-.9 1.6-1.8 2.2-2.8.8-1.3 1.4-2.7 1.6-4.3.1-.8.1-1.5-.1-2.3 0 .1.1.1.1.2s0 .2.1.2l1.2 3c.4 1 .4 2.1.3 3.2-.2 1.2-.6 2.4-1.2 3.4-.6 1.1-1.3 2.2-2.2 3.1l-1.8 1.8c-1.1 1-2.3 1.9-3.5 2.7-1.3.8-2.6 1.5-4 2.2-1.4.6-2.7 1.2-4.2 1.6-1.6.5-3.2.9-4.9 1.2-1.5.3-3.1.4-4.6.4-1.2 0-2.4-.2-3.6-.3-1.3-.2-2.6-.6-3.8-1.2-1.3-.7-2.4-1.6-3.2-2.8-.3-.6-.6-1.2-.8-1.8-.4-.7-.7-1.5-1-2.2z"/><path class="st6" d="M245.4 214.7v.2c.9 1.3 2 2.2 3.4 2.9 1.2.6 2.4.9 3.7 1.1.9.1 1.9.2 2.8.2.9 0 1.8 0 2.7-.1 1.3-.1 2.5-.3 3.8-.6 1.2-.3 2.4-.6 3.6-1s2.3-.8 3.5-1.3c1.5-.6 3-1.4 4.4-2.3 1.4-.9 2.7-1.8 3.9-2.9.8-.7 1.5-1.5 2.2-2.3 1.2-1.4 2.3-3 2.8-4.9.3-1.2.5-2.4.2-3.6v-.1c.1.2.1.3.2.5.1.1.1.3.2.4.4 1 .8 1.9 1.1 2.9.3.8.3 1.6.3 2.5-.1 1.1-.4 2.1-.8 3.1-.4.8-.8 1.5-1.3 2.2-.3.3-.5.7-.8 1-.5.6-.9 1.1-1.5 1.6-.8.8-1.7 1.5-2.6 2.2-1.8 1.4-3.8 2.6-5.9 3.5-1.5.7-3 1.3-4.6 1.7-1.6.5-3.2.9-4.9 1.1-1.8.3-3.6.4-5.3.3-1.4-.1-2.8-.3-4.2-.7-1.1-.3-2.2-.8-3.1-1.4-1.3-.9-2.2-2-2.7-3.5-.3-.9-.7-1.9-1.1-2.8-.1.2 0 .2 0 .1zm47.9-57.1l.6 1.5c.3.7.6 1.5.8 2.2.3 1.1.3 2.2.1 3.3-.2 1.2-.7 2.4-1.4 3.4l-1.2 1.8c-.7 1-1.6 1.8-2.4 2.6-1.2 1.1-2.5 2-3.8 2.9-.8.5-1.7 1-2.6 1.5-1.5.8-3.1 1.5-4.8 2-1.2.4-2.4.7-3.6 1-1 .2-2 .4-3 .5-.3 0-.7-.1-1.1-.1-.9-.1-1.9-.2-2.8-.3h-2.6c-.4 0-.8.1-1.2.1-.5-.1-1.1-.2-1.6-.4-1-.3-1.9-.7-2.7-1.3-1.2-.8-2.1-1.9-2.6-3.3-.3-.9-.7-1.8-1.1-2.7 0-.1-.1-.1-.1-.3l.2.2c.5.8 1.2 1.5 2.1 2.1 1 .7 2.1 1.1 3.2 1.5 1.3.4 2.7.6 4 .6 1.8.1 3.6 0 5.4-.3 1.7-.2 3.4-.6 5.1-1.2 1.2-.4 2.4-.9 3.6-1.4.9-.4 1.7-.8 2.5-1.2 1.1-.7 2.3-1.4 3.4-2.1 1.1-.7 2.1-1.5 3-2.5.7-.7 1.3-1.3 1.9-2.1 1-1.2 1.8-2.5 2.3-3.9.4-1.1.6-2.5.4-4.1-.1.1-.1.1 0 0z"/><path class="st6" d="M296.1 164.8l.6 1.5c.3.7.6 1.5.8 2.2.3.9.3 1.9.2 2.8-.2 1.4-.7 2.7-1.5 3.9-.6 1.1-1.4 2.1-2.3 3s-1.9 1.8-2.9 2.6c-1.6 1.3-3.3 2.3-5.1 3.2-1.5.8-3.1 1.5-4.8 2-.1 0-.1.1-.2.1-.9-1.4-2.1-2.6-3.5-3.5.8-.2 1.6-.5 2.4-.7 1.2-.5 2.4-.9 3.6-1.5 1.4-.6 2.7-1.4 4-2.2 1.2-.8 2.3-1.6 3.3-2.5l2.1-2.1c1.2-1.3 2.1-2.7 2.8-4.4.3-.7.5-1.4.5-2.2.1-.7.1-1.4 0-2.2-.1.1-.1.1 0 0z"/><path class="st6" d="M298.9 172c.2.4.3.8.5 1.3.3.8.7 1.6.9 2.4.3.9.3 1.9.2 2.9-.2 1.4-.7 2.6-1.4 3.8-.6 1-1.2 1.8-2 2.7s-1.8 1.8-2.7 2.6c-1.1.9-2.3 1.7-3.5 2.4-1.7 1-3.5 1.9-5.4 2.6-.5.2-.9.3-1.4.5-.2.1-.2-.1-.3-.2-.3-.7-.5-1.3-.8-2-.2-.4-.4-.7-.6-1-.1-.1-.1-.3-.2-.4-.2-.3 0-.4.3-.5 1.1-.4 2.2-.8 3.2-1.3 1.1-.5 2.1-1 3.1-1.6 1.7-.9 3.2-2 4.7-3.3.6-.5 1.2-1.1 1.8-1.7.8-.8 1.5-1.7 2.1-2.7.5-.8.9-1.7 1.2-2.6.3-.9.4-1.8.4-2.7-.1-.5-.2-.8-.1-1.2-.1 0-.1 0 0 0z"/><path class="st6" d="M301.6 179.1c.1.2.1.3.2.5.4 1.1.8 2.1 1.2 3.2.3 1 .3 1.9.2 2.9-.2 1.5-.8 2.8-1.6 4-.8 1.3-1.7 2.4-2.8 3.4-1.5 1.5-3.2 2.8-5 3.8-1.2.7-2.4 1.3-3.6 1.9-1.1.5-2.3.9-3.5 1.4h-.2l-.6-1.5c-.2-.6-.5-1.3-.9-1.8-.1-.2-.2-.4-.2-.7.4-.1.8-.3 1.2-.4 1.1-.4 2.2-.9 3.2-1.4 1.8-.8 3.6-1.9 5.2-3.1 1.1-.8 2.2-1.7 3.1-2.7.6-.7 1.3-1.4 1.8-2.1.8-1 1.4-2.2 1.8-3.4.3-1 .5-2 .5-3 0-.3-.1-.6 0-1 0 .1 0 .1 0 0z"/><path d="M489 202.5l47.6-26.4 3.4 8.6-29.2 15.6 32.4-7.6 2.7 6.8-28.6 16.8 31.9-8.6 3.4 8.5-52.8 13.3-3.4-8.6 29.8-17.5-33.6 7.8-3.6-8.7zm15.6 39.4l50.2-19.9 4 10.1-50.2 19.9-4-10.1zm7 17.7l50.2-19.9 2.8 7.1-21.6 21.5 26-10.3 3.4 8.5-50.2 19.9-2.7-6.8 23.3-22.2-27.7 11-3.5-8.8zm13.2 33.3l8.9-3.5 3.5 8.9-8.9 3.5-3.5-8.9zm13.4-2l36.8-17.7 3.7 9.3-39.2 11.7-1.3-3.3zm-42.7-.7c-1.6 0-2.7-.2-3.7-.7-.6-.3-1.3-.6-1.9-.9s-1.1-.7-1.6-1.1c-.8-.6-1.5-1.3-2.2-2-1-1.1-1.9-2.2-2.7-3.4-1.1-1.6-2-3.3-2.8-5-.6-1.3-1.1-2.7-1.5-4.1-.3-1.3-.7-2.5-1-3.8-.3-1.4-.5-2.8-.5-4.2v-2.6c.1-1.5.3-3 .8-4.5.3-1 .8-1.9 1.4-2.7 1.2-1.6 2.7-2.6 4.7-2.8 1.2-.1 2.3.1 3.5.5.9.3 1.8.8 2.6 1.3.9.6 1.7 1.2 2.5 1.9 1.2 1.2 2.3 2.4 3.3 3.8 1 1.5 2 3 2.7 4.6.8 1.6 1.4 3.2 2 4.9.5 1.5.9 3 1.1 4.5.2 1.3.4 2.7.4 4 0 1 0 2-.1 3.1-.1 1-.3 1.9-.5 2.9-.2 1.1-.7 2.1-1.3 3-.6 1.1-1.4 1.9-2.5 2.6-.9.4-2 .7-2.7.7zm-45.8-51.7c1.3 0 2.6.4 3.7.9.8.4 1.6.8 2.3 1.4 1.3.9 2.4 1.9 3.4 3.1 1.5 1.7 2.8 3.5 3.8 5.5 1 1.8 1.9 3.7 2.5 5.7.6 1.7 1 3.3 1.3 5.1.2 1.2.3 2.5.4 3.8.1 1.6 0 3.2-.3 4.8-.2 1.3-.6 2.5-1.2 3.7-.7 1.3-1.5 2.4-2.8 3.2-1.2.7-2.4 1.1-3.8 1-1.1-.1-2.1-.3-3.1-.8-.8-.4-1.5-.8-2.3-1.3-1-.7-2-1.5-2.9-2.4-1.5-1.5-2.8-3.3-3.9-5.1-1.3-2.1-2.3-4.3-3.1-6.6-.5-1.5-1-3-1.3-4.5-.2-1.3-.4-2.5-.5-3.8-.1-.6-.1-1.3-.1-1.9 0-1 .1-2.1.2-3.1s.3-1.9.7-2.8c.3-.9.7-1.8 1.3-2.6.9-1.3 2-2.3 3.6-2.7.9-.4 1.5-.5 2.1-.6z"/><path d="M458 277.7c-.8.3-1.5.6-2.3.9-.7.3-1.4.5-2.1.7-.9.2-1.9.1-2.8-.1-1.2-.3-2.2-.7-3.3-1.4-1.5-.9-2.8-2-4-3.3-1.4-1.5-2.6-3.1-3.6-4.8-1.2-2.1-2.3-4.3-3-6.5-.6-1.8-1.1-3.6-1.4-5.4-.3-1.6-.5-3.3-.4-4.9 0-1.5.2-3 .5-4.5.3-1.2.7-2.3 1.2-3.3.9-1.6 2.1-2.8 3.9-3.4 1-.3 1.9-.7 2.9-1.1h.1c-.4.3-.9.7-1.3 1-.6.6-1.2 1.3-1.5 2.1-.2.5-.5 1-.7 1.5-.3.8-.5 1.6-.7 2.4-.3 1.3-.3 2.5-.3 3.8 0 1.6.2 3.2.4 4.7.5 2.7 1.2 5.3 2.3 7.8.9 2.2 2.1 4.3 3.4 6.2.8 1.1 1.7 2.2 2.7 3.2.6.6 1.2 1.2 1.9 1.7 1.4 1.1 2.8 2 4.5 2.5 1.2.3 2.4.5 3.6.2-.1-.1 0-.1 0 0z"/><path d="M450.9 280.5c-.6.2-1.2.5-1.8.7-.7.3-1.5.6-2.2.8-1.1.3-2.2.3-3.2 0-1.2-.3-2.2-.7-3.2-1.3-.8-.5-1.5-1-2.2-1.6-.8-.7-1.5-1.5-2.3-2.2-1.2-1.2-2.2-2.7-3.1-4.1-1.2-2-2.2-4.2-3.1-6.4-.5-1.4-.9-2.9-1.3-4.4-.3-1.5-.6-2.9-.6-4.4 0-1-.1-2 0-3 .1-1.4.3-2.8.7-4.2.3-1.1.8-2.2 1.4-3.2.8-1.2 2-2.2 3.4-2.7 1-.4 1.9-.8 2.9-1.1h.1c-.4.3-.9.7-1.3 1-.8.7-1.4 1.6-1.8 2.6-.6 1.2-.9 2.4-1.1 3.7-.1.5-.2 1.1-.2 1.6 0 1-.1 2 0 3 0 1 .1 2 .3 3 .2 1.4.5 2.7.9 4.1.3 1.1.7 2.1 1 3.1.7 1.8 1.5 3.5 2.4 5.1s1.9 3 3.1 4.4c.8 1 1.7 1.9 2.7 2.7 1 .9 2.1 1.6 3.4 2.1 1 .5 2.1.8 3.3.8.6-.1 1.2-.1 1.8-.1zm28.2-26.4c-.9.5-1.7 1.3-2.3 2.1-.6.8-1.1 1.8-1.4 2.8-.2.7-.4 1.3-.5 2-.2 1-.3 2-.4 3.1 0 1.2 0 2.4.1 3.6.1.9.2 1.7.4 2.6.2.9.4 1.7.6 2.6.4 1.6.9 3.1 1.6 4.6.8 1.8 1.7 3.6 2.8 5.2.8 1.2 1.6 2.3 2.5 3.4.8.9 1.6 1.6 2.5 2.4.8.7 1.7 1.3 2.7 1.8 1.1.6 2.2 1 3.5 1.1.7.1 1.4.1 2.1-.1l.1.1c-.4.1-.7.3-1 .4-.9.3-1.8.7-2.7 1-1.1.4-2.2.3-3.3.1-1.2-.2-2.4-.7-3.5-1.4-1-.6-1.8-1.2-2.7-2-1.9-1.7-3.5-3.7-4.8-5.9-1.4-2.3-2.5-4.6-3.3-7.1-.5-1.6-.9-3.2-1.2-4.8-.1-.6-.2-1.1-.3-1.7 0-.4.1-.7.1-1.1.2-1.5.3-3.1.2-4.6 0-.7-.2-1.3-.1-2 0-.6.2-1.1.4-1.6.3-1 .7-1.9 1.3-2.8.8-1.1 1.8-2 3.1-2.5 1.1-.4 2.1-.8 3.2-1.2.2-.1.3-.1.3-.1z"/><path d="M486.3 294.1c-.4.2-.7.3-1.1.4-.9.3-1.8.7-2.7 1-1.1.3-2.2.3-3.3.1-1.2-.2-2.4-.7-3.4-1.4-.9-.6-1.8-1.2-2.6-2-1.5-1.3-2.7-2.8-3.9-4.5-1.1-1.5-2-3.2-2.8-4.9-.6-1.2-1.1-2.5-1.5-3.8 0-.1-.1-.1-.1-.2 1.4-.9 2.6-2.1 3.5-3.5.1.4.2.7.3 1 .4 1.3.8 2.5 1.3 3.8.7 1.8 1.7 3.6 2.8 5.2.8 1.2 1.6 2.3 2.5 3.3.7.8 1.5 1.5 2.3 2.2.7.6 1.4 1.1 2.1 1.6 1.3.8 2.8 1.4 4.4 1.6.7.1 1.4.1 2.1-.1 0 .1 0 .1.1.2z"/><path d="M457.9 281.8c.7-.3 1.3-.5 2-.8.5-.2.9-.4 1.3-.7.2-.1.4-.2.6-.2 0 0 .1.1.2.1.5 1.7 1.3 3.4 2.1 5 .9 1.7 1.9 3.4 3.1 4.9.7.9 1.5 1.7 2.2 2.5 1 1.1 2.1 1.9 3.4 2.7 1.1.7 2.3 1.2 3.6 1.4.9.2 1.8.2 2.7 0l.1.1h-.1c-1.2.5-2.4 1-3.7 1.4-.9.3-1.9.3-2.8.2-1.5-.2-2.8-.8-4-1.6-.9-.6-1.6-1.2-2.4-1.9-1-.8-1.8-1.8-2.7-2.8-1.1-1.4-2.1-2.8-2.9-4.4-.8-1.4-1.5-2.9-2.1-4.4-.3-.4-.4-.9-.6-1.5z"/><path d="M472 299.6c-.4.2-.7.3-1 .4-.9.3-1.8.7-2.7 1-.9.3-1.9.3-2.9.2-1.5-.2-2.8-.8-4-1.6-1.2-.8-2.3-1.7-3.3-2.7-1.2-1.2-2.2-2.5-3.2-3.8-1.2-1.8-2.2-3.7-3.1-5.6-.4-.9-.7-1.8-1-2.7-.1-.2 0-.3.2-.3.7-.3 1.5-.6 2.2-.9.3-.1.5-.3.7-.4l.1-.1c.2-.1.4-.2.6-.2.3 0 .2.3.3.5.6 1.8 1.4 3.5 2.2 5.2.9 1.7 1.9 3.3 3.1 4.8.8 1 1.6 1.9 2.5 2.7.8.8 1.8 1.5 2.7 2.1 1.1.7 2.3 1.2 3.6 1.5.9.2 1.8.2 2.7 0 .2-.1.2-.1.3-.1zm-27.5 180.2l26.4 47.6-8.6 3.4-15.6-29.2 7.6 32.4-6.8 2.7-16.8-28.7 8.6 31.9-8.5 3.4-13.3-52.8 8.6-3.4 17.5 29.8-7.8-33.6 8.7-3.5zm-39.3 15.6l19.9 50.2-10.1 4-20-50.2 10.2-4zm-17.7 7l19.9 50.2-7.1 2.8-21.5-21.6 10.3 26-8.5 3.4-19.9-50.2 6.8-2.7 22.2 23.3-11-27.7 8.8-3.5zm-33.4 13.2l3.5 8.9-8.9 3.5-3.5-8.9 8.9-3.5zm2 13.4l17.7 36.8-9.3 3.7-11.7-39.2 3.3-1.3zm.8-43.1c0-1.2.2-2.3.7-3.3.3-.6.6-1.3 1-1.9.3-.6.7-1.1 1.1-1.6.6-.7 1.3-1.5 2-2.2 1-1 2.2-1.9 3.4-2.7 1.4-1 2.9-1.8 4.4-2.5s3.1-1.3 4.8-1.9c1.5-.5 3.1-.9 4.6-1.1 1.1-.2 2.3-.3 3.4-.3.9-.1 1.8-.1 2.8 0 1.4.1 2.9.4 4.3.8 1 .3 1.9.8 2.8 1.4 1.6 1.2 2.6 2.7 2.8 4.7.1 1.2-.1 2.4-.5 3.5-.3.9-.8 1.8-1.3 2.6-.6.9-1.2 1.7-1.9 2.5-.9.9-1.9 1.8-2.9 2.6-1.9 1.5-4 2.7-6.2 3.8-1.4.7-2.9 1.2-4.4 1.7s-3 .9-4.5 1.1c-1 .1-2 .3-3 .4-1.3.1-2.5.1-3.8 0s-2.6-.4-3.9-.8c-.9-.3-1.8-.7-2.5-1.2-1.6-1.1-2.7-2.6-3-4.6-.2-.5-.2-.8-.2-1zm39.1-53.1c1.3.1 2.7.1 4 .3 1.3.1 2.6.5 3.8 1 1.7.7 3.1 1.8 4 3.4.6 1.1.8 2.2.7 3.4-.1 1.5-.6 2.9-1.4 4.3-.6 1-1.2 1.9-1.9 2.7-.8 1-1.8 1.9-2.8 2.7-1.1.9-2.3 1.7-3.5 2.5-1.6 1-3.3 1.8-5 2.5-1.5.6-3 1.1-4.6 1.5-1.7.4-3.4.7-5.1.9-1.1.1-2.1.1-3.2.1-1.5 0-3-.3-4.4-.7-.9-.3-1.7-.6-2.5-1-1-.6-1.9-1.3-2.6-2.3-.6-.9-.9-1.8-1.1-2.8-.1-.9 0-1.8.2-2.6.3-1.1.7-2.1 1.3-3.1.9-1.6 2.2-2.9 3.5-4.2 1.4-1.3 3-2.4 4.6-3.4 1.8-1.1 3.7-2 5.6-2.7 1.7-.6 3.4-1.2 5.2-1.5 1.4-.3 2.8-.5 4.2-.6.4-.2.7-.3 1-.4 0 .1 0 .1 0 0z"/><path d="M369.5 448.9l-.9-2.4c-.2-.6-.5-1.3-.6-2-.3-1-.2-2 0-3 .3-1.2.7-2.2 1.4-3.3.9-1.5 2-2.8 3.3-4 1.4-1.4 3-2.5 4.8-3.6 2.1-1.3 4.3-2.3 6.6-3.1 1.4-.5 2.9-.9 4.4-1.2 1.4-.3 2.8-.5 4.2-.6 1 0 2-.1 3 0 1.3 0 2.6.2 3.8.6 1 .3 1.9.6 2.8 1.1 1.6.9 2.7 2.1 3.4 3.8.4 1 .8 1.9 1.1 2.9v.2c-.2-.3-.4-.6-.7-.9-.5-.7-1.1-1.2-1.8-1.6-.8-.5-1.6-.9-2.5-1.2-.9-.3-1.9-.5-2.8-.6-1-.1-2-.2-3-.2-1.6 0-3.2.1-4.7.4-2.7.5-5.3 1.2-7.8 2.3-2.2.9-4.3 2.1-6.2 3.4-1.1.8-2.2 1.7-3.2 2.7-.8.8-1.6 1.6-2.2 2.6-1 1.3-1.8 2.8-2.1 4.4-.2 1-.3 2-.1 3.1-.2 0-.2.1-.2.2z"/><path d="M366.6 441.7c-.2-.4-.3-.8-.5-1.2-.3-.8-.6-1.6-.9-2.5s-.4-1.9-.2-2.9c.2-1.4.7-2.7 1.5-4 .6-1 1.3-2 2.1-2.8 1.8-1.9 3.8-3.5 6-4.8 2-1.2 4.1-2.2 6.3-2.9 1.6-.6 3.1-1 4.8-1.3 1.3-.2 2.7-.4 4-.5 1-.1 2-.1 3 0 1.4.1 2.8.2 4.2.7.8.3 1.7.6 2.5 1 1.6.9 2.8 2.1 3.4 3.9.4 1 .7 1.9 1.1 2.9v.2l-.9-1.2c-.8-.9-1.7-1.5-2.8-2-1.2-.6-2.4-.9-3.7-1.1-.9-.1-1.7-.2-2.6-.2H392c-1 .1-2.1.1-3.1.3-1.4.2-2.8.5-4.1.9-1.3.4-2.5.8-3.8 1.3-1.8.7-3.5 1.6-5.2 2.6-1.6 1-3.1 2.1-4.5 3.5-.9.8-1.7 1.7-2.4 2.7-.9 1.2-1.6 2.6-2 4.1-.3 1.1-.4 2.2-.1 3.4-.1-.2-.1-.2-.2-.1.1 0 .1 0 0 0zm26.5 28.2c-.6-1-1.4-1.8-2.4-2.5s-2.2-1.2-3.4-1.5c-1.8-.5-3.6-.7-5.4-.6-1.4 0-2.8.2-4.2.4-1.5.3-3 .6-4.5 1.1-1.2.4-2.4.9-3.6 1.4-.9.4-1.7.8-2.5 1.2-1.5.8-2.9 1.7-4.3 2.7-1.2.9-2.3 1.9-3.4 3-.9 1-1.8 2.2-2.4 3.4-.6 1.1-1 2.2-1.1 3.4-.1.7-.1 1.4.1 2.1l-.1.1v-.1c-.5-1.2-1-2.4-1.4-3.6s-.3-2.5 0-3.8c.3-1.1.8-2.2 1.4-3.2.3-.5.7-1 1.1-1.5.7-1 1.6-1.8 2.4-2.6 1.2-1.1 2.5-2.1 3.9-2.9 1.3-.8 2.7-1.6 4.1-2.2s2.9-1.2 4.4-1.6l3.6-.9 1.8-.3c.4 0 .7.1 1.1.2.9.1 1.9.2 2.8.2 1.1 0 2.3 0 3.4-.1.8-.1 1.6.2 2.3.5.9.3 1.7.7 2.4 1.2 1.1.8 2 1.8 2.5 3.2.5 1.1.9 2.2 1.4 3.3z"/><path d="M368.2 455.8c.9 1.4 2.1 2.6 3.5 3.5-.7.2-1.3.4-2 .6-.9.3-1.9.7-2.8 1-1.8.8-3.6 1.7-5.2 2.8-1.2.8-2.3 1.6-3.3 2.5-.8.7-1.5 1.5-2.2 2.3-1.1 1.2-2 2.6-2.6 4.2-.3.7-.5 1.4-.5 2.2-.1.7-.1 1.4.1 2.1l-.1.1v-.1c-.5-1.2-1-2.4-1.4-3.7-.3-1-.3-2.1-.1-3.2.3-1.3.8-2.5 1.5-3.7.5-.9 1.2-1.7 1.8-2.4 1.4-1.5 2.9-2.8 4.6-4 1.5-1.1 3.2-2 4.9-2.7 1.1-.5 2.1-.9 3.2-1.3.1-.1.3-.2.6-.2z"/><path d="M350.2 469.9c-.1-.2-.1-.3-.2-.5-.4-1.1-.9-2.1-1.2-3.2-.3-.9-.3-1.9-.2-2.9.2-1.5.8-2.8 1.6-4 .5-.8 1.2-1.6 1.8-2.4.8-1 1.8-1.8 2.8-2.6 1.4-1.1 2.9-2.1 4.4-3 1.4-.8 2.9-1.5 4.4-2.1.5-.2.9-.3 1.4-.5.2-.1.2.1.3.2.3.7.5 1.4.8 2 .1.3.3.6.5.9.1.2.2.4.3.7 0 .1 0 .2-.1.2-2.4.8-4.7 1.8-6.8 3.1-1.6.9-3 2-4.4 3.2-.8.7-1.5 1.5-2.2 2.2-.6.7-1.1 1.4-1.6 2.2-.5.8-.9 1.7-1.2 2.6-.3.9-.4 1.8-.4 2.7 0 .3.1.7.1 1 0 .1 0 .1-.1.2.1 0 0 0 0 0z"/><path d="M347.4 462.7c-.1-.2-.1-.3-.2-.5-.4-1.1-.9-2.1-1.2-3.2-.3-.9-.3-1.9-.2-2.9.2-1.5.8-2.8 1.6-4 .8-1.2 1.7-2.3 2.7-3.3 1.2-1.2 2.5-2.2 3.8-3.2 1.8-1.2 3.7-2.2 5.6-3.1.9-.4 1.8-.7 2.7-1 .2-.1.3 0 .3.2.3.7.6 1.5.9 2.2.1.3.3.5.4.7 0 .1.1.1.1.2.1.2.2.4.1.5 0 .1-.3.2-.4.2-1.8.6-3.4 1.3-5.1 2.2-1.4.7-2.7 1.6-4 2.5s-2.5 2-3.6 3.2c-.8.8-1.5 1.7-2.1 2.7-.5.8-.9 1.7-1.2 2.6-.3.9-.4 1.8-.4 2.7.2.6.3 1 .2 1.3.1 0 .1 0 0 0zM160 439.2l-47.6 26.4-3.4-8.6 29.2-15.6-32.4 7.6-2.7-6.8 28.6-16.8-31.8 8.6-3.4-8.5 52.8-13.3 3.4 8.6-29.8 17.5 33.6-7.8 3.5 8.7zm-15.6-39.3l-50.2 19.9-4-10.1 50.2-19.9 4 10.1zm-7-17.7L87.2 402l-2.8-7.1 21.6-21.5-26 10.3-3.4-8.5 50.2-19.9 2.7 6.8-23.3 22.2 27.7-11 3.5 8.9zm-26.6-31.4L74 368.5l-3.7-9.3 39.2-11.7 1.3 3.3zm13.4-2l-8.9 3.5-3.5-8.9 8.9-3.5 3.5 8.9zm29.9 2.8c1.1 0 2.1.3 3.1.7.7.3 1.3.6 1.9 1 .6.3 1.1.7 1.6 1.2.7.6 1.5 1.3 2.1 2 1.1 1.1 2 2.2 2.8 3.5 1.1 1.6 2 3.3 2.8 5 .6 1.3 1.1 2.7 1.5 4.1.5 1.5.9 3 1.1 4.6.2 1.1.3 2.3.3 3.4.1.8.1 1.7 0 2.5-.1 1.5-.3 3.1-.8 4.5-.3 1-.8 1.9-1.4 2.8-1 1.5-2.4 2.4-4.2 2.8-1.3.2-2.7 0-3.9-.4-.9-.3-1.8-.8-2.6-1.3-.9-.6-1.7-1.2-2.5-1.9-.9-.9-1.8-1.9-2.7-2.9-1.5-1.9-2.7-4-3.8-6.2-.7-1.4-1.2-2.9-1.7-4.4s-.9-3-1.1-4.5c-.1-1-.3-2-.4-3-.1-1.3-.1-2.5 0-3.8s.4-2.6.8-3.9c.3-.9.7-1.8 1.2-2.5 1.1-1.6 2.6-2.7 4.6-3 .7-.3 1-.3 1.3-.3zm53 39.1c-.1 1.3-.1 2.7-.3 4-.1 1.3-.5 2.6-1 3.8-.7 1.7-1.8 3.1-3.4 4-1.1.6-2.2.8-3.4.7-1.5-.1-2.9-.6-4.3-1.4-1-.6-1.9-1.2-2.7-1.9-1-.8-1.9-1.8-2.7-2.8-.9-1.1-1.7-2.3-2.5-3.5-1-1.6-1.8-3.3-2.5-5-.6-1.5-1.1-3-1.5-4.6-.4-1.7-.7-3.4-.9-5.1-.1-1.1-.1-2.1-.1-3.2 0-1.5.3-3 .7-4.4.3-.9.6-1.7 1-2.5.6-1 1.3-1.9 2.3-2.6.9-.6 1.8-.9 2.8-1.1.9-.1 1.8 0 2.6.2 1.1.3 2.1.7 3.1 1.3 1.6.9 2.9 2.2 4.2 3.5 1.3 1.4 2.4 3 3.4 4.6 1.1 1.8 2 3.7 2.7 5.6.6 1.7 1.2 3.4 1.5 5.2.3 1.4.5 2.8.6 4.2.2.4.3.7.4 1-.1 0-.1 0 0 0z"/><path d="M191.1 364.1c.4-.1.7-.3 1.1-.4.9-.3 1.7-.7 2.6-1 .8-.3 1.6-.3 2.5-.2 1.1.1 2.1.4 3 .8l1.2.6c.5.3 1 .6 1.5 1 .8.6 1.5 1.3 2.2 2 1.5 1.5 2.8 3.3 4 5.2 1.2 2.1 2.3 4.3 3.1 6.5.5 1.5 1 3 1.3 4.6.2 1.3.4 2.6.5 4 .1 1 .1 2 0 3 0 1.1-.2 2.2-.5 3.3-.3 1.2-.7 2.3-1.2 3.3-.9 1.6-2.1 2.8-3.9 3.4-1 .3-1.9.7-2.9 1.1h-.2l1.2-.9c1-.9 1.6-1.9 2.2-3.1.5-1.1.8-2.2.9-3.3.1-.9.2-1.9.2-2.8s0-1.8-.1-2.7c-.1-.9-.2-1.8-.3-2.6-.2-1.2-.4-2.3-.8-3.4-.4-1.4-.9-2.9-1.5-4.3-.8-2-1.8-3.8-3-5.6-.8-1.2-1.7-2.4-2.8-3.5-.7-.7-1.5-1.5-2.3-2.2-1.1-.9-2.2-1.6-3.5-2.1-1-.4-2-.7-3.1-.7-.5 0-1.1.1-1.6.1.3 0 .3 0 .2-.1 0 .1 0 0 0 0z"/><path d="M212.6 398.6c.4-.3.8-.5 1.1-.9.9-.8 1.5-1.7 2-2.8.6-1.2.9-2.4 1.1-3.7.1-.9.2-1.8.2-2.6 0-.9 0-1.9-.1-2.8-.1-1.3-.3-2.5-.6-3.8-.2-1.2-.6-2.4-1-3.6-.5-1.4-1-2.8-1.7-4.2-.8-1.8-1.8-3.4-2.9-5-.8-1.1-1.6-2.1-2.5-3-.7-.7-1.3-1.3-2-1.9-1.4-1.1-2.9-2-4.6-2.5-1.2-.3-2.4-.5-3.6-.2h-.2c.6-.2 1-.4 1.5-.6.7-.3 1.5-.6 2.2-.8.9-.3 1.9-.4 2.9-.2 1.4.2 2.8.7 4 1.5.8.5 1.5 1 2.2 1.6.8.7 1.5 1.5 2.3 2.2 1.2 1.3 2.3 2.8 3.2 4.3 1.2 2 2.2 4.1 2.9 6.2.5 1.4 1 2.9 1.3 4.4s.6 2.9.6 4.4c0 1 .1 2 0 3-.1 1.4-.2 2.8-.7 4.2-.3.8-.6 1.7-1 2.4-.9 1.6-2.1 2.8-3.9 3.4-1 .3-1.9.7-2.8 1.1.3-.2.2-.2.1-.1zM170 387.8c1-.6 1.8-1.4 2.5-2.4s1.2-2.2 1.5-3.4c.5-1.8.7-3.6.6-5.4 0-1.4-.2-2.8-.4-4.2-.3-1.5-.6-3-1.1-4.5s-1-2.9-1.7-4.4c-.8-1.8-1.8-3.6-3-5.2-.8-1.1-1.6-2.2-2.6-3.1-.8-.8-1.6-1.5-2.5-2.2-1-.8-2.1-1.5-3.4-1.9-.7-.2-1.4-.4-2.1-.5-.7-.1-1.5-.1-2.2.1 0 0 0-.1-.1-.1h.1c1.2-.5 2.4-1 3.6-1.4 1.2-.4 2.5-.3 3.8 0 1.1.3 2.2.8 3.2 1.4.5.3 1.1.7 1.5 1.1.7.6 1.4 1.2 2 1.8.8.9 1.6 1.8 2.3 2.7 1.1 1.4 2 2.9 2.7 4.5.8 1.5 1.5 3.1 2 4.7.4 1.4.8 2.7 1.1 4.1.2.8.3 1.7.4 2.5 0 .4-.1.7-.2 1.1-.1.9-.2 1.9-.2 2.8 0 1.1 0 2.3.1 3.4.1.8-.2 1.6-.5 2.3-.3.9-.7 1.7-1.2 2.4-.8 1.1-1.8 2-3.2 2.5-.8.4-1.9.8-3 1.3z"/><path d="M184.1 362.9c-1.4.9-2.6 2.1-3.5 3.5-.2-.5-.3-1-.5-1.5-.4-1.1-.7-2.2-1.2-3.2-.8-1.8-1.7-3.6-2.8-5.2-.8-1.2-1.6-2.3-2.5-3.3-.7-.8-1.5-1.5-2.3-2.2-1.2-1.1-2.6-2-4.2-2.6-.7-.3-1.4-.5-2.2-.6-.7-.1-1.5 0-2.2.1l.1-.1c1.2-.5 2.4-1 3.7-1.4 1.1-.3 2.2-.3 3.2-.1 1.3.3 2.5.8 3.6 1.5.9.5 1.7 1.2 2.4 1.8 1.5 1.4 2.8 2.9 4 4.6 1.1 1.5 2 3.2 2.7 4.9.5 1.1.9 2.1 1.3 3.2.3.2.4.4.4.6z"/><path d="M170 344.9c.4-.2.8-.3 1.2-.5.8-.3 1.6-.7 2.5-.9.9-.3 1.9-.3 2.9-.2 1.3.2 2.6.7 3.7 1.4 1.4.8 2.6 1.9 3.8 3 1.9 1.9 3.4 4.1 4.7 6.4.9 1.7 1.8 3.5 2.3 5.4.1.3.1.4-.2.5l-2.1.9c-.2.1-.4.3-.7.4-.2.1-.4.2-.7.3-.1 0-.2 0-.3-.2-.8-2.4-1.8-4.7-3.1-6.8-.9-1.5-2-3-3.2-4.4-.8-.9-1.6-1.7-2.6-2.5-1.3-1-2.7-1.9-4.2-2.5-1.2-.4-2.3-.6-3.6-.4 0 .1-.2.2-.4.1 0 .1 0 .1 0 0z"/><path d="M177.2 342.1c.4-.2.8-.3 1.2-.5l2.4-.9c1-.3 1.9-.3 2.9-.2 1.5.2 2.8.8 4 1.6 1.3.8 2.4 1.7 3.4 2.8 1.8 1.9 3.3 4 4.6 6.2.8 1.4 1.5 2.9 2.1 4.5.2.4.3.9.5 1.3.1.2-.1.2-.2.3-.7.3-1.3.5-2 .8-.3.1-.6.4-1 .5-.2.1-.4.2-.7.3-.1 0-.2 0-.2-.1-.6-1.8-1.3-3.5-2.2-5.2-1-2-2.2-3.8-3.6-5.5-.7-.8-1.4-1.5-2.2-2.3s-1.7-1.5-2.7-2.1c-1.3-.8-2.7-1.4-4.3-1.5-.7-.1-1.4-.1-2 0 0 .1 0 .1 0 0z"/></svg>