<svg xmlns="http://www.w3.org/2000/svg" viewBox="0 0 308.1 400"><linearGradient id="a" gradientUnits="userSpaceOnUse" x1="-21.117" y1="25.832" x2="-21.117" y2="297.589" gradientTransform="rotate(-90 22.026 37.576)"><stop offset="0" stop-color="#fff"/><stop offset=".044" stop-color="#fff9c8"/><stop offset=".117" stop-color="#fef073"/><stop offset=".177" stop-color="#fee935"/><stop offset=".22" stop-color="#fee50f"/><stop offset=".243" stop-color="#fee300"/><stop offset=".584" stop-color="#ffa000"/><stop offset="1" stop-color="#f53718"/></linearGradient><path d="M233.9 73.5s-14.9 8.4-31.7-2c-17-10.4-34.7-8.7-57.7 24.2 0 0 19.5-13 37.9-5.8 18.2 7.2 34.5 7.2 51.5-16.4z" fill="url(#a)"/><linearGradient id="b" gradientUnits="userSpaceOnUse" x1="-273.382" y1="25.838" x2="-273.382" y2="297.583" gradientTransform="rotate(-90 22.026 37.576)"><stop offset="0" stop-color="#fff"/><stop offset=".052" stop-color="#fff9c8"/><stop offset=".138" stop-color="#fef073"/><stop offset=".208" stop-color="#fee935"/><stop offset=".26" stop-color="#fee50f"/><stop offset=".286" stop-color="#fee300"/><stop offset=".62" stop-color="#ffa000"/><stop offset="1" stop-color="#f53718"/></linearGradient><path d="M142.8 338.8s11.8-6.6 25.1 1.6c13.4 8.2 27.4 6.9 45.6-19.2 0 0-15.4 10.3-30 4.6-14.4-5.7-27.2-5.7-40.7 13z" fill="url(#b)"/><linearGradient id="c" gradientUnits="userSpaceOnUse" x1="-199.183" y1="25.84" x2="-199.183" y2="297.587" gradientTransform="rotate(-90 22.026 37.576)"><stop offset="0" stop-color="#fff"/><stop offset=".068" stop-color="#fff9c8"/><stop offset=".18" stop-color="#fef073"/><stop offset=".271" stop-color="#fee935"/><stop offset=".338" stop-color="#fee50f"/><stop offset=".372" stop-color="#fee300"/><stop offset=".722" stop-color="#ffa000"/><stop offset="1" stop-color="#f53718"/></linearGradient><path d="M166.9 259s29.1 7.7 45.2-7.5 29.3-17.9 42.1-14.4c0 0-20.6 2.7-11.8 6.7 8.7 4 25.4-4.8 44.6 26.9 0 0-25.2-14.1-49.7 2.1-24.2 16.2-47.4 10.4-70.4-13.8z" fill="url(#c)"/><linearGradient id="d" gradientUnits="userSpaceOnUse" x1="-140.376" y1="-136.529" x2="-140.376" y2="264.918" gradientTransform="rotate(-90 22.026 37.576)"><stop offset=".361" stop-color="#fff"/><stop offset=".399" stop-color="#fff9c8"/><stop offset=".461" stop-color="#fef073"/><stop offset=".512" stop-color="#fee935"/><stop offset=".549" stop-color="#fee50f"/><stop offset=".569" stop-color="#fee300"/><stop offset=".722" stop-color="#ffa000"/><stop offset="1" stop-color="#f53718"/></linearGradient><path d="M31 0c71-5.3 91.5 33.1 91.5 33.1-9.3-3.3-45.2-11.8-22 4.7 23.1 16.5 56.8 7.3 56.8 7.3S123 77.4 84.7 51.9c-38.3-25.6-49.4-5.8-49.4 1.3s1 20.1 35 15.2 42.1 14.8 42.1 14.8-5.5-2.8-14.8-3.3c-9 .4-24.4 3.6-45.9 17-35.2 21.9-10.6 37.5 29 15 39.6-22.4 72.5 6.4 72.5 6.4-12.7-3.6-21.8-4.8-35.7 1.5 12.2-.5 25.2 1.8 38 7 35.6 14.4 59 2.1 59 2.1s-11.7 28.4-60.4 21.3c-48.7-7.1-50.2 11.6-50.2 21.8s16 38.6 71 1.9c54.9-36.7 104.2 9.7 104.2 9.7s-48.6-13.4-81.8 10.3 18.2 11.5 31.6 6.8c0 0-41.9 50-115.9 21.6-25.5-9-22.9 12.1 8.9 19.1h-.2c11.1 2.8 19.5 7.6 23 14.4 0 0-16.3-11.4-57.7.7-39.9 11.6-20.5 33.2 23.8 22.3 44.2-11 68.1 25.6 68.1 25.6-19.4-12-30.2-14-82.1 7.3-10.6 4.4-20.3 6.6-28.9 7.6 1.1.4 2.3.8 3.4 1.2 24.8 10.1 41.2 1.5 41.2 1.5s-8.2 19.8-42.2 14.8-35 8.1-35 15.2 11.2 26.9 49.5 1.3c38.4-25.6 72.7 6.8 72.7 6.8s-33.7-9.2-56.9 7.3 12.7 8 22.1 4.7c0 0-29.2 34.9-80.9 15.1-17.8-6.3-16 8.5 6.2 13.3 0 0-12.7-.2-41.9-.5-4.2-8.8-3.4-36.3-3.2-43V48.2C2.6 41.5.8 8.8 5 0 11.8-.5.8.5 31 0z" fill="url(#d)"/><linearGradient id="e" gradientUnits="userSpaceOnUse" x1="-143.498" y1="-18.394" x2="-143.498" y2="368.275" gradientTransform="rotate(-90 22.026 37.576)"><stop offset=".114" stop-color="#fff"/><stop offset=".171" stop-color="#fff9c8"/><stop offset=".265" stop-color="#fef073"/><stop offset=".342" stop-color="#fee935"/><stop offset=".398" stop-color="#fee50f"/><stop offset=".427" stop-color="#fee300"/><stop offset=".722" stop-color="#ffa000"/><stop offset="1" stop-color="#f53718"/></linearGradient><path d="M35.4 173c-11.6-4.7-23.6-5.1-33.4-1.4v78.1l1.8-.6c21.6-6.6 44.6 8.7 44.6 8.7s-13.7-25.5-41-25c-7.9-4.7-6.3-10.8 4.6-7 41 15.7 64.1-12 64.1-12-7.4 2.6-35.8 9.3-17.5-3.8 18.4-13 45.1-5.6 45.1-5.6s-27.2-25.7-57.6-5.4-39.2 4.6-39.2-1 .8-16 27.7-12c27 3.9 33.4-11.8 33.4-11.8s-12.9 6.7-32.6-1.2zM15.2 283.5s-6.8-1.1-13.1 2.3v38.7c6.8 4.1 16.3 4.4 25.3.7 12.9-5.3 21.5-.8 21.5-.8s-4.3-10.3-22-7.8c-17.7 2.6-18.3-4.2-18.3-7.9s5.8-14 25.8-.7 37.9-3.5 37.9-3.5-17.6 4.8-29.6-3.8c-12.1-8.6 6.6-4.2 11.5-2.5 0 0-15.2-18.2-42.2-7.9-9.3 3.5-8.4-4.2 3.2-6.8zm-13.1-27v7.3c10.5-1.6 17.2-5.7 17.2-5.7-3.6.1-11.6-.4-17.2-1.6zm7.8 106.6c-2.8.8-5.2 1.3-7.5 1.6.6 5 2.1 10.5 4.9 16.4.5 1 1 2 1.6 2.9 10.5-.1 17.6-4.4 17.6-4.4-5.5.1-25.9-1.7-10.8-6.3 15.1-4.7 31.2 6.1 31.2 6.1s-12.3-23.1-37-16.3zm-1.3-19.7c-2.1-1.8-4.3-3.3-6.6-4.5v11.5c1 .4 2 .9 3.2 1.5 17 8.5 24.8-.5 24.8-.5s-10.1 1.6-21.4-8zm34.9-198.1c21.9-5.3 29.2 11.3 29.2 11.3.9-3-.6-5.6-.6-5.6 16.9 5 24.1-9.7 24.1-9.7-6.6 3.7-16 1.5-16 1.5 6.3-1.5 5.3-7.4 5.3-7.4s-1.7 7.8-16.6 2.4c-15.1-5.4-25.4 7.5-25.4 7.5zM4.9 31.3c-1.2 3.3-1.9 6.5-2.4 9.5 12.7-3.7 26 5.2 26 5.2S20.7 31.4 4.9 31.3zm4.2-9.1c-.6 1-1.2 2.1-1.7 3.2-.1.1-.1.3-.2.4 4.8-.7 7.1-3.3 7.1-3.3s-2 .3-5.2-.3zm-7 23.3c-.1 1.2-.1 2.3 0 3.4v.6c5.7-1 9.3-3.2 9.3-3.2-2 0-6.1-.2-9.3-.8zm0 23.1v4.5c3.1.8 5.9 1.6 7.6 2.2-.1 0-2.7-3.1-7.6-6.7zm0 16V99c20.9.9 36.5-13.7 36.5-13.7s-19.1 5.2-36.5-.7zm0 32v17.5c1.7.9 3.6 2 5.5 3.3 20 13.3 37.9-3.5 37.9-3.5s-17.6 4.8-29.6-3.8c-12.1-8.6 6.6-4.2 11.5-2.5 0 0-9-10.7-25.3-11zm0 29.2v8.2c12.1-4.3 20-.2 20-.2s-4-9.6-20-8z" fill="url(#e)"/></svg>