<svg xmlns="http://www.w3.org/2000/svg" viewBox="0 0 150 150"><path fill="rgba(255,255,255, .7)" d="M129.4 43.4c1 .3 2.1.4 3.2.4 6.5 0 11.7-5.3 11.7-11.7 0-6.5-5.3-11.7-11.7-11.7-6.5 0-11.7 5.3-11.7 11.7 0 1 .1 1.9.3 2.8L98.9 45.8 81.7 21.3c3-2.1 4.9-5.6 4.9-9.5C86.6 5.3 81.3 0 74.9 0c-6.5 0-11.7 5.3-11.7 11.7 0 3.9 1.9 7.4 4.8 9.5L50.7 45.8 28.5 34.9c.4-1.2.7-2.6.7-4 0-6.5-5.3-11.7-11.7-11.7-6.5 0-11.7 5.3-11.7 11.7 0 6.5 5.3 11.7 11.7 11.7.8 0 1.7-.1 2.4-.3l13.7 38.4V91H14.9v59h120.2V91.2H116V81l13.4-37.6zm3.2-14.2c1.6 0 3 1.3 3 3 0 1.6-1.3 3-3 3-1.6 0-3-1.3-3-3s1.3-3 3-3zM17.4 33.9c-1.6 0-3-1.3-3-3s1.3-3 3-3c1.6 0 3 1.3 3 3s-1.3 3-3 3zM74.9 8.8c1.6 0 3 1.3 3 3s-1.3 3-3 3c-1.6 0-3-1.3-3-3s1.3-3 3-3zm51.4 91.1v41.3H23.7V99.9h102.6zm-84-9.4v-6h64.9v6H42.3zm66.3-14.8H41.1L30.3 45.6 53.6 57l21.2-30.3L96 57.1l23.3-11.4-10.7 30z"/><text transform="translate(31.413 130.856)" font-size="36" fill="rgba(255,255,255, .7)" font-family="'Open Sans',sans-serif">PLAY</text></svg>