<svg xmlns="http://www.w3.org/2000/svg" viewBox="0 0 42 42"><g fill="#fff"><path d="M41.1 1.5c-.4-.4-1-.5-1.5-.2l-6.8 4.1c-.2.1-.3.2-.3.4l-.3.8c0 .1-.1.3-.2.4L17.8 20.7c-.3 0-.5-.1-.7-.2-.4-.4-.3-.7-.3-.8l.9-1.5c.9-1.6 1.3-3.3 1.1-5.1-.2-2.8-1.1-6.5-3.6-8.2-1.4-.9-3-1.2-5-.8-1-.2-2.2-.1-3.6.3-2 .7-3.5 1.9-4.6 3.9-3.2 6-.5 16.3.1 18.5-.9 1.1-1.5 2.5-1.5 3.9 0 1.6.6 3.1 1.8 4.3l4.1 4.1c1.2 1.2 2.7 1.8 4.3 1.8s3.1-.6 4.3-1.8c.4-.4.7-.8.9-1.2.8-1 1.4-2.4 1.8-4.2.2-1 1-1.9 2-2.3 1.2-.5 2.7-1.2 3.5-2 .6-.6.9-1.3.9-2.1 0-.7-.4-1.3-.9-1.6-.4-.3-1-.3-1.4 0-.1 0-.1.1-.2.1-1.1.5-1.8.5-2.1.2-.5-.5.1-1.3.2-1.4L34.6 9.3l.5-.5c.4-.4 1.1-.4 1.6 0 .2.1.4.2.6.2.2 0 .4-.2.5-.3L41.3 3c.3-.5.2-1.1-.2-1.5zm-8.3 6.7l.4.4-16 16.4-.9-.9L32.8 8.2zm-15.4 5c.1.9 0 1.8-.3 2.6-.2-.2-.5-.3-.8-.4 0-2-.2-7.2-3-9.9.4.1.8.3 1.1.5 1.2.9 2.7 2.7 3 7.2zM5.8 24.7c-.6-2.4-1.3-6.3-1.2-10 .2-5 1.9-8 5.1-9 .2-.1.4-.1.6-.2.7.2 1.3.5 1.8.9 2.8 2.2 2.9 7.8 2.8 9.4-1.6.9-2.8 2.5-3.7 5-.5 1.5-1.8 2.7-3.3 3.3l-2.1.6zM3.3 9C4 7.7 4.9 6.8 6.1 6.2c-.6.6-1.1 1.3-1.5 2.2-.8 1.7-1.3 3.8-1.4 6.3-.2 4 .6 8.1 1.2 10.5-.1 0-.7.3-1 .5-.8-3-2.7-11.8-.1-16.7zm15.1 18.1c.8.8 2.1.9 3.8.1.1 0 .1-.1.2-.1 0 0 .1 0 0 0l.2.4c0 .3 0 .5-.5 1-.4.4-1.7 1.1-3 1.6-1.4.6-2.5 1.8-2.9 3.3-.4 1.6-.9 2.8-1.5 3.7 0 0 0 .1-.1.1-.2.3-.4.6-.7.9-1.8 1.8-4.7 1.8-6.5 0l-4-4c-.9-.9-1.4-2-1.4-3.3 0-1.2.5-2.4 1.3-3.2.4-.4.8-.7 1.2-.9.3-.2 1.4-.5 1.4-.5l2.2-.7c2-.7 3.5-2.2 4.2-4.2.8-2.2 1.8-3.6 3.1-4.3h.1c.1-.1.2-.1.4-.1h.1c.1 0 .2.1.2.2.1.2.1.3 0 .5v.1c-.5.6-.7 1.2-.8 1.3-.1.1-.2.4-.2.8s.1 1.1.7 1.7c.1.1.3.3.5.4l-1.8 1.7c-.1.1-.1.2-.2.3-.1.3 0 .6.2.8l1.9 1.9c.1.1.3.2.5.2s.4-.1.5-.2l.2-.2.7.7zM37 7.2c-.9-.4-2-.3-2.8.4l-.5-.6.2-.5 5.7-3.4L37 7.2z"/><path d="M8.8 30.2c-.3-.3-.8-.3-1 0-.3.3-.3.8 0 1l2.3 2.3c.1.1.3.2.5.2s.4-.1.5-.2c.3-.3.3-.8 0-1l-2.3-2.3zm2.6-2c-.3-.3-.8-.3-1 0-.3.3-.3.8 0 1l1.8 1.8c.1.1.3.2.5.2s.4-.1.5-.2c.3-.3.3-.8 0-1l-1.8-1.8zm2.8-2.8c-.3-.3-.8-.3-1 0-.3.3-.3.8 0 1l1.8 1.8c.1.1.3.2.5.2s.4-.1.5-.2c.3-.3.3-.8 0-1l-1.8-1.8z"/></g></svg>