<svg xmlns="http://www.w3.org/2000/svg" viewBox="0 0 50 50"><path d="M44.3 21.4c.4.1.7.1 1.1.1 2.3 0 4.1-1.9 4.1-4.1 0-2.3-1.9-4.1-4.1-4.1-2.3 0-4.1 1.9-4.1 4.1 0 .4 0 .7.1 1l-7.9 3.9-6.1-8.7c1.1-.7 1.7-2 1.7-3.4C29.1 7.9 27.3 6 25 6s-4.1 1.9-4.1 4.1c0 1.4.7 2.6 1.7 3.4l-6.1 8.7-7.9-3.9c.1-.4.2-.9.2-1.4 0-2.3-1.9-4.1-4.1-4.1-2.3 0-4.1 1.9-4.1 4.1 0 2.3 1.9 4.1 4.1 4.1.3 0 .6 0 .9-.1l4.9 13.6 29.2.1 4.6-13.2zm1.1-5.1c.6 0 1.1.5 1.1 1.1 0 .6-.5 1.1-1.1 1.1-.6 0-1.1-.5-1.1-1.1.1-.6.5-1.1 1.1-1.1zM4.6 18c-.6 0-1.1-.5-1.1-1.1s.5-1.1 1.1-1.1c.6 0 1.1.5 1.1 1.1S5.2 18 4.6 18zM25 9.1c.6 0 1.1.5 1.1 1.1 0 .6-.5 1.1-1.1 1.1-.6 0-1.1-.5-1.1-1.1 0-.6.5-1.1 1.1-1.1zm-14.2 31v-2.6h28.3v2.6H10.8zm26.1-7.3H13L9.2 22.2l8.3 4L25 15.5l7.5 10.8 8.3-4-3.9 10.5z" fill="#f5da0d"/></svg>