<svg id="Layer_1" xmlns="http://www.w3.org/2000/svg" viewBox="0 0 240 240"><style>.st0{fill:#fff}.st1{fill:none;stroke:#fff;stroke-width:3;stroke-miterlimit:10}</style><path class="st0" d="M168.5 65.5c3.8 9-24.6 37.3-28.5 46.5-4.5 10.5-5.7 32.3-23.2 28-17.2-4.3-9.5-24.7.7-31.3 6-3.9 12.2-4.3 19.1-10.8 11.1-10.6 21.2-21.8 31.9-32.4 1.2 2.7-2.2 2.1 0 0zM121.2 136c12.9-3.3 9.6-13.7 13.6-23.7.7-1.6 12.1-18.1 11.7-18.4-1.4-1.1-13 11.8-13.1 11.9-.6.4-14 6.2-14.1 6.3-9.5 8.1-14.4 19.6 1.9 23.9 1.2-.3-.9-.2 0 0zm74.4-37.9c-1 2.5-13.1 9.5-15.2 4.8-1.3-2.9 15.1-10.9 15.2-4.8-.3.7-.1-1.8 0 0zm-10.3 29c-1.9-8.8 31.7-4.7 0 0-.2-1 .5-.1 0 0zM59.9 104.3c-1.6-1.2-14.7-4.7-12.5-8.1 3.9-6.2 18 8.1 12.5 8.1-.1-.1 1 0 0 0zm133.4 48.4c-.1 0-19.5-9.1-10.5-8.4 2.7.2 17.1 8.3 10.5 8.4-.5-.2 1 0 0 0zM50.4 121.3c2.8-.9 5.4-.6 7.6 1 2.5 10.1-29.4-1-7.6-1 1.9 0-2 0 0 0zm40.5-53.7c-.5 7.9-12.2-10.3-9.1-11.9 4.4-2.4 8.4 12.2 9.1 11.9 0 .2.1 0 0 0zm-44 81.1c.1-1.1 13.5-4.9 14.7-4 .6.4-14.8 14.4-14.7 4 .1-.5 0 1.6 0 0zm135.2-74.3c-.1 2.6-10.4 12.5-12.9 8.4-1.3-2.2 13.3-13.5 12.9-8.4 0 1.7.1-1 0 0zM71 84c-4.2-.2-10.3-12.3-8.5-11.7 2 .8 15.9 9.5 8.5 11.7-1.6-.1.5-.2 0 0zm81.3-16.6c1.1-2.7 3.7-12.6 8.5-12.1 6 .6-7.9 19.8-8.5 12.1.2-.5.1 1.7 0 0zm-39.9-11.3c.6 2.4-.1 4.2-2 5.4-3.7 0-5.7-14.3-2.9-15.3 4-1.4 3.8 9.9 4.9 9.9-.2 1.2 0 0 0 0zm18.9 2.7c-.4-2.8.3-11.9 3.7-12.6 3.3-.7 1.3 13.4-1.3 15.1-4.7 3.2-1.9-2.6-2.4-2.5 0-.5 0 0 0 0z"/><circle class="st1" cx="62.3" cy="163.3" r="8.3"/><ellipse transform="rotate(-51.174 176.824 163.232)" class="st1" cx="176.8" cy="163.2" rx="8.3" ry="8.3"/><ellipse transform="rotate(-51.174 120.542 124.774)" cx="120.5" cy="124.8" rx="7" ry="7" fill="#fff" stroke="#fff" stroke-width="3" stroke-miterlimit="10"/><circle cx="125.3" cy="119.1" r="107.4" fill="none" stroke="#fff" stroke-width="6" stroke-miterlimit="10"/><circle cx="125.3" cy="118.1" r="100" fill="none" stroke="#fff" stroke-width="2" stroke-miterlimit="10"/></svg>