<svg xmlns="http://www.w3.org/2000/svg" viewBox="0 0 60 34"><path d="M38.3 21.5c-.4 1.2-.9 2.2-1.2 3.2-1 3.7-2.7 5-6.5 5-1.4 0-2.7-.1-4.1 0-2.7.2-5.2 0-6.9-2.9-.3.8-.4 1.3-.5 1.7-1.1 3.9-5 6.2-8.7 5.1-4-1.1-6.3-5-5.3-8.9 1-3.8 5.1-6.2 9-5 1.3.4 2 0 2.6-1.2-2.1-1.8-4.3-3.5-6.3-5.3-.5-.4-.7-1.2-1-1.8.7-.1 1.4-.5 2-.4 3 .5 6 1.2 9.2 1.8-.3 3.7 2.3 4.7 5.8 5.5-1.6.8-2.8 1.4-3.9 2-2.5 1.3-2.7 2.2-.9 4.3.8.9 1.5 1.8 2.4 2.6.3.3 1.1.5 1.5.3s.8-1.1.7-1.4c-1.3-2.4.2-3.3 2-4.2.8-.4 1.5-.9 2.2-1.4 1.6-1.3 1.7-2.7.3-4.2-1-1-2.1-1.9-3.3-2.9 1.4-1 2.7-.8 3.8 0 1.2.8 2.4 1.8 3.5 2.7 1.9 1.6 3.9.7 5.9.4.1 0 .3-.2.4-.3 1.4-1.8 1.5-1.8 3 .2.1-.6.5-1.4.3-1.9-.3-.5-1.1-1.1-1.7-1.2-1.4 0-2.9.3-5 .5 1-1.7 1.7-3.1 2.7-4.3.3-.4 1.2-.5 1.7-.4 4.1 1.3 6.9 3.9 8 8.2-2.7.2-5.3.4-8.1.7.4 1.6 1 1.9 2.2 1.6 4.2-1 8.2 1.4 9.1 5.3.8 4.1-1.7 7.9-6 8.7-2.6.5-4.8-.4-6.5-2.4-1.9-2.2-2.4-4.7-1.3-7.4.1-.6.4-1.5-1.1-2.3zm7.6 1.8c.9 1.7 3.4 3 1.4 4.8-2.2 2.1-3.2-.8-4.7-1.8-.2 2.2 1 3.6 3 3.8 1.9.2 3.6-1.2 3.9-3.1.2-1.8-1.2-3.4-3.6-3.7zm-33.8 0c-2.4.3-3.8 1.9-3.6 3.8.3 2 2 3.3 4.1 3 1.9-.3 3-1.8 2.7-3.7-1.4 1-2.5 3.7-4.6 1.8-2.2-2 .5-3.2 1.4-4.9z"/><path d="M34.3 4c-.2 2.3 1.7 2.5 3 3.6-.5.8-.9 1.5-1.5 2.5C34.2 9 32.7 8 31.3 6.9c-1.9-1.5-2.4-3.5-1.4-5.1S33.2-.4 35.3.3C37.1 1 38 2.5 38 4.8c-.6-.1-1.2-.3-1.8-.4s-1.1-.2-1.9-.4z"/></svg>