<svg id="Layer_1" xmlns="http://www.w3.org/2000/svg" viewBox="0 0 645.8 645.8"><style>.st0{fill:#f90}.st3{fill:#333}.st5{fill:#020202}.st6{fill:#fff}</style><circle class="st0" cx="322.9" cy="322.9" r="315.2"/><ellipse cx="322.9" cy="322.9" rx="304.8" ry="304.8" fill="#222427"/><ellipse cx="322.9" cy="322.9" rx="275.2" ry="275.2" fill="#292b2f"/><path class="st3" d="M335.5 329.9l184.9 185.7c46.9-48 76.3-113.8 78.3-185.1l-263.2-.6zm-17.4 3.8L130.7 520.4c48.4 47.2 114.4 76.8 186.8 78.4l.6-265.1zm-7.8-14.1L123.8 132.2C77.1 180.9 48.1 246.7 47.2 319l263.1.6z"/><path class="st0" d="M328.2 598.7c71.3-1.2 136.9-29.8 185.4-75.8L328.8 337.2l-.6 261.5zm-17.3-272.1L47.6 326c.8 72.4 29.5 138.3 75.8 187.1l187.5-186.5zm7.5-14.5l.6-264.9c-72.4 1.2-138.5 30.6-187.1 77.5l186.5 187.4zm279.8 9.4c-1.2-72.4-29.8-136.9-75.8-185.4L336.8 320.9l261.4.6z"/><path class="st3" d="M328.5 310.1l185.7-184.9C466.1 78.4 401.4 48.9 329 47l-.5 263.1z"/><path d="M292.9 160.1c0 1.1-.2 2-.7 3-.3.7-.6 1.3-1 1.9-.3.5-.7 1.1-1.1 1.6-.5.6-1.1 1.3-1.7 1.9-.6.6-1.3 1.2-2 1.7-1.5 1.2-3.1 2.2-4.8 3.1-1.7.9-3.3 1.6-5.1 2.1-1.6.5-3 1-4.6 1.3-1.4.3-2.6.5-4 .5h-2.6c-.7 0-1.5-.2-2.1-.3-1.1-.2-2.1-.5-3.2-1-.6-.3-1.2-.7-1.8-1.1-.7-.5-1.3-1.2-1.8-1.9-.7-1.2-1-2.4-.9-3.8.1-1.5.6-2.7 1.4-4 .4-.7.9-1.4 1.4-2 .5-.7 1.1-1.3 1.7-1.8.7-.7 1.5-1.3 2.1-1.9 1.2-1 2.4-1.8 3.8-2.5 1-.5 2-1.1 2.9-1.5 1.2-.5 2.3-1 3.5-1.3l3.2-.9c1-.2 2-.4 2.8-.5.8-.1 1.6-.2 2.3-.2 1.1 0 2 0 3.1.1 1.3.1 2.5.4 3.7.9 1 .4 2 .9 2.7 1.6 2.1 1.4 2.8 3 2.8 5zm-38.4 51.5h-1.9c-1.1-.1-2.1-.2-3.2-.5-1-.2-1.9-.5-2.7-1-1.5-.7-2.6-1.7-3.4-3.1-.6-1.1-.8-2.1-.7-3.3.1-1.5.5-2.7 1.2-3.9.7-1.2 1.5-2.2 2.3-3.2 1.7-1.9 3.7-3.4 5.9-4.7 1.7-1 3.4-1.9 5.3-2.5 1.7-.7 3.4-1.2 5.1-1.6 1.3-.3 2.5-.5 3.8-.6 1-.1 2-.1 3.1-.1 1.5 0 2.9.3 4.3.7.9.3 1.7.6 2.4 1 1.1.6 2 1.4 2.6 2.4.7 1.2 1.1 2.3 1 3.7-.1 1.2-.4 2.3-1 3.4-.7 1.4-1.5 2.5-2.4 3.6-1 1.2-2.1 2.1-3.3 3-.9.6-1.8 1.3-2.6 1.8-1.6 1-3.1 1.8-4.8 2.3-1.6.6-3 1.2-4.7 1.6-1.4.3-2.6.5-4 .7-.8.3-1.5.3-2.3.3 0 .1 0 0 0 0z" fill="#010101"/><path class="st5" d="M244.4 210.5c.7 1 1.5 1.8 2.3 2.2.8.5 1.6.9 2.4 1.2 1.3.4 2.5.7 3.9.7 1 0 2 .1 2.8 0 1 0 2-.1 3-.3 1.4-.2 2.6-.5 4-.9s2.6-.9 4-1.4c1.7-.6 3.1-1.5 4.7-2.3 1.2-.7 2.3-1.5 3.3-2.4.7-.6 1.5-1.3 2-2 .8-.9 1.6-1.8 2.1-2.7.8-1.3 1.4-2.6 1.6-4.2.1-.8.1-1.5-.1-2.2 0 .1.1.1.1.2s0 .2.1.2l1.2 2.9c.4 1 .4 2 .3 3.1-.2 1.2-.6 2.3-1.2 3.3-.6 1.1-1.3 2.1-2.1 3l-1.8 1.8c-1.1 1-2.2 1.9-3.4 2.6-1.3.8-2.5 1.5-3.9 2.1-1.4.6-2.6 1.2-4.1 1.6-1.6.5-3.1.9-4.8 1.2-1.5.3-3 .4-4.5.4-1.2 0-2.3-.2-3.5-.3-1.3-.2-2.5-.6-3.7-1.2-1.3-.7-2.3-1.6-3.1-2.7-.3-.6-.6-1.2-.8-1.8-.2-.7-.5-1.5-.8-2.1z"/><path class="st5" d="M247.3 217.3v.2c.9 1.3 2 2.1 3.3 2.8 1.2.6 2.3.9 3.6 1.1.9.1 1.9.2 2.7.2.9 0 1.8 0 2.6-.1 1.3-.1 2.4-.3 3.7-.6 1.2-.3 2.3-.6 3.5-1 1.2-.4 2.2-.8 3.4-1.3 1.5-.6 2.9-1.4 4.3-2.2 1.4-.9 2.6-1.8 3.8-2.8.8-.7 1.5-1.5 2.1-2.2 1.2-1.4 2.2-2.9 2.7-4.8.3-1.2.5-2.3.2-3.5v-.1c.1.2.1.3.2.5.1.1.1.3.2.4.4 1 .8 1.9 1.1 2.8.3.8.3 1.6.3 2.4-.1 1.1-.4 2-.8 3-.4.8-.8 1.5-1.3 2.1-.3.3-.5.7-.8 1-.5.6-.9 1.1-1.5 1.6-.8.8-1.7 1.5-2.5 2.1-1.8 1.4-3.7 2.5-5.8 3.4-1.5.7-2.9 1.3-4.5 1.7-1.6.5-3.1.9-4.8 1.1-1.8.3-3.5.4-5.2.3-1.4-.1-2.7-.3-4.1-.7-1.1-.3-2.1-.8-3-1.4-1.3-.9-2.1-2-2.6-3.4-.1-.9-.5-1.8-.8-2.6-.1.1 0 .1 0 0zm46.7-55.7l.6 1.5c.3.7.6 1.5.8 2.1.3 1.1.3 2.1.1 3.2-.2 1.2-.7 2.3-1.4 3.3l-1.2 1.8c-.7 1-1.6 1.8-2.3 2.5-1.2 1.1-2.4 2-3.7 2.8-.8.5-1.7 1-2.5 1.5-1.5.8-3 1.5-4.7 2-1.2.4-2.3.7-3.5 1-1 .2-2 .4-2.9.5-.3 0-.7-.1-1.1-.1-.9-.1-1.9-.2-2.7-.3H267c-.4 0-.8.1-1.2.1-.5-.1-1.1-.2-1.6-.4-1-.3-1.9-.7-2.6-1.3-1.2-.8-2-1.9-2.5-3.2-.3-.9-.7-1.8-1.1-2.6 0-.1-.1-.1-.1-.3l.2.2c.5.8 1.2 1.5 2 2 1 .7 2 1.1 3.1 1.5 1.3.4 2.6.6 3.9.6 1.8.1 3.5 0 5.3-.3 1.7-.2 3.3-.6 5-1.2 1.2-.4 2.3-.9 3.5-1.4.9-.4 1.7-.8 2.4-1.2 1.1-.7 2.2-1.4 3.3-2 1.1-.7 2-1.5 2.9-2.4.7-.7 1.3-1.3 1.9-2 1-1.2 1.8-2.4 2.2-3.8.4-1.2.6-2.6.4-4.1-.1 0-.1 0 0 0z"/><path class="st5" d="M296.7 168.6l.6 1.5c.3.7.6 1.5.8 2.1.3.9.3 1.9.2 2.7-.2 1.4-.7 2.6-1.5 3.8-.6 1.1-1.4 2-2.2 2.9s-1.9 1.8-2.8 2.5c-1.6 1.3-3.2 2.2-5 3.1-1.5.8-3 1.5-4.7 2-.1 0-.1.1-.2.1-.9-1.4-2-2.5-3.4-3.4.8-.2 1.6-.5 2.3-.7 1.2-.5 2.3-.9 3.5-1.5 1.4-.6 2.6-1.4 3.9-2.1 1.2-.8 2.2-1.6 3.2-2.4l2-2c1.2-1.3 2-2.6 2.7-4.3.3-.7.5-1.4.5-2.1.2-.8.2-1.4.1-2.2-.1.1-.1.1 0 0z"/><path class="st5" d="M299.5 175.6c.2.4.3.8.5 1.3.3.8.7 1.6.9 2.3.3.9.3 1.9.2 2.8-.2 1.4-.7 2.5-1.4 3.7-.6 1-1.2 1.8-2 2.6-.8.9-1.8 1.8-2.6 2.5-1.1.9-2.2 1.7-3.4 2.3-1.7 1-3.4 1.9-5.3 2.5-.5.2-.9.3-1.4.5-.2.1-.2-.1-.3-.2-.3-.7-.5-1.3-.8-2-.2-.4-.4-.7-.6-1-.1-.1-.1-.3-.2-.4-.2-.3 0-.4.3-.5 1.1-.4 2.1-.8 3.1-1.3 1.1-.5 2-1 3-1.6 1.7-.9 3.1-2 4.6-3.2.6-.5 1.2-1.1 1.8-1.7.8-.8 1.5-1.7 2-2.6.5-.8.9-1.7 1.2-2.5.3-.9.4-1.8.4-2.6 0-.2-.1-.5 0-.9-.1 0-.1 0 0 0z"/><path class="st5" d="M302.1 182.5c.1.2.1.3.2.5.4 1.1.8 2 1.2 3.1.3 1 .3 1.9.2 2.8-.2 1.5-.8 2.7-1.6 3.9-.8 1.3-1.7 2.3-2.7 3.3-1.5 1.5-3.1 2.7-4.9 3.7-1.2.7-2.3 1.3-3.5 1.9-1.1.5-2.2.9-3.4 1.4h-.2l-.6-1.5c-.2-.6-.5-1.3-.9-1.8-.1-.2-.2-.4-.2-.7.4-.1.8-.3 1.2-.4 1.1-.4 2.1-.9 3.1-1.4 1.8-.8 3.5-1.9 5.1-3 1.1-.8 2.1-1.7 3-2.6.6-.7 1.3-1.4 1.8-2 .8-1 1.4-2.1 1.8-3.3.3-1 .5-2 .5-2.9-.1-.3-.2-.6-.1-1 0 .1 0 .1 0 0z"/><path d="M491.4 291c-1.6 0-2.6-.2-3.6-.7-.6-.3-1.3-.6-1.9-.9-.6-.3-1.1-.7-1.6-1.1-.8-.6-1.5-1.3-2.1-2-1-1.1-1.9-2.1-2.6-3.3-1.1-1.6-2-3.2-2.7-4.9-.6-1.3-1.1-2.6-1.5-4-.3-1.3-.7-2.4-1-3.7-.3-1.4-.5-2.7-.5-4.1v-2.5c.1-1.5.3-2.9.8-4.4.3-1 .8-1.9 1.4-2.6 1.2-1.6 2.6-2.5 4.6-2.7 1.2-.1 2.2.1 3.4.5.9.3 1.8.8 2.5 1.3.9.6 1.7 1.2 2.4 1.9 1.2 1.2 2.2 2.3 3.2 3.7 1 1.5 2 2.9 2.6 4.5.8 1.6 1.4 3.1 2 4.8.5 1.5.9 2.9 1.1 4.4.2 1.3.4 2.6.4 3.9 0 1 0 2-.1 3s-.3 1.9-.5 2.8c-.2 1.1-.7 2-1.3 2.9-.6 1.1-1.4 1.9-2.4 2.5-.9.4-1.9.7-2.6.7zm-44.7-50.5c1.3 0 2.5.4 3.6.9.8.4 1.6.8 2.2 1.4 1.3.9 2.3 1.9 3.3 3 1.5 1.7 2.7 3.4 3.7 5.4 1 1.8 1.9 3.6 2.4 5.6.6 1.7 1 3.2 1.3 5 .2 1.2.3 2.4.4 3.7.1 1.6 0 3.1-.3 4.7-.2 1.3-.6 2.4-1.2 3.6-.7 1.3-1.5 2.3-2.7 3.1-1.2.7-2.3 1.1-3.7 1-1.1-.1-2-.3-3-.8-.8-.4-1.5-.8-2.2-1.3-1-.7-2-1.5-2.8-2.3-1.5-1.5-2.7-3.2-3.8-5-1.3-2-2.2-4.2-3-6.4-.5-1.5-1-2.9-1.3-4.4-.2-1.3-.4-2.4-.5-3.7-.1-.6-.1-1.3-.1-1.9 0-1 .1-2 .2-3s.3-1.9.7-2.7c.3-.9.7-1.8 1.3-2.5.9-1.3 2-2.2 3.5-2.6.8-.6 1.4-.7 2-.8z"/><path d="M454.8 278.8c-.8.3-1.5.6-2.2.9-.7.3-1.4.5-2 .7-.9.2-1.9.1-2.7-.1-1.2-.3-2.1-.7-3.2-1.4-1.5-.9-2.7-2-3.9-3.2-1.4-1.5-2.5-3-3.5-4.7-1.2-2-2.2-4.2-2.9-6.3-.6-1.8-1.1-3.5-1.4-5.3-.3-1.6-.5-3.2-.4-4.8 0-1.5.2-2.9.5-4.4.3-1.2.7-2.2 1.2-3.2.9-1.6 2-2.7 3.8-3.3 1-.3 1.9-.7 2.8-1.1h.1c-.4.3-.9.7-1.3 1-.6.6-1.2 1.3-1.5 2-.2.5-.5 1-.7 1.5-.3.8-.5 1.6-.7 2.3-.3 1.3-.3 2.4-.3 3.7 0 1.6.2 3.1.4 4.6.5 2.6 1.2 5.2 2.2 7.6.9 2.1 2 4.2 3.3 6.1.8 1.1 1.7 2.1 2.6 3.1.6.6 1.2 1.2 1.9 1.7 1.4 1.1 2.7 2 4.4 2.4 1.1.3 2.3.5 3.5.2-.1-.1 0-.1 0 0z"/><path d="M447.8 281.5c-.6.2-1.2.5-1.8.7-.7.3-1.5.6-2.1.8-1.1.3-2.1.3-3.1 0-1.2-.3-2.1-.7-3.1-1.3-.8-.5-1.5-1-2.1-1.6-.8-.7-1.5-1.5-2.2-2.1-1.2-1.2-2.1-2.6-3-4-1.2-2-2.1-4.1-3-6.2-.5-1.4-.9-2.8-1.3-4.3-.3-1.5-.6-2.8-.6-4.3 0-1-.1-2 0-2.9.1-1.4.3-2.7.7-4.1.3-1.1.8-2.1 1.4-3.1.8-1.2 2-2.1 3.3-2.6 1-.4 1.9-.8 2.8-1.1h.1c-.4.3-.9.7-1.3 1-.8.7-1.4 1.6-1.8 2.5-.6 1.2-.9 2.3-1.1 3.6-.1.5-.2 1.1-.2 1.6 0 1-.1 2 0 2.9 0 1 .1 2 .3 2.9.2 1.4.5 2.6.9 4 .3 1.1.7 2 1 3 .7 1.8 1.5 3.4 2.3 5 .9 1.6 1.9 2.9 3 4.3.8 1 1.7 1.9 2.6 2.6 1 .9 2 1.6 3.3 2 1 .5 2 .8 3.2.8.7-.1 1.3-.1 1.8-.1zm27.6-25.8c-.9.5-1.7 1.3-2.2 2-.6.8-1.1 1.8-1.4 2.7-.2.7-.4 1.3-.5 2-.2 1-.3 2-.4 3 0 1.2 0 2.3.1 3.5.1.9.2 1.7.4 2.5s.4 1.7.6 2.5c.4 1.6.9 3 1.6 4.5.8 1.8 1.7 3.5 2.7 5.1.8 1.2 1.6 2.2 2.4 3.3.8.9 1.6 1.6 2.4 2.3.8.7 1.7 1.3 2.6 1.8 1.1.6 2.1 1 3.4 1.1.7.1 1.4.1 2-.1l.1.1c-.4.1-.7.3-1 .4-.9.3-1.8.7-2.6 1-1.1.4-2.1.3-3.2.1-1.2-.2-2.3-.7-3.4-1.4-1-.6-1.8-1.2-2.6-2-1.9-1.7-3.4-3.6-4.7-5.8-1.4-2.2-2.4-4.5-3.2-6.9-.5-1.6-.9-3.1-1.2-4.7-.1-.6-.2-1.1-.3-1.7 0-.4.1-.7.1-1.1.2-1.5.3-3 .2-4.5 0-.7-.2-1.3-.1-2 0-.6.2-1.1.4-1.6.3-1 .7-1.9 1.3-2.7.8-1.1 1.8-2 3-2.4 1.1-.4 2-.8 3.1-1.2.3.2.4.2.4.2z"/><path d="M482.4 294.8c-.4.2-.7.3-1.1.4-.9.3-1.8.7-2.6 1-1.1.3-2.1.3-3.2.1-1.2-.2-2.3-.7-3.3-1.4-.9-.6-1.8-1.2-2.5-2-1.5-1.3-2.6-2.7-3.8-4.4-1.1-1.5-2-3.1-2.7-4.8-.6-1.2-1.1-2.4-1.5-3.7 0-.1-.1-.1-.1-.2 1.4-.9 2.5-2 3.4-3.4.1.4.2.7.3 1 .4 1.3.8 2.4 1.3 3.7.7 1.8 1.7 3.5 2.7 5.1.8 1.2 1.6 2.2 2.4 3.2.7.8 1.5 1.5 2.2 2.1.7.6 1.4 1.1 2 1.6 1.3.8 2.7 1.4 4.3 1.6.7.1 1.4.1 2-.1l.2.2z"/><path d="M454.7 282.8c.7-.3 1.3-.5 2-.8.5-.2.9-.4 1.3-.7.2-.1.4-.2.6-.2 0 0 .1.1.2.1.5 1.7 1.3 3.3 2 4.9.9 1.7 1.9 3.3 3 4.8.7.9 1.5 1.7 2.1 2.4 1 1.1 2 1.9 3.3 2.6 1.1.7 2.2 1.2 3.5 1.4.9.2 1.8.2 2.6 0l.1.1h-.1c-1.2.5-2.3 1-3.6 1.4-.9.3-1.9.3-2.7.2-1.5-.2-2.7-.8-3.9-1.6-.9-.6-1.6-1.2-2.3-1.9-1-.8-1.8-1.8-2.6-2.7-1.1-1.4-2-2.7-2.8-4.3-.8-1.4-1.5-2.8-2-4.3-.4-.3-.5-.8-.7-1.4z"/><path d="M468.4 300.2c-.4.2-.7.3-1 .4-.9.3-1.8.7-2.6 1s-1.9.3-2.8.2c-1.5-.2-2.7-.8-3.9-1.6-1.2-.8-2.2-1.7-3.2-2.6-1.2-1.2-2.1-2.4-3.1-3.7-1.2-1.8-2.1-3.6-3-5.5-.4-.9-.7-1.8-1-2.6-.1-.2 0-.3.2-.3.7-.3 1.5-.6 2.1-.9.3-.1.5-.3.7-.4l.1-.1c.2-.1.4-.2.6-.2.3 0 .2.3.3.5.6 1.8 1.4 3.4 2.1 5.1.9 1.7 1.9 3.2 3 4.7.8 1 1.6 1.9 2.4 2.6.8.8 1.8 1.5 2.6 2 1.1.7 2.2 1.2 3.5 1.5.9.2 1.8.2 2.6 0 .3-.1.3-.1.4-.1zM356.1 482c0-1.2.2-2.2.7-3.2.3-.6.6-1.3 1-1.9.3-.6.7-1.1 1.1-1.6.6-.7 1.3-1.5 2-2.1 1-1 2.1-1.9 3.3-2.6 1.4-1 2.8-1.8 4.3-2.4s3-1.3 4.7-1.9c1.5-.5 3-.9 4.5-1.1 1.1-.2 2.2-.3 3.3-.3.9-.1 1.8-.1 2.7 0 1.4.1 2.8.4 4.2.8 1 .3 1.9.8 2.7 1.4 1.6 1.2 2.5 2.6 2.7 4.6.1 1.2-.1 2.3-.5 3.4-.3.9-.8 1.8-1.3 2.5-.6.9-1.2 1.7-1.9 2.4-.9.9-1.9 1.8-2.8 2.5-1.9 1.5-3.9 2.6-6.1 3.7-1.4.7-2.8 1.2-4.3 1.7s-2.9.9-4.4 1.1c-1 .1-2 .3-2.9.4-1.3.1-2.4.1-3.7 0-1.3-.1-2.5-.4-3.8-.8-.9-.3-1.8-.7-2.4-1.2-1.6-1.1-2.6-2.5-2.9-4.5-.2-.4-.2-.7-.2-.9zm38.2-51.8c1.3.1 2.6.1 3.9.3 1.3.1 2.5.5 3.7 1 1.7.7 3 1.8 3.9 3.3.6 1.1.8 2.1.7 3.3-.1 1.5-.6 2.8-1.4 4.2-.6 1-1.2 1.9-1.9 2.6-.8 1-1.8 1.9-2.7 2.6-1.1.9-2.2 1.7-3.4 2.4-1.6 1-3.2 1.8-4.9 2.4-1.5.6-2.9 1.1-4.5 1.5-1.7.4-3.3.7-5 .9-1.1.1-2 .1-3.1.1-1.5 0-2.9-.3-4.3-.7-.9-.3-1.7-.6-2.4-1-1-.6-1.9-1.3-2.5-2.2-.6-.9-.9-1.8-1.1-2.7-.1-.9 0-1.8.2-2.5.3-1.1.7-2 1.3-3 .9-1.6 2.1-2.8 3.4-4.1 1.4-1.3 2.9-2.3 4.5-3.3 1.8-1.1 3.6-2 5.5-2.6 1.7-.6 3.3-1.2 5.1-1.5 1.4-.3 2.7-.5 4.1-.6.3-.2.6-.3.9-.4 0 .1 0 .1 0 0z"/><path d="M368.4 445.9l-.9-2.3c-.2-.6-.5-1.3-.6-2-.3-1-.2-2 0-2.9.3-1.2.7-2.1 1.4-3.2.9-1.5 2-2.7 3.2-3.9 1.4-1.4 2.9-2.4 4.7-3.5 2-1.3 4.2-2.2 6.4-3 1.4-.5 2.8-.9 4.3-1.2 1.4-.3 2.7-.5 4.1-.6 1 0 2-.1 2.9 0 1.3 0 2.5.2 3.7.6 1 .3 1.9.6 2.7 1.1 1.6.9 2.6 2 3.3 3.7.4 1 .8 1.9 1.1 2.8v.2c-.2-.3-.4-.6-.7-.9-.5-.7-1.1-1.2-1.8-1.6-.8-.5-1.6-.9-2.4-1.2-.9-.3-1.9-.5-2.7-.6-1-.1-2-.2-2.9-.2-1.6 0-3.1.1-4.6.4-2.6.5-5.2 1.2-7.6 2.2-2.1.9-4.2 2-6.1 3.3-1.1.8-2.1 1.7-3.1 2.6-.8.8-1.6 1.6-2.1 2.5-1 1.3-1.8 2.7-2 4.3-.2 1-.3 2-.1 3-.2.2-.2.3-.2.4z"/><path d="M365.6 438.9c-.2-.4-.3-.8-.5-1.2l-.9-2.4c-.3-.8-.4-1.9-.2-2.8.2-1.4.7-2.6 1.5-3.9.6-1 1.3-2 2-2.7 1.8-1.9 3.7-3.4 5.9-4.7 2-1.2 4-2.1 6.1-2.8 1.6-.6 3-1 4.7-1.3 1.3-.2 2.6-.4 3.9-.5 1-.1 2-.1 2.9 0 1.4.1 2.7.2 4.1.7.8.3 1.7.6 2.4 1 1.6.9 2.7 2 3.3 3.8.4 1 .7 1.9 1.1 2.8v.2l-.9-1.2c-.8-.9-1.7-1.5-2.7-2-1.2-.6-2.3-.9-3.6-1.1-.9-.1-1.7-.2-2.5-.2h-1.9c-1 .1-2 .1-3 .3-1.4.2-2.7.5-4 .9s-2.4.8-3.7 1.3c-1.8.7-3.4 1.6-5.1 2.5-1.6 1-3 2-4.4 3.4-.9.8-1.7 1.7-2.3 2.6-.9 1.2-1.6 2.5-2 4-.3 1.1-.4 2.1-.1 3.3 0-.1 0-.1-.1 0 .1 0 .1 0 0 0zm25.8 27.5c-.6-1-1.4-1.8-2.3-2.4s-2.1-1.2-3.3-1.5c-1.8-.5-3.5-.7-5.3-.6-1.4 0-2.7.2-4.1.4-1.5.3-2.9.6-4.4 1.1-1.2.4-2.3.9-3.5 1.4-.9.4-1.7.8-2.4 1.2-1.5.8-2.8 1.7-4.2 2.6-1.2.9-2.2 1.9-3.3 2.9-.9 1-1.8 2.1-2.3 3.3-.6 1.1-1 2.1-1.1 3.3-.1.7-.1 1.4.1 2l-.1.1v-.1c-.5-1.2-1-2.3-1.4-3.5-.4-1.2-.3-2.4 0-3.7.3-1.1.8-2.1 1.4-3.1.3-.5.7-1 1.1-1.5.7-1 1.6-1.8 2.3-2.5 1.2-1.1 2.4-2 3.8-2.8 1.3-.8 2.6-1.6 4-2.1 1.4-.6 2.8-1.2 4.3-1.6l3.5-.9 1.8-.3c.4 0 .7.1 1.1.2.9.1 1.9.2 2.7.2 1.1 0 2.2 0 3.3-.1.8-.1 1.6.2 2.2.5.9.3 1.7.7 2.3 1.2 1.1.8 2 1.8 2.4 3.1.5 1 .9 2.1 1.4 3.2z"/><path d="M367.1 452.6c.9 1.4 2 2.5 3.4 3.4-.7.2-1.3.4-2 .6-.9.3-1.9.7-2.7 1-1.8.8-3.5 1.7-5.1 2.7-1.2.8-2.2 1.6-3.2 2.4-.8.7-1.5 1.5-2.1 2.2-1.1 1.2-2 2.5-2.5 4.1-.3.7-.5 1.4-.5 2.1-.1.7-.1 1.4.1 2l-.1.1v-.1c-.5-1.2-1-2.3-1.4-3.6-.3-1-.3-2-.1-3.1.3-1.3.8-2.4 1.5-3.6.5-.9 1.2-1.7 1.8-2.3 1.4-1.5 2.8-2.7 4.5-3.9 1.5-1.1 3.1-2 4.8-2.6 1.1-.5 2-.9 3.1-1.3 0 0 .2-.1.5-.1z"/><path d="M349.5 466.4c-.1-.2-.1-.3-.2-.5-.4-1.1-.9-2-1.2-3.1-.3-.9-.3-1.9-.2-2.8.2-1.5.8-2.7 1.6-3.9.5-.8 1.2-1.6 1.8-2.3.8-1 1.8-1.8 2.7-2.5 1.4-1.1 2.8-2 4.3-2.9 1.4-.8 2.8-1.5 4.3-2 .5-.2.9-.3 1.4-.5.2-.1.2.1.3.2.3.7.5 1.4.8 2 .1.3.3.6.5.9.1.2.2.4.3.7 0 .1 0 .2-.1.2-2.3.8-4.6 1.8-6.6 3-1.6.9-2.9 2-4.3 3.1-.8.7-1.5 1.5-2.1 2.1-.6.7-1.1 1.4-1.6 2.1-.5.8-.9 1.7-1.2 2.5-.3.9-.4 1.8-.4 2.6 0 .3.1.7.1 1-.1 0-.1 0-.2.1.1 0 0 0 0 0z"/><path d="M346.8 459.4c-.1-.2-.1-.3-.2-.5-.4-1.1-.9-2-1.2-3.1-.3-.9-.3-1.9-.2-2.8.2-1.5.8-2.7 1.6-3.9.8-1.2 1.7-2.2 2.6-3.2 1.2-1.2 2.4-2.1 3.7-3.1 1.8-1.2 3.6-2.1 5.5-3 .9-.4 1.8-.7 2.6-1 .2-.1.3 0 .3.2.3.7.6 1.5.9 2.1.1.3.3.5.4.7 0 .1.1.1.1.2.1.2.2.4.1.5 0 .1-.3.2-.4.2-1.8.6-3.3 1.3-5 2.1-1.4.7-2.6 1.6-3.9 2.4-1.3.9-2.4 2-3.5 3.1-.8.8-1.5 1.7-2 2.6-.5.8-.9 1.7-1.2 2.5-.3.9-.4 1.8-.4 2.6.2.7.3 1.1.2 1.4.1 0 .1 0 0 0zM158.1 350.9c1.1 0 2 .3 3 .7.7.3 1.3.6 1.9 1 .6.3 1.1.7 1.6 1.2.7.6 1.5 1.3 2 2 1.1 1.1 2 2.1 2.7 3.4 1.1 1.6 2 3.2 2.7 4.9.6 1.3 1.1 2.6 1.5 4 .5 1.5.9 2.9 1.1 4.5.2 1.1.3 2.2.3 3.3.1.8.1 1.7 0 2.4-.1 1.5-.3 3-.8 4.4-.3 1-.8 1.9-1.4 2.7-1 1.5-2.3 2.3-4.1 2.7-1.3.2-2.6 0-3.8-.4-.9-.3-1.8-.8-2.5-1.3-.9-.6-1.7-1.2-2.4-1.9-.9-.9-1.8-1.9-2.6-2.8-1.5-1.9-2.6-3.9-3.7-6.1-.7-1.4-1.2-2.8-1.7-4.3s-.9-2.9-1.1-4.4c-.1-1-.3-2-.4-2.9-.1-1.3-.1-2.4 0-3.7.1-1.3.4-2.5.8-3.8.3-.9.7-1.8 1.2-2.4 1.1-1.6 2.5-2.6 4.5-2.9.6-.3.9-.3 1.2-.3zm51.8 38.2c-.1 1.3-.1 2.6-.3 3.9-.1 1.3-.5 2.5-1 3.7-.7 1.7-1.8 3-3.3 3.9-1.1.6-2.1.8-3.3.7-1.5-.1-2.8-.6-4.2-1.4-1-.6-1.9-1.2-2.6-1.9-1-.8-1.9-1.8-2.6-2.7-.9-1.1-1.7-2.2-2.4-3.4-1-1.6-1.8-3.2-2.4-4.9-.6-1.5-1.1-2.9-1.5-4.5-.4-1.7-.7-3.3-.9-5-.1-1.1-.1-2-.1-3.1 0-1.5.3-2.9.7-4.3.3-.9.6-1.7 1-2.4.6-1 1.3-1.9 2.2-2.5.9-.6 1.8-.9 2.7-1.1.9-.1 1.8 0 2.5.2 1.1.3 2 .7 3 1.3 1.6.9 2.8 2.1 4.1 3.4 1.3 1.4 2.3 2.9 3.3 4.5 1.1 1.8 2 3.6 2.6 5.5.6 1.7 1.2 3.3 1.5 5.1.3 1.4.5 2.7.6 4.1.2.3.3.6.4.9-.1 0-.1 0 0 0z"/><path d="M194.3 363.1c.4-.1.7-.3 1.1-.4.9-.3 1.7-.7 2.5-1 .8-.3 1.6-.3 2.4-.2 1.1.1 2 .4 2.9.8l1.2.6c.5.3 1 .6 1.5 1 .8.6 1.5 1.3 2.1 2 1.5 1.5 2.7 3.2 3.9 5.1 1.2 2 2.2 4.2 3 6.3.5 1.5 1 2.9 1.3 4.5.2 1.3.4 2.5.5 3.9.1 1 .1 2 0 2.9 0 1.1-.2 2.1-.5 3.2-.3 1.2-.7 2.2-1.2 3.2-.9 1.6-2 2.7-3.8 3.3-1 .3-1.9.7-2.8 1.1h-.2l1.2-.9c1-.9 1.6-1.9 2.1-3s.8-2.1.9-3.2c.1-.9.2-1.9.2-2.7s0-1.8-.1-2.6c-.1-.9-.2-1.8-.3-2.5-.2-1.2-.4-2.2-.8-3.3-.4-1.4-.9-2.8-1.5-4.2-.8-2-1.8-3.7-2.9-5.5-.8-1.2-1.7-2.3-2.7-3.4-.7-.7-1.5-1.5-2.2-2.1-1.1-.9-2.1-1.6-3.4-2-1-.4-2-.7-3-.7-.5 0-1.1.1-1.6.1.2-.2.2-.2.2-.3 0 .1 0 0 0 0z"/><path d="M215.2 396.8c.4-.3.8-.5 1.1-.9.9-.8 1.5-1.7 2-2.7.6-1.2.9-2.3 1.1-3.6.1-.9.2-1.8.2-2.5 0-.9 0-1.9-.1-2.7-.1-1.3-.3-2.4-.6-3.7-.2-1.2-.6-2.3-1-3.5-.5-1.4-1-2.7-1.7-4.1-.8-1.8-1.8-3.3-2.8-4.9-.8-1.1-1.6-2-2.4-2.9-.7-.7-1.3-1.3-2-1.9-1.4-1.1-2.8-2-4.5-2.4-1.2-.3-2.3-.5-3.5-.2h-.2c.6-.2 1-.4 1.5-.6.7-.3 1.5-.6 2.1-.8.9-.3 1.9-.4 2.8-.2 1.4.2 2.7.7 3.9 1.5.8.5 1.5 1 2.1 1.6.8.7 1.5 1.5 2.2 2.1 1.2 1.3 2.2 2.7 3.1 4.2 1.2 2 2.1 4 2.8 6.1.5 1.4 1 2.8 1.3 4.3.3 1.5.6 2.8.6 4.3 0 1 .1 2 0 2.9-.1 1.4-.2 2.7-.7 4.1-.3.8-.6 1.7-1 2.3-.9 1.6-2 2.7-3.8 3.3-.8.2-1.7.6-2.5.9.2-.1.1-.1 0 0zm-41.5-10.6c1-.6 1.8-1.4 2.4-2.3.7-1 1.2-2.1 1.5-3.3.5-1.8.7-3.5.6-5.3 0-1.4-.2-2.7-.4-4.1-.3-1.5-.6-2.9-1.1-4.4-.5-1.5-1-2.8-1.7-4.3-.8-1.8-1.8-3.5-2.9-5.1-.8-1.1-1.6-2.1-2.5-3-.8-.8-1.6-1.5-2.4-2.1-1-.8-2-1.5-3.3-1.9-.7-.2-1.4-.4-2-.5-.7-.1-1.5-.1-2.1.1 0 0 0-.1-.1-.1h.1c1.2-.5 2.3-1 3.5-1.4s2.4-.3 3.7 0c1.1.3 2.1.8 3.1 1.4.5.3 1.1.7 1.5 1.1.7.6 1.4 1.2 2 1.8.8.9 1.6 1.8 2.2 2.6 1.1 1.4 2 2.8 2.6 4.4.8 1.5 1.5 3 2 4.6.4 1.4.8 2.6 1.1 4 .2.8.3 1.7.4 2.4 0 .4-.1.7-.2 1.1-.1.9-.2 1.9-.2 2.7 0 1.1 0 2.2.1 3.3.1.8-.2 1.6-.5 2.2-.3.9-.7 1.7-1.2 2.3-.8 1.1-1.8 2-3.1 2.4-1 .6-2.1 1-3.1 1.4z"/><path d="M187.4 361.9c-1.4.9-2.5 2-3.4 3.4-.2-.5-.3-1-.5-1.5-.4-1.1-.7-2.1-1.2-3.1-.8-1.8-1.7-3.5-2.7-5.1-.8-1.2-1.6-2.2-2.4-3.2-.7-.8-1.5-1.5-2.2-2.1-1.2-1.1-2.5-2-4.1-2.5-.7-.3-1.4-.5-2.1-.6-.7-.1-1.5 0-2.1.1l.1-.1c1.2-.5 2.3-1 3.6-1.4 1.1-.3 2.1-.3 3.1-.1 1.3.3 2.4.8 3.5 1.5.9.5 1.7 1.2 2.3 1.8 1.5 1.4 2.7 2.8 3.9 4.5 1.1 1.5 2 3.1 2.6 4.8.5 1.1.9 2 1.3 3.1.2.2.3.3.3.5z"/><path d="M173.7 344.4c.4-.2.8-.3 1.2-.5.8-.3 1.6-.7 2.4-.9.9-.3 1.9-.3 2.8-.2 1.3.2 2.5.7 3.6 1.4 1.4.8 2.5 1.9 3.7 2.9 1.9 1.9 3.3 4 4.6 6.2.9 1.7 1.8 3.4 2.2 5.3.1.3.1.4-.2.5l-2 .9c-.2.1-.4.3-.7.4-.2.1-.4.2-.7.3-.1 0-.2 0-.3-.2-.8-2.3-1.8-4.6-3-6.6-.9-1.5-2-2.9-3.1-4.3-.8-.9-1.6-1.7-2.5-2.4-1.3-1-2.6-1.9-4.1-2.4-1.2-.4-2.2-.6-3.5-.4-.1 0-.2.1-.4 0 0 .1 0 .1 0 0z"/><path d="M180.7 341.6c.4-.2.8-.3 1.2-.5l2.3-.9c1-.3 1.9-.3 2.8-.2 1.5.2 2.7.8 3.9 1.6 1.3.8 2.3 1.7 3.3 2.7 1.8 1.9 3.2 3.9 4.5 6.1.8 1.4 1.5 2.8 2 4.4.2.4.3.9.5 1.3.1.2-.1.2-.2.3-.7.3-1.3.5-2 .8-.3.1-.6.4-1 .5-.2.1-.4.2-.7.3-.1 0-.2 0-.2-.1-.6-1.8-1.3-3.4-2.1-5.1-1-2-2.1-3.7-3.5-5.4-.7-.8-1.4-1.5-2.1-2.2-.8-.8-1.7-1.5-2.6-2-1.3-.8-2.6-1.4-4.2-1.5-.6-.2-1.3-.2-1.9-.1 0 .1 0 .1 0 0zm1.9-196.6l-6.8-23.5 19.9-7.8 2.5 6.5-13.4 5.2 2.9 9.9c.4-.8.9-1.6 1.6-2.3.7-.7 1.5-1.3 2.5-1.7 3.4-1.4 6.4-1.2 9.2.5 2.8 1.7 5 4.7 6.7 9.1 1.5 3.9 1.7 7.5.7 10.9-1 3.4-3.5 5.9-7.3 7.4-3.2 1.3-6.5 1.3-9.6.2-3.2-1.2-5.4-3.5-6.7-7.1v-.2l7.6-3.4c.7 1.8 1.6 3.1 2.8 3.8 1.1.7 2.3.9 3.5.4 1.4-.5 2.2-1.6 2.3-3.2.1-1.6-.2-3.5-1.1-5.6-.9-2.4-2-4.2-3.3-5.3-1.3-1.1-2.6-1.4-4.1-.8-1.1.4-1.8 1.1-2.2 1.9-.4.8-.5 1.8-.3 2.9l-7.4 2.2zm52.3-18c2.1 5.4 2.6 10 1.6 13.6-1.1 3.6-3.4 6.2-7 7.6-3.7 1.4-7.1 1.2-10.4-.8-3.3-2-5.9-5.7-8.1-11.1l-3.4-8.8c-2.1-5.4-2.6-10-1.6-13.6 1.1-3.7 3.4-6.2 7-7.6 3.6-1.4 7.1-1.1 10.4.9 3.3 2 6 5.7 8.1 11.1l3.4 8.7zm-11.6-6.4c-1.3-3.3-2.6-5.5-3.8-6.8-1.3-1.2-2.5-1.6-3.7-1l-.2.1c-1.3.4-2 1.5-2.1 3.2-.1 1.8.5 4.3 1.8 7.6l3.9 10.1c1.3 3.3 2.6 5.6 3.9 6.9 1.3 1.3 2.5 1.6 3.7 1l.2-.1c1.3-.4 2-1.4 2-3.2.1-1.8-.5-4.3-1.8-7.7l-3.9-10.1zm44.1-7.4l-13.8 5.4 6.6 16.9-8 3.1-15.9-40.8 24.2-9.4 2.5 6.4-16.3 6.3 4.3 11.1 13.8-5.4 2.6 6.4zm27.2-3.3c-.6-1.6-1.5-2.7-2.7-3.3-1.2-.6-3-1-5.4-1-4.8.2-8.6-.3-11.5-1.3-2.8-1.1-4.9-3.3-6.2-6.6-1.3-3.3-1.1-6.5.5-9.6 1.6-3.1 4.4-5.3 8.2-6.8 3.9-1.5 7.5-1.6 10.8-.2 3.3 1.4 5.7 3.9 7 7.5v.2l-7.7 3c-.7-1.9-1.8-3.2-3.2-4-1.4-.8-2.9-.9-4.6-.2-1.6.6-2.6 1.6-3.1 2.9-.5 1.3-.5 2.7.1 4.1.5 1.3 1.4 2.3 2.8 2.7 1.3.5 3.4.8 6.3.9 4.4-.2 7.9.3 10.7 1.6 2.7 1.2 4.8 3.6 6.1 7 1.4 3.5 1.3 6.7-.3 9.7-1.6 2.9-4.3 5.1-8.2 6.6-3.9 1.5-7.7 1.7-11.4.5s-6.4-3.9-7.9-8.2v-.2l7.8-3c1 2.5 2.2 4.1 3.7 4.8 1.5.7 3.3.6 5.5-.2 1.7-.7 2.8-1.6 3.2-2.8.2-1.2.1-2.6-.5-4.1zM506 180.4l23.5-6.8 7.7 19.9-6.5 2.5-5.2-13.4-9.9 2.9c.8.4 1.6.9 2.3 1.6s1.3 1.5 1.7 2.5c1.4 3.4 1.2 6.4-.5 9.2-1.7 2.8-4.7 5-9.1 6.7-3.9 1.5-7.5 1.7-10.9.7-3.4-1-5.9-3.5-7.3-7.3-1.3-3.2-1.3-6.5-.1-9.6 1.2-3.2 3.5-5.4 7.1-6.7h.2l3.4 7.6c-1.8.7-3.1 1.6-3.8 2.8-.7 1.1-.9 2.3-.4 3.5.5 1.4 1.6 2.2 3.2 2.3 1.6.1 3.5-.2 5.6-1.1 2.4-.9 4.2-2 5.3-3.3 1.1-1.3 1.4-2.6.8-4.1-.4-1.1-1.1-1.8-1.9-2.2-.8-.4-1.8-.5-2.9-.3l-2.3-7.4zm18 52.4c-5.4 2.1-10 2.6-13.6 1.6-3.6-1.1-6.2-3.4-7.6-7-1.4-3.7-1.1-7.1.8-10.4 2-3.3 5.7-5.9 11.1-8l8.8-3.4c5.4-2.1 10-2.6 13.6-1.6 3.7 1.1 6.2 3.4 7.6 7.1 1.4 3.6 1.1 7.1-.9 10.4-2 3.3-5.7 5.9-11.1 8l-8.7 3.3zm6.4-11.7c3.3-1.3 5.6-2.6 6.8-3.8 1.2-1.3 1.6-2.5 1-3.7l-.1-.2c-.4-1.3-1.5-2-3.2-2.1-1.8-.1-4.3.5-7.6 1.8l-10.1 3.9c-3.3 1.3-5.6 2.6-6.9 3.9-1.3 1.3-1.6 2.5-1 3.7l.1.2c.4 1.3 1.4 2 3.2 2 1.8.1 4.3-.5 7.7-1.8l10.1-3.9zm7.3 44.2l-5.4-13.8-16.9 6.6-3.1-8 40.8-15.8 9.4 24.3-6.4 2.5-6.3-16.3-11.1 4.3 5.4 13.8-6.4 2.4zm3.3 27.2c1.6-.6 2.7-1.5 3.3-2.7.6-1.2 1-3 1-5.4-.2-4.8.3-8.6 1.3-11.5 1.1-2.8 3.3-4.9 6.7-6.2 3.3-1.3 6.5-1.1 9.6.5 3.1 1.7 5.3 4.4 6.8 8.2 1.5 3.9 1.6 7.5.2 10.8-1.4 3.3-3.9 5.7-7.5 7h-.2l-3-7.7c1.9-.7 3.2-1.8 4-3.2.8-1.4.9-2.9.2-4.6-.6-1.6-1.6-2.6-2.9-3.2-1.3-.5-2.7-.5-4.1.1-1.3.5-2.3 1.4-2.7 2.8-.5 1.3-.8 3.4-.9 6.3.2 4.4-.3 7.9-1.6 10.7-1.3 2.7-3.6 4.8-7 6.1-3.5 1.4-6.7 1.3-9.7-.3-2.9-1.6-5.1-4.3-6.6-8.2-1.5-3.9-1.7-7.7-.5-11.4s3.9-6.4 8.2-7.9h.2l3 7.8c-2.5 1-4.1 2.2-4.8 3.7-.7 1.5-.6 3.3.2 5.5.7 1.7 1.6 2.8 2.8 3.2 1.1.3 2.5.2 4-.4zm-74.4 204.3l6.8 23.5-19.9 7.7-2.5-6.5 13.4-5.2-2.9-9.9c-.4.8-.9 1.6-1.6 2.3-.7.7-1.5 1.3-2.5 1.7-3.4 1.4-6.4 1.2-9.2-.5-2.8-1.7-5-4.7-6.7-9.1-1.5-3.9-1.7-7.5-.7-10.9 1-3.4 3.5-5.9 7.3-7.4 3.2-1.3 6.5-1.3 9.6-.1 3.2 1.2 5.4 3.5 6.7 7.1v.2l-7.6 3.4c-.7-1.8-1.6-3.1-2.8-3.8-1.1-.7-2.3-.9-3.5-.4-1.4.5-2.2 1.6-2.3 3.2-.1 1.6.2 3.5 1.1 5.6.9 2.4 2 4.2 3.3 5.3 1.3 1.1 2.6 1.4 4.1.8 1.1-.4 1.8-1.1 2.2-1.9.4-.8.5-1.8.3-2.9l7.4-2.2zm-52.4 18c-2.1-5.4-2.6-10-1.6-13.6 1.1-3.6 3.4-6.2 7-7.6 3.7-1.4 7.1-1.1 10.4.8 3.3 2 5.9 5.7 8 11.1l3.4 8.8c2.1 5.4 2.6 10 1.6 13.6-1.1 3.7-3.4 6.2-7 7.6-3.6 1.4-7.1 1.1-10.4-.9-3.3-2-5.9-5.7-8-11.1l-3.4-8.7zm11.7 6.4c1.3 3.3 2.6 5.6 3.8 6.8 1.3 1.2 2.5 1.6 3.7 1l.2-.1c1.3-.4 2-1.5 2.1-3.2.1-1.8-.5-4.3-1.8-7.6L430 508c-1.3-3.3-2.6-5.6-3.9-6.9-1.3-1.3-2.5-1.6-3.7-1l-.2.1c-1.3.4-2 1.4-2 3.2-.1 1.8.5 4.3 1.8 7.7l3.9 10.1zm-44.2 7.4l13.8-5.4-6.6-16.9 8-3.1 15.8 40.8-24.3 9.4-2.5-6.4 16.3-6.3-4.3-11.1-13.8 5.4-2.4-6.4zm-27.2 3.3c.6 1.6 1.5 2.7 2.7 3.3 1.2.6 3 1 5.4 1 4.8-.2 8.6.3 11.5 1.3 2.8 1.1 4.9 3.3 6.2 6.6 1.3 3.3 1.1 6.5-.5 9.6-1.6 3.1-4.4 5.3-8.2 6.8-3.9 1.5-7.5 1.6-10.8.2-3.3-1.4-5.7-3.9-7-7.5v-.2l7.7-3c.7 1.9 1.8 3.2 3.2 4 1.4.8 2.9.9 4.6.2 1.6-.6 2.6-1.6 3.2-2.9.5-1.3.5-2.7-.1-4.1-.5-1.3-1.4-2.3-2.8-2.7-1.3-.5-3.4-.8-6.3-.9-4.4.2-7.9-.3-10.7-1.6-2.7-1.3-4.8-3.6-6.1-7-1.4-3.5-1.3-6.7.3-9.7 1.6-2.9 4.3-5.1 8.2-6.6 3.9-1.5 7.7-1.7 11.4-.5s6.4 3.9 7.9 8.2v.2l-7.8 3c-1-2.5-2.2-4.1-3.7-4.8-1.5-.7-3.3-.6-5.5.2-1.7.7-2.8 1.6-3.2 2.8-.2 1.2-.2 2.5.4 4.1zm-211.3-70.4l-23.5 6.8-7.8-19.9 6.5-2.5 5.2 13.4 9.9-2.9c-.8-.4-1.6-.9-2.3-1.6-.7-.7-1.3-1.5-1.7-2.5-1.4-3.4-1.2-6.4.5-9.2 1.7-2.8 4.7-5 9.1-6.7 3.9-1.5 7.5-1.7 10.9-.7 3.4 1 5.9 3.5 7.4 7.3 1.3 3.2 1.3 6.5.2 9.6-1.2 3.2-3.5 5.4-7.1 6.7h-.2l-3.4-7.6c1.8-.7 3.1-1.6 3.8-2.8.7-1.1.9-2.3.4-3.5-.5-1.4-1.6-2.2-3.2-2.3-1.6-.1-3.5.3-5.6 1.1-2.4.9-4.2 2-5.3 3.3-1.1 1.3-1.4 2.6-.8 4.1.4 1.1 1.1 1.8 1.9 2.2.8.4 1.8.5 2.9.3l2.2 7.4zm-18.1-52.3c5.4-2.1 10-2.6 13.6-1.6 3.6 1.1 6.2 3.4 7.6 7 1.4 3.7 1.2 7.1-.8 10.4-2 3.3-5.7 5.9-11.1 8.1l-8.8 3.4c-5.4 2.1-10 2.6-13.6 1.6-3.7-1.1-6.2-3.4-7.6-7-1.4-3.6-1.1-7.1.8-10.4 2-3.3 5.7-6 11.1-8.1l8.8-3.4zm-6.3 11.6c-3.3 1.3-5.5 2.6-6.8 3.8-1.2 1.3-1.6 2.5-1 3.7l.1.2c.4 1.3 1.5 2 3.3 2.1 1.8.1 4.3-.5 7.6-1.8l10.1-3.9c3.3-1.3 5.6-2.6 6.9-3.9 1.3-1.3 1.6-2.5 1-3.7l-.1-.2c-.4-1.3-1.4-2-3.2-2-1.8-.1-4.3.5-7.7 1.8l-10.2 3.9zm-7.5-44.2l5.4 13.8 16.9-6.6 3.1 8L96 407.7l-9.5-24.2 6.4-2.5 6.3 16.3 11.1-4.3-5.4-13.8 6.4-2.6zm-3.3-27.2c-1.6.6-2.7 1.5-3.3 2.7-.6 1.2-.9 3-1 5.4.2 4.8-.3 8.6-1.3 11.5-1 2.8-3.3 4.9-6.6 6.2-3.3 1.3-6.5 1.1-9.6-.5-3.1-1.6-5.3-4.4-6.8-8.2-1.5-3.9-1.6-7.5-.2-10.8 1.4-3.3 3.9-5.7 7.5-7h.2l3 7.7c-1.9.7-3.2 1.8-4 3.2-.8 1.4-.9 2.9-.2 4.6.6 1.6 1.6 2.6 2.9 3.1 1.3.5 2.7.5 4.1-.1 1.3-.5 2.3-1.4 2.7-2.8.5-1.3.8-3.4.9-6.3-.2-4.4.3-7.9 1.6-10.7 1.2-2.7 3.6-4.8 7-6.1 3.5-1.4 6.7-1.3 9.7.3 2.9 1.6 5.1 4.3 6.7 8.2 1.5 3.9 1.7 7.7.5 11.4s-3.9 6.4-8.1 7.9h-.2l-3-7.8c2.5-1 4.1-2.2 4.8-3.7.7-1.5.6-3.3-.2-5.5-.7-1.7-1.6-2.8-2.8-3.2-1.4-.1-2.8-.1-4.3.5z"/><path class="st6" d="M360.1 109.4l-2.5-.9 5.9-15.9-6.8-2.5-5.9 15.9-2.5-.9 6.6-17.8 11.8 4.4-6.6 17.7zm17.2-1c-.8 2.1-1.9 3.6-3.5 4.3-1.5.8-3.2.8-5 .1-1.8-.7-3-1.8-3.7-3.4-.6-1.6-.6-3.4.2-5.5l1.8-4.9c.8-2.1 1.9-3.5 3.4-4.3 1.5-.8 3.2-.9 5-.2 1.8.7 3.1 1.8 3.7 3.4.7 1.6.6 3.4-.2 5.5l-1.7 5zm-.6-5.8c.6-1.5.7-2.8.4-3.9-.3-1-1.1-1.8-2.2-2.2-1.1-.4-2.1-.3-3 .3s-1.6 1.6-2.2 3.2l-1.8 4.9c-.6 1.6-.7 2.9-.4 3.9.3 1 1 1.7 2.1 2.2 1.1.4 2.2.3 3.1-.2.9-.6 1.7-1.6 2.2-3.2l1.8-5zm12.9 17.6l-2.5-.9 5.9-15.9-6.8-2.5-5.9 15.9-2.5-.9 6.6-17.8 11.8 4.4-6.6 17.7zm8.5-4.8l-2.6 7-2.5-.9 6.6-17.8 5.8 2.2c1.7.6 2.8 1.6 3.4 2.9.6 1.3.6 2.8 0 4.4-.6 1.6-1.6 2.7-2.9 3.4-1.3.6-2.8.6-4.5 0l-3.3-1.2zm.7-1.9l3.4 1.2c.9.3 1.8.3 2.5-.2s1.3-1.2 1.6-2.2c.4-1 .4-1.9.2-2.8-.2-.8-.8-1.4-1.8-1.8l-3.4-1.2-2.5 7zm21.8 10.9c-.8 2.1-1.9 3.6-3.5 4.3-1.5.8-3.2.8-5 .1-1.8-.7-3-1.8-3.7-3.4-.6-1.6-.6-3.4.2-5.5l1.8-4.9c.8-2.1 1.9-3.6 3.4-4.3 1.5-.8 3.2-.9 5-.2 1.8.7 3.1 1.8 3.7 3.4s.6 3.4-.2 5.5l-1.7 5zm-.7-5.9c.6-1.5.7-2.8.4-3.9-.3-1-1.1-1.8-2.2-2.2-1.1-.4-2.1-.3-3 .3-.9.6-1.6 1.6-2.2 3.2l-1.8 4.9c-.6 1.6-.7 2.9-.4 3.9.3 1 1 1.7 2.1 2.2 1.1.4 2.2.3 3.1-.2.9-.6 1.7-1.6 2.2-3.2l1.8-5zm16.4.9l-7-2.6-2 5.4 3.1 1.2c1.7.6 2.8 1.6 3.4 2.9.6 1.3.6 2.7 0 4.3-.6 1.6-1.5 2.7-2.9 3.3-1.3.6-2.8.6-4.5 0l-5.6-2.1 6.6-17.8 9.5 3.5-.6 1.9zm-9.7 4.7l-2.5 6.8 3.1 1.2c1 .4 1.8.3 2.5-.2s1.3-1.2 1.7-2.2c.4-1 .4-1.8.1-2.6-.3-.8-.9-1.4-1.8-1.7l-3.1-1.3zm16.1 5.5l-.1 1.4h.1l7-8.9 2.7 1-10.7 12.9c-.9.9-1.7 1.6-2.4 1.9-.7.4-1.7.4-2.7 0-.2-.1-.4-.1-.6-.3l-.4-.2.7-1.8c.1 0 .2.1.4.2s.4.1.5.2c.5.2 1 .2 1.4-.1.4-.2.8-.7 1.3-1.2l.7-.8-.4-15.1 2.7 1-.2 9.8zm21.2-2.1l2.5.9-6.6 17.8-2.5-.9 4.8-13-.1-.1-11.5 10.5-2.5-.9 6.6-17.8 2.5.9-4.8 13 .1.1 11.5-10.5zm1.9-5.1c-.3 1.1-.9 1.7-1.8 2.1-.8.4-1.8.4-2.9 0-1.1-.4-1.8-1-2.2-1.8-.4-.8-.4-1.7 0-2.7l.1-.1 1.8.7c-.2.5-.2 1-.1 1.5.1.4.4.7 1 .9.5.2.9.2 1.3-.1.4-.3.7-.6.9-1.2l1.9.7zm-85.3 16.1l-7.8-2.9-2.4 6.6 9.2 3.4-1.3 3.6-13.7-5.1 8.6-23.2 13.7 5.1-1.3 3.6-9.1-3.4-2.4 5.8 7.8 2.9-1.3 3.6zm13.1-10l-7.2 19.6 5 1.8 7.2-19.6 4.5 1.7-7.2 19.6 4.9 1.8 7.2-19.6 4.5 1.7-7.3 19.6 2.9 1.1-3.7 9.1-4.2-1.6 2.1-5.6-21.9-8.1 8.6-23.2 4.6 1.7zm32.1 26.7l-7.8-2.9-2.4 6.6 9.2 3.4-1.3 3.6-13.7-5.1 8.6-23.2 13.7 5.1-1.3 3.6-9.1-3.4-2.1 5.8 7.8 2.9-1.6 3.6zm110.7 208.9l.9-2.5 16 5.7 2.5-6.9-16-5.7.9-2.5 17.8 6.4-4.3 11.8-17.8-6.3zm1.1 17.2c-2.1-.8-3.6-1.9-4.4-3.4-.8-1.5-.8-3.2-.2-5 .7-1.8 1.8-3 3.3-3.7 1.6-.6 3.4-.6 5.5.2l4.9 1.8c2.1.8 3.6 1.9 4.4 3.4.8 1.5.9 3.2.2 5-.7 1.8-1.8 3.1-3.4 3.8-1.6.7-3.4.6-5.5-.1l-4.8-2zm5.9-.7c1.6.6 2.8.7 3.9.3s1.7-1.1 2.2-2.2c.4-1.1.3-2.1-.3-3-.6-.9-1.7-1.6-3.2-2.2l-4.9-1.8c-1.6-.6-2.9-.7-3.9-.4-1 .3-1.7 1-2.1 2.1-.4 1.1-.3 2.2.3 3.1s1.7 1.6 3.2 2.2l4.8 1.9zm-17.6 13l.9-2.5 16 5.7 2.5-6.9-16-5.7.9-2.5 17.8 6.4-4.3 11.8-17.8-6.3zm4.9 8.5l-7.1-2.5.9-2.5 17.8 6.4-2.1 5.9c-.6 1.7-1.6 2.8-2.9 3.4-1.3.6-2.8.6-4.4 0-1.6-.6-2.8-1.5-3.4-2.8s-.7-2.8-.1-4.5l1.3-3.4zm1.9.7l-1.2 3.4c-.3.9-.3 1.8.2 2.5s1.2 1.3 2.2 1.6c1 .4 1.9.4 2.8.2.8-.2 1.4-.8 1.8-1.8l1.2-3.4-7-2.5zm-10.7 21.9c-2.1-.8-3.6-1.9-4.4-3.4-.8-1.5-.8-3.2-.2-5 .7-1.8 1.8-3 3.3-3.7 1.6-.6 3.4-.6 5.5.2l4.9 1.8c2.1.8 3.6 1.9 4.4 3.4.8 1.5.9 3.2.2 5-.7 1.8-1.8 3.1-3.4 3.8-1.6.7-3.4.6-5.5-.1l-4.8-2zm5.8-.7c1.6.6 2.8.7 3.9.3 1-.3 1.7-1.1 2.2-2.2.4-1.1.3-2.1-.3-3-.6-.9-1.7-1.6-3.2-2.2l-4.9-1.8c-1.6-.6-2.9-.7-3.9-.4-1 .3-1.7 1-2.1 2.1-.4 1.1-.3 2.2.3 3.1s1.7 1.6 3.2 2.2l4.8 1.9zm-.7 16.4l2.5-7.1-5.4-1.9-1.1 3.1c-.6 1.7-1.6 2.8-2.9 3.4-1.3.6-2.7.6-4.3.1-1.6-.6-2.7-1.5-3.4-2.8-.6-1.3-.6-2.8 0-4.5l2-5.6 17.8 6.4-3.4 9.6-1.8-.7zm-4.8-9.7l-6.8-2.4-1.1 3.1c-.3 1-.3 1.8.2 2.5s1.2 1.3 2.2 1.6c1 .3 1.8.4 2.6.1.8-.3 1.4-.9 1.7-1.8l1.2-3.1zm-5.3 16.1h-1.4v.1l8.9 6.9-1 2.7-12.8-10.6c-.9-.8-1.6-1.6-2-2.4-.4-.7-.4-1.6 0-2.7.1-.2.1-.4.3-.6l.2-.4 1.8.7c0 .1-.1.2-.2.4s-.1.4-.2.5c-.2.5-.2 1 .1 1.4.2.4.7.8 1.3 1.3l.8.7 15.1-.5-1 2.7-9.9-.2zm2.3 21.2l-.9 2.5-17.8-6.4.9-2.5 13 4.7.1-.1-10.6-11.5.9-2.5 17.8 6.4-.9 2.5-13-4.7-.1.1 10.6 11.5zm5 1.9c-1.1-.3-1.7-.9-2.1-1.7-.4-.8-.4-1.8 0-2.9.4-1.1 1-1.8 1.8-2.2.8-.4 1.7-.4 2.7 0l.1.1-.7 1.9c-.5-.2-1-.2-1.5-.1-.4.1-.7.5-.9 1-.2.5-.1.9.1 1.3.3.4.6.7 1.2.9l-.7 1.7zm-16.7-85.2l2.8-7.8-6.6-2.4-3.3 9.2-3.6-1.3 5-13.8 23.3 8.4-4.9 13.7-3.6-1.3 3.3-9.2-5.8-2.1-2.8 7.8-3.8-1.2zm10.1 13l-19.7-7.1-1.8 5 19.7 7.1-1.6 4.5-19.7-7.1-1.8 4.9 19.7 7.1-1.6 4.6-19.7-7.1-1.1 2.9-9.1-3.6 1.5-4.2 5.6 2 7.9-22 23.3 8.4-1.6 4.6zm-26.5 32.4l2.8-7.8-6.6-2.4-3.3 9.2-3.6-1.3 5-13.8 23.3 8.4-4.9 13.7-3.6-1.3 3.3-9.2-5.8-2.1-2.8 7.8-3.8-1.2zM282.9 541.6l2.5.9-5.9 15.9 6.8 2.5 5.9-15.9 2.5.9-6.6 17.8-11.8-4.4 6.6-17.7zm-17.1 1c.8-2.1 1.9-3.6 3.5-4.3 1.5-.8 3.2-.8 5-.1 1.8.7 3 1.8 3.7 3.4.6 1.6.6 3.4-.2 5.5L276 552c-.8 2.1-1.9 3.5-3.4 4.3-1.5.8-3.2.9-5 .2-1.8-.7-3.1-1.8-3.7-3.4-.7-1.6-.6-3.4.2-5.5l1.7-5zm.6 5.8c-.6 1.5-.7 2.8-.4 3.9s1 1.8 2.2 2.2c1.1.4 2.1.3 3-.3.9-.6 1.6-1.6 2.2-3.2l1.8-4.9c.6-1.6.7-2.9.4-3.9-.3-1-1-1.7-2.1-2.2-1.1-.4-2.2-.3-3.1.2-.9.6-1.7 1.6-2.2 3.2l-1.8 5zm-12.9-17.7l2.5.9-5.9 15.9 6.8 2.5 5.9-15.9 2.5.9-6.6 17.8-11.8-4.4 6.6-17.7zm-8.5 4.9l2.6-7 2.5.9-6.6 17.8-5.8-2.2c-1.7-.6-2.8-1.6-3.4-2.9-.6-1.3-.6-2.8 0-4.4.6-1.6 1.6-2.7 2.9-3.4 1.3-.6 2.8-.6 4.5 0l3.3 1.2zm-.7 1.9l-3.4-1.2c-.9-.3-1.8-.3-2.5.2s-1.3 1.2-1.6 2.2c-.4 1-.4 1.9-.2 2.8.2.8.8 1.4 1.8 1.8l3.4 1.2 2.5-7zm-21.8-10.9c.8-2.1 1.9-3.6 3.5-4.3 1.5-.8 3.2-.8 5-.1 1.8.7 3 1.8 3.7 3.4.6 1.6.6 3.4-.2 5.5l-1.8 4.9c-.8 2.1-1.9 3.5-3.4 4.3-1.5.8-3.2.9-5 .2-1.8-.7-3.1-1.8-3.7-3.4-.7-1.6-.6-3.4.2-5.5l1.7-5zm.7 5.8c-.6 1.5-.7 2.8-.4 3.9.3 1 1 1.8 2.2 2.2 1.1.4 2.1.3 3-.3.9-.6 1.6-1.6 2.2-3.2l1.8-4.9c.6-1.6.7-2.9.4-3.9-.3-1-1-1.7-2.1-2.2-1.1-.4-2.2-.3-3.1.2-.9.6-1.7 1.6-2.2 3.2l-1.8 5zm-16.4-.9l7 2.6 2-5.4-3.1-1.2c-1.7-.6-2.8-1.6-3.4-2.9-.6-1.3-.6-2.7 0-4.3.6-1.6 1.5-2.7 2.9-3.3 1.3-.6 2.8-.6 4.5 0l5.6 2.1-6.6 17.8-9.5-3.5.6-1.9zm9.7-4.6l2.5-6.8-3.1-1.2c-1-.4-1.8-.3-2.5.2s-1.3 1.2-1.7 2.2c-.4 1-.4 1.8-.1 2.6.3.8.9 1.4 1.8 1.7l3.1 1.3zm-16.1-5.6l.1-1.4h-.1l-7 8.9-2.7-1 10.7-12.8c.9-.9 1.7-1.6 2.4-1.9.7-.4 1.7-.4 2.7 0 .2.1.4.1.6.3l.4.2-.7 1.8c-.1 0-.2-.1-.4-.2s-.4-.1-.5-.2c-.5-.2-1-.2-1.4.1s-.8.7-1.3 1.2l-.7.8.4 15.1-2.7-1 .2-9.9zm-21.2 2.2l-2.5-.9 6.6-17.8 2.5.9-4.8 13 .1.1 11.5-10.5 2.5.9-6.6 17.8-2.5-1 4.8-13-.1-.1-11.5 10.6zm-1.9 5c.3-1.1.9-1.7 1.8-2.1.8-.4 1.8-.4 2.9 0 1.1.4 1.8 1 2.2 1.8.4.8.4 1.7 0 2.7l-.1.1-1.8-.7c.2-.5.2-1 .1-1.5-.1-.4-.4-.7-1-.9-.5-.2-.9-.2-1.3.1s-.7.6-.9 1.2l-1.9-.7zm85.3-16l7.8 2.9 2.4-6.6-9.2-3.4 1.3-3.6 13.7 5.1-8.6 23.2-13.7-5.1 1.3-3.6 9.1 3.4 2.1-5.8-7.8-2.9 1.6-3.6zm-13.1 10l7.3-19.6-5-1.8-7.3 19.6-4.5-1.7 7.3-19.6-4.9-1.8-7.3 19.6-4.5-1.7 7.3-19.6-2.9-1.1 3.7-9.1 4.2 1.6-2.1 5.6 21.9 8.1-8.6 23.2-4.6-1.7zm-32.1-26.7l7.8 2.9 2.4-6.6-9.2-3.4 1.3-3.6 13.7 5.1-8.6 23.2-13.7-5.1 1.3-3.6 9.1 3.4 2.1-5.8-7.8-2.9 1.6-3.6zm-108-207l-.9 2.5-16-5.7-2.5 6.9 16 5.7-.9 2.5-17.8-6.4 4.3-11.8 17.8 6.3zm-1.2-17.2c2.1.8 3.6 1.9 4.4 3.4.8 1.5.8 3.2.2 5-.7 1.8-1.8 3-3.3 3.7-1.6.6-3.4.6-5.5-.2l-4.9-1.8c-2.1-.8-3.6-1.9-4.4-3.4-.8-1.5-.9-3.2-.2-5 .7-1.8 1.8-3.1 3.4-3.8 1.6-.7 3.4-.6 5.5.1l4.8 2zm-5.8.7c-1.6-.6-2.8-.7-3.9-.3-1 .3-1.7 1.1-2.2 2.2-.4 1.1-.3 2.1.3 3 .6.9 1.7 1.6 3.2 2.2l4.9 1.8c1.6.6 2.9.7 3.9.4 1-.3 1.7-1 2.1-2.1.4-1.1.3-2.2-.3-3.1-.6-.9-1.7-1.6-3.2-2.2l-4.8-1.9zm17.6-13l-.9 2.5-16-5.7-2.5 6.9 16 5.7-.9 2.5-17.8-6.4 4.3-11.8 17.8 6.3zm-4.9-8.5l7.1 2.5-.9 2.5-17.8-6.4 2.1-5.9c.6-1.7 1.6-2.8 2.9-3.4 1.3-.6 2.8-.6 4.4 0 1.6.6 2.8 1.5 3.4 2.8.6 1.3.7 2.8.1 4.5l-1.3 3.4zm-1.9-.7l1.2-3.4c.3-.9.3-1.8-.2-2.5s-1.2-1.3-2.2-1.6c-1-.4-1.9-.4-2.8-.2-.8.2-1.4.8-1.8 1.8l-1.2 3.4 7 2.5zm10.7-21.9c2.1.8 3.6 1.9 4.4 3.4.8 1.5.8 3.2.2 5-.7 1.8-1.8 3-3.3 3.7-1.6.6-3.4.6-5.5-.2l-4.9-1.8c-2.1-.8-3.6-1.9-4.4-3.4-.8-1.5-.9-3.2-.2-5 .7-1.8 1.8-3.1 3.4-3.8 1.6-.7 3.4-.6 5.5.1l4.8 2zm-5.9.7c-1.6-.6-2.8-.7-3.9-.3-1 .3-1.7 1.1-2.2 2.2-.4 1.1-.3 2.1.3 3 .6.9 1.7 1.6 3.2 2.2l4.9 1.8c1.6.6 2.9.7 3.9.4 1-.3 1.7-1 2.1-2.1.4-1.1.3-2.2-.3-3.1-.6-.9-1.7-1.6-3.2-2.2l-4.8-1.9zm.8-16.4l-2.5 7.1 5.4 1.9 1.1-3.1c.6-1.7 1.6-2.8 2.9-3.4 1.3-.6 2.7-.6 4.3-.1 1.6.6 2.7 1.5 3.4 2.8.6 1.3.6 2.8 0 4.5l-2 5.6-17.8-6.4 3.4-9.6 1.8.7zm4.7 9.7l6.8 2.4 1.1-3.1c.3-1 .3-1.8-.2-2.5s-1.2-1.3-2.2-1.6c-1-.3-1.8-.4-2.6-.1-.8.3-1.4.9-1.7 1.8l-1.2 3.1zm5.4-16.1h1.4v-.1l-8.9-6.9 1-2.7 12.8 10.6c.9.8 1.6 1.6 2 2.4.4.7.4 1.6 0 2.7-.1.2-.1.4-.3.6l-.2.4-1.8-.7c0-.1.1-.2.2-.4s.1-.4.2-.5c.2-.5.2-1-.1-1.4s-.7-.8-1.3-1.3l-.8-.7-15.1.5 1-2.7 9.9.2zm-7.4-23.1c1.1.3 1.7.9 2.1 1.7.4.8.4 1.8 0 2.9-.4 1.1-1 1.8-1.8 2.2-.8.4-1.7.4-2.7 0l-.1-.1.7-1.9c.5.2 1 .2 1.5.1.4-.1.7-.5.9-1 .2-.5.1-.9-.1-1.3-.3-.4-.7-.7-1.2-.9l.7-1.7zm5.1 1.9l.9-2.5 17.8 6.4-.9 2.5-13-4.7-.1.1 10.6 11.5-.9 2.5-17.8-6.4.9-2.5 13 4.7.1-.1-10.6-11.5zm11.7 83.3l-2.8 7.8 6.6 2.4 3.3-9.2 3.6 1.3-5 13.8-23.3-8.4 4.9-13.7 3.6 1.3-3.3 9.2 5.8 2.1 2.8-7.8 3.8 1.2zm-10.1-13l19.7 7.1 1.8-5-19.7-7.1 1.6-4.5 19.7 7.1 1.8-4.9-19.7-7.1 1.6-4.6 19.7 7.1 1.1-2.9 9.1 3.6-1.5 4.2-5.6-2-7.9 22-23.3-8.4 1.6-4.6zm26.4-32.4l-2.8 7.8 6.6 2.4 3.3-9.2 3.6 1.3-5 13.8-23.3-8.4 4.9-13.7 3.6 1.3-3.3 9.2 5.8 2.1 2.8-7.8 3.8 1.2z"/></svg>