<svg id="logo-onlinecasinogamesnow" xmlns="http://www.w3.org/2000/svg" viewBox="0 0 200 118"><style>.st1{fill:#aeb6aa}.st2{fill:#e6e9ea}.st3{fill:#ffa233}</style><path id="plashka" d="M2 17v71l13 11 39-9 45.3 24.7L147 90l32.3 9L193 88.3l5.3-23.3H190V43.7l8-2.7-4.3-23.3L168 17l.3-13H32.7L32 17H2z" stroke="#cb6d28" stroke-width="2" stroke-miterlimit="10"/><g id="triangles"><path class="st1" d="M55 75.4L14.9 89.3l2.1 6.5-9.7-7.5L55 75.4zm132 11.9l-9.7 7.5 2.1-5.5-40.1-13.9L187 87.3z"/><path id="triangles_1_" class="st1" d="M101 108.8L73.8 89.2l27.2 15v4.6z"/><path id="triangles2" class="st2" d="M73.8 89.2l27.2 15 15.5-9.4L101 102 73.8 89.2z"/><path class="st2" d="M101 98.8l-9.1-6.9h17.2l-8.1 3.2v3.7z"/></g><g id="Text"><text transform="translate(50.85 21.5)" class="st3" font-size="12" font-family="NirmalaUI-Bold">ONLINE CASINO</text><text transform="translate(80.104 88.75)" class="st3" font-size="18" font-family="MoolBoran">NOW</text><path d="M36.8 71.2c-3.6 2.7-8.1 3.4-13.5 3.4-6 0-9.5.1-17.2 0-.1-5.5-.1-13.8.1-22.3.1-9.7.4-19.8.6-26.7h28.4c0 5.3-4.3 9.5-9.6 9.3h-.9c-3.5 0-6.3 1.4-8.5 4.3s-3.3 6.7-3.3 11.6v.8c.1 4.5 1.1 8 2.9 10.6 2 2.7 4.6 4 7.9 4 2 0 3.6-.4 4.8-1.1v-9.3H21v-8.6h15.8v24zm39.8 2.2h-9.1l-2.6-10.6H51.7l-2.6 10.6H40l13.5-47.6h9.9l13.2 47.6zM63 54.6l-4-16c-.3-1.2-.5-2.6-.6-4.3h-.2c-.1 1.4-.3 2.8-.6 4.2l-4 16.1H63zm59.6 17.8h-8.3V43.9c0-3.1.1-6.5.3-10.2h-.2c-.4 2.9-.8 5-1.2 6.3l-8.7 32.4h-6.8l-8.9-32.1c-.2-.9-.6-3.1-1.2-6.6h-.2c.2 4.7.3 8.8.3 12.4v26.3h-7.5V24.8h12.2L100 53c.6 2.3 1 4.5 1.3 6.8h.2c.5-2.6 1-4.9 1.5-6.9l7.6-28.2h11.9l.1 47.7zm31.7 1H132V25.8h21.4v8.7h-13v10.6h12.1v8.7h-12.1v10.9h13.9v8.7zm6.2-.8V62c1.5 1.6 3.1 2.8 4.9 3.6 1.8.8 3.5 1.2 5.3 1.2 1.1 0 2-.1 2.8-.4.8-.2 1.4-.6 2-1 .5-.4.9-.9 1.2-1.5s.4-1.2.4-1.9c0-.9-.2-1.8-.6-2.5s-1-1.4-1.7-2-1.6-1.2-2.6-1.8-2-1.2-3.2-1.8c-2.9-1.5-5.1-3.4-6.5-5.7-1.4-2.2-2.1-4.9-2.1-8.1 0-2.5.4-4.6 1.2-6.4.8-1.8 1.8-3.2 3.2-4.4s2.9-2 4.6-2.5c1.8-.5 3.6-.8 5.6-.8 1.9 0 3.6.1 5.1.4 1.5.3 2.9.8 4.1 1.4v9.9c-.6-.6-1.3-1-2-1.5-.7-.4-1.5-.8-2.3-1-.8-.3-1.5-.5-2.3-.6s-1.5-.2-2.2-.2c-.9 0-1.8.1-2.6.3s-1.4.6-2 1-.9.9-1.2 1.5-.4 1.2-.4 2 .2 1.5.5 2.1.8 1.2 1.4 1.8c.6.6 1.3 1.1 2.2 1.7.9.5 1.8 1.1 2.9 1.7 1.5.8 2.8 1.6 4 2.5s2.2 1.9 3 3 1.5 2.4 1.9 3.9.7 3.1.7 5.1c0 2.7-.4 4.9-1.2 6.7s-1.8 3.3-3.2 4.4c-1.3 1.1-2.9 1.9-4.7 2.4s-3.7.7-5.7.7-4-.2-5.8-.7-3.3-1-4.7-1.9z" fill="#606061" stroke="#fff" stroke-width="2" stroke-miterlimit="10"/></g></svg>