<svg id="logo-onlinecasinogamesnow" xmlns="http://www.w3.org/2000/svg" viewBox="0 0 200 244"><style>.st1{fill:#aeb6aa}.st2{fill:#e6e9ea}.st3{fill:#ffa233}.st8{fill:#606061;stroke:#fff;stroke-width:2;stroke-miterlimit:10}.st11{fill:none}.st12{fill:#010101}.st13{fill:#f3bd6d}</style><path stroke="#cb6d28" stroke-width="2" stroke-miterlimit="10" d="M2 143v71l13 11 39-9 45.3 24.7L147 216l32.3 9 13.7-10.7 5.3-23.3H190v-21.3l8-2.7-4.3-23.3-25.7-.7.3-19.3-42.6-25H77l-44.3 25L32 143z" id="plashka"/><g id="triangles"><path class="st1" d="M55 201.4l-40.1 13.9 2.1 6.5-9.7-7.5zm132 11.9l-9.7 7.5 2.1-5.5-40.1-13.9z"/><path id="triangles_1_" class="st1" d="M101 234.8l-27.2-19.6 27.2 15z"/><path id="triangles2" class="st2" d="M73.8 215.2l27.2 15 15.5-9.4L101 228z"/><path class="st2" d="M101 224.8l-9.1-6.9h17.2l-8.1 3.2z"/></g><g id="Text"><text transform="translate(50.85 147.5)" class="st3" font-size="12" font-family="NirmalaUI-Bold">ONLINE CASINO</text><text transform="translate(80.104 214.75)" class="st3" font-size="18" font-family="MoolBoran">NOW</text><path class="st8" d="M36.8 197.2c-3.6 2.7-8.1 3.4-13.5 3.4-6 0-9.5.1-17.2 0-.1-5.5-.1-13.8.1-22.3.1-9.7.4-19.8.6-26.7h28.4c0 5.3-4.3 9.5-9.6 9.3h-.9c-3.5 0-6.3 1.4-8.5 4.3s-3.3 6.7-3.3 11.6v.8c.1 4.5 1.1 8 2.9 10.6 2 2.7 4.6 4 7.9 4 2 0 3.6-.4 4.8-1.1v-9.3H21v-8.6h15.8v24zm39.8 2.2h-9.1l-2.6-10.6H51.7l-2.6 10.6H40l13.5-47.6h9.9l13.2 47.6zM63 180.6l-4-16c-.3-1.2-.5-2.6-.6-4.3h-.2c-.1 1.4-.3 2.8-.6 4.2l-4 16.1H63zm59.6 17.8h-8.3v-28.5c0-3.1.1-6.5.3-10.2h-.2c-.4 2.9-.8 5-1.2 6.3l-8.7 32.4h-6.8l-8.9-32.1c-.2-.9-.6-3.1-1.2-6.6h-.2c.2 4.7.3 8.8.3 12.4v26.3h-7.5v-47.6h12.2L100 179c.6 2.3 1 4.5 1.3 6.8h.2c.5-2.6 1-4.9 1.5-6.9l7.6-28.2h11.9l.1 47.7zm31.7 1H132v-47.6h21.4v8.7h-13v10.6h12.1v8.7h-12.1v10.9h13.9v8.7zm6.2-.8V188c1.5 1.6 3.1 2.8 4.9 3.6 1.8.8 3.5 1.2 5.3 1.2 1.1 0 2-.1 2.8-.4.8-.2 1.4-.6 2-1 .5-.4.9-.9 1.2-1.5s.4-1.2.4-1.9c0-.9-.2-1.8-.6-2.5s-1-1.4-1.7-2-1.6-1.2-2.6-1.8-2-1.2-3.2-1.8c-2.9-1.5-5.1-3.4-6.5-5.7-1.4-2.2-2.1-4.9-2.1-8.1 0-2.5.4-4.6 1.2-6.4.8-1.8 1.8-3.2 3.2-4.4s2.9-2 4.6-2.5c1.8-.5 3.6-.8 5.6-.8 1.9 0 3.6.1 5.1.4 1.5.3 2.9.8 4.1 1.4v9.9c-.6-.6-1.3-1-2-1.5-.7-.4-1.5-.8-2.3-1-.8-.3-1.5-.5-2.3-.6s-1.5-.2-2.2-.2c-.9 0-1.8.1-2.6.3s-1.4.6-2 1-.9.9-1.2 1.5-.4 1.2-.4 2 .2 1.5.5 2.1.8 1.2 1.4 1.8c.6.6 1.3 1.1 2.2 1.7.9.5 1.8 1.1 2.9 1.7 1.5.8 2.8 1.6 4 2.5s2.2 1.9 3 3 1.5 2.4 1.9 3.9.7 3.1.7 5.1c0 2.7-.4 4.9-1.2 6.7s-1.8 3.3-3.2 4.4c-1.3 1.1-2.9 1.9-4.7 2.4s-3.7.7-5.7.7-4-.2-5.8-.7-3.3-1-4.7-1.9z"/></g><g id="Fist"><path d="M80.9 136.5s3.1-13.5-1.4-27.3c-.5-1.4-6.5-19-6.8-22.5s.3-5 .3-9.3.3-3 1-6.5.8-4.8-.8-8.5-3-2.8-2-6.5 1-3.8 1.8-5 .8 1.5 2 2.9 1.4 1.6 2.1 1.4.1-.3 1.3-3.5.1-2.6 3.6-5.9 4.3-2.6 5.4-6.1 1.8-3.4.6-5.8-2.6-3.6 0-2.5 4.3 2.9 4.6 5-1.1 5.6-.1 7.4 1.1 3 3.5 2.6 4.1.3 4.6-2.6 1.1-2-.4-6.4-2-8.6-2-8.6c.1-6-.8-6.9 3.9-11.3s4.9-2.9 6.9-6.5 2.4-.1 2.9-5c.4-3.6.1-7.1 1.5-4.1s2.3 6.8 1.5 8.9-2.1 4.4-3.5 7.6-3.4 1.3-3.3 5.6-1.6 4.5.9 5.9 2.4 3.5 4.9 1.1 4.8-2.3 3.9-5.4-1.5-3.8.8-2.8 4.3 1.3 4.5 4.4-.6 3.8-1.5 6.8-2.6 2.5-1.6 6.1 3.4 7.6 6.8 9.3 4.6 1.4 6.6 3.9 3.5 3 3.1 7.8-1.9 7.1-1.1 10.5 4.5 9.1 3.9 12.4-3 7-5.8 10.5-2.8 3.9-6 7.6-4.3 2.6-4.9 8.6.4 11.5 1.8 16.6c1.4 5.1 2.6 7.9 3 9.3s-46.5-.1-46.5-.1z" fill="#e05826"/><path d="M81.8 136.8c2.8.3.8-22.8 0-26.6-.8-3.5-6.1-18.6-6.8-21.8s-.4-11.6.3-14.3 1.5-2.9 2.1-5.4-.9-3.4-2.1-5.5c-2.4-4.1-1.9-5.5-1.5-7.1.4-1.7-.3 1.1 1.8 3s1.9 2.4 3.9 2.5 1.4-2 .8-4.6 0-.8 1.6-4.4.5-3.6 2.8-5.8 5.9-6.8 5.8-8.1c-.3-2.6-2.5 6.3-.1 8s1.6 4 5.5 3.6 5.1.4 7-2.8 3.4-1.6 2.6-5.5-1.5-5.4-2.4-8.8-2.3-3.8-1.5-7-.3-2.1 2.6-5.5 4-4.9 4-4.9c-1.4 3.5.6-1.6-1.6 4.4s-3.1 5-2.5 7.9.1 4 2.5 4.9.1 2.5 4.5 2.4 5.4.3 6.5-1.6-1.4 0-1.4 3.8-.1 3.9 1.3 6.4 1.9 5.4 6.9 8.1c5 2.7 5.4 1.4 7 3.5s3.8 5.5 3.1 7.8c-.9 3.1-4.3 7.7-2.3 8.8 2.3 1.1.8.6 1.9 3.6s2.6 4.8 2.1 7.3-3.3 7.4-4.3 8.8-8.1 8.8-9.5 11.5-2.5 5.8-2.5 5.8c.1 4 1.6 15.4 2.5 18.8.9 3.4 3 8.9 3 8.9.5.7-43.6-.1-43.6-.1z" fill="#faa61b"/><path class="st11" d="M123.1 136.5zM89.9 67.4c-.5-1.6-1.7-2.2-3.3-2.4-1.7-.1-3.2.4-3.8 2-.8 2.1-1.3 4.4-1.6 6.7-.2 1.3.8 2.3 2.1 3.1-.2-1.4-.4-2.6-.6-3.7.1 0 .1-.1.2-.1.5 1.1 1 2.2 1.6 3.2.6.9 1.4 1.7 2.2 2.3 1.3 1 2.7.6 3.9-.2 1.2-.8 1.6-2 1.3-3.3-.5-2.4-1.2-5-2-7.6z"/><path class="st11" d="M117.1 124.8c-.1-.8-4.6-13.2-5.1-13.7-.4-.4-10.7-2.9-11.4-3.1.1-.1 11.4-2.2 11.6-2.4 5.8-4.9 11-10.4 15.8-16.3 1.3-1.7 2.4-3.6 2.4-5.8-.1-4.6 0-9.2-.6-13.8-.6-4.5-2.5-5.9-6.9-4.9-1.6.3-3.1.5-4.7.8.1.1.2.2.4.3-.3.8-.4 1.9-1 2.3-1.8 1.4-4 1.2-5.5-.1-.1-.1-.2-.1-.2-.2-.5-.5-.9-1.2-1.1-2-.1-.2-.2-.3-.2-.5-1.4 1.8-.8 5.2 1.2 6.7 3.1 2.4 6.5 3.4 10.3 1.4-.6.6-1.2 1-1.8 1.5-1.1.8-1.1 1.5-.1 2.5.3.3.7.6 1.1.9 1.3.8 2.7 1.7 4.1 2.6-1.9 0-3.3-1.5-5-1.3-.1.1-.1.3-.2.4.9.8 1.8 1.7 2.7 2.5l-.1.1c-1.1-.6-2.1-1.2-3.2-1.7-.1.1-.3.2-.4.4.5 1 .9 2 1.2 2.6-.2.7-.3 1-.4 1.4-.2-.4-.4-.8-.6-1.3-.7-1.9-1.3-3.8-2-5.7-.6-1.7-1.5-2.2-3.2-1.6-1.3.4-2.6 1-3.7 1.7-5.5 3.7-9.3 8.6-11 15.1-.1.4-.3.9-.4 1.3-.1-5.5 2.1-10.1 5.4-14.3-3 .2-4.9 2-6.2 4.2-1.3 2.2-2.2 4.6-3.2 6.9.1-.7.1-1.5.3-2.2.6-1.8 1.3-3.5 2-5.3.1-.3.1-.7.1-1.1-.4 0-1-.2-1.3 0-.4.2-.8.6-1.1.9-.5.5-1 1.1-1.5 1.7l-.2-.2c.5-.7 1-1.5 1.4-2.1-2.4.1-4.8.4-7.1.1-2.3-.3-4.6-.9-6.7-2.3.8 0 1.5.2 2.2.4.7.2 1.5.4 2.4.6-1.1-3-3.8-5.8-6-5.8.8.9 1.4 1.6 2 2.4-2.1-.2-2.5 0-2.4 1.3.1 1 .7 2 1.1 3-.1 0-.3.1-.8.2.7.9 1.2 1.7 1.6 2.2-.4.8-1.1 1.5-1.1 2.1.2 3.4.3 6.8 3.1 9.4-.3.2-.5.3-.8.4.4 2.1 2.1 2.9 3.9 3.8-.7.3-1.2.4-1.7.6.3 1.8 1.1 3.1 2.8 3.8 1.5.6 3 1.2 4.6 1.7 1.9.6 3.9.9 5.8 1.4-3.7.4-6.5-.2-9.9-1-.8 4.4 0 25-1.5 28.7 0 0 15 .1 26 .2 5 0 9.2.1 10.7.1-1.4-1.5-3.2-6.4-5.9-11.9z"/><path class="st11" d="M96.2 81.1c1 .2 1.9.3 2.8.5.1-.1.1-.3.1-.4l-2.7-.6c-.1.1-.2.3-.2.5zm16.5-12.6c1.4.6 4.1-.1 4.8-1 .6-.8.3-1.8-.7-1.9-1.8-.2-3.6-.2-5.5-.4 0 1.1 0 2.1.6 2.7l.2.2c.1.2.3.3.6.4zm-20 14c.8-.3 1.2-.4 1.8-.7-.4-.7-.7-1.3-1.2-2.1-.1 1-.3 1.7-.6 2.8zm17.4-21.7c-1.1-2.2-3-3-5.4-2.6-2.3.4-3.8 1.9-4.1 4.2-.1.6-.1 1.3-.2 2-.1 0-.2.1-.3.1.8 3.3 1.6 6.6 2.6 9.8.5 1.5 2.2 2.2 4.3 2 1.8-.1 3.2-1 3.9-2.6.1-.3-.2-.8-.5-1.2-1.6-1.9-1.8-4-.9-6.3.2-.4.5-.9.9-1.1.8-.3.9-.9.7-1.6-.3-.9-.6-1.9-1-2.7z"/><path class="st11" d="M119.3 56.9c-3.5-1.7-7.5.8-7.6 4.7 0 4-.2 3.3 3.3 3.3 2 0 3.9-.2 5.9-.3 1-.1 1.8-.4 1.8-1.7.1.2.2.5.4.6.2.2.5.2.7.3.1-.3.3-.6.2-.8-.9-2.5-2.1-4.9-4.7-6.1zm-20.6 6.7c-.8-2.3-2.5-2.8-5-2.2-2.2.6-3.4 2.1-3.3 4.8.7 3 1.3 6.6 3.2 9.6 1.5 2.5 4.4 3 6.6 1.1.7-.6 1.3-1.9 1.2-2.7-.8-3.6-1.6-7.1-2.7-10.6zM102 79c.7-.2 1.1-.3 1.8-.5-.5-.5-.8-.9-1.4-1.5-.1.8-.2 1.3-.4 2z"/><path class="st12" d="M112.1 68.2c-.1-.1-.2-.1-.2-.2l.2.2zm.3 68.2c5 0 9.2.1 10.7.1-1.5 0-5.6-.1-10.7-.1z"/><g id="XMLID_1_"><path class="st12" d="M123.3 135.6c-.1 0-.1-.1-.2-.1h.6-.6c-1.5-1.3-3.3-6.2-6.1-11.7-.1-.8-4.6-13.2-5.1-13.7-.4-.4-10.7-2.8-11.4-3.1.1-.1 11.4-2.3 11.6-2.3 5.8-4.9 11-10.4 15.8-16.3 1.4-1.7 2.4-3.6 2.4-5.8-.1-4.6 0-9.3-.6-13.8s-2.5-5.9-6.9-4.9c-1.6.3-3.2.5-4.7.8.1.1.2.2.4.3-.3.8-.4 1.9-1 2.3-1.8 1.4-4 1.2-5.5-.1.2.1.3.3.6.3 1.4.6 4.1-.1 4.8-1 .6-.8.3-1.8-.7-1.9-1.3-.1-2.7-.2-4.1-.3v-.4h2.3c2 0 3.9-.2 5.9-.3 1 0 1.8-.4 1.9-1.7.1.2.2.5.4.6.2.2.5.2.7.3.1-.3.3-.6.2-.8-.3-.6-.5-1.3-.8-1.9l.4-.2c.2.5.5 1 .7 1.5.2.4.7.9 1.2 1 3 .5 4 1.5 4.7 4.4 1.2 5.2 1.6 10.4 1.3 15.6-.1 2.5-.8 4.9-2.4 7-3.5 4.5-7 9.1-10.6 13.7-1.1 1.4-1.8 2.9-1.8 4.7l7.7 27.7c-.3.4-.7.4-1.1.1z"/><path class="st13" d="M130.4 82.6c0 2.2-1.1 4.1-2.4 5.8-4.8 5.9-9.9 11.4-15.8 16.3-.1.1-11.4 2.3-11.6 2.3l-2.8.5c-1.9-.4-3.9-.8-5.8-1.4-1.5-.4-3.1-1.1-4.6-1.7-1.7-.7-2.5-2-2.8-3.8.5-.2 1-.4 1.7-.6-1.8-.9-3.5-1.7-3.9-3.8.2-.1.5-.2.8-.4-2.8-2.6-3-6-3.1-9.4 0-.6.6-1.3 1.1-2.1-.3-.5-.9-1.3-1.6-2.2.5-.1.8-.2.8-.2-.4-1-1-2-1.1-3-.2-1.3.3-1.5 2.3-1.3-.6-.7-1.2-1.4-1.9-2.4 2.2 0 5 2.8 6 5.8-.8-.2-1.6-.4-2.3-.6-.7-.2-1.5-.4-2.3-.4 2 1.4 4.4 2 6.7 2.3 2.3.3 4.7-.1 7.1-.1-.4.6-.9 1.3-1.4 2.1l.2.2c.5-.6.9-1.1 1.5-1.7.3-.3.7-.7 1.1-.9.4-.1.9 0 1.3 0 0 .4 0 .8-.1 1.1-.6 1.8-1.4 3.5-1.9 5.3-.2.7-.2 1.5-.3 2.2 1-2.3 1.9-4.7 3.2-6.9 1.3-2.3 3.2-4 6.2-4.2-3.3 4.2-5.6 8.8-5.4 14.3.1-.5.3-.9.4-1.3 1.7-6.5 5.5-11.5 11-15.1 1.1-.7 2.4-1.3 3.7-1.7 1.7-.5 2.6 0 3.2 1.6.7 1.9 1.3 3.8 2 5.7.2.4.4.9.6 1.3.1-.4.2-.7.5-1.4-.3-.7-.7-1.6-1.2-2.6.1-.1.3-.2.4-.4 1 .6 2.1 1.2 3.2 1.7l.1-.1c-.9-.8-1.8-1.7-2.7-2.5.1-.1.1-.3.2-.4 1.7-.2 3.1 1.3 5 1.3-1.5-.9-2.8-1.7-4.1-2.6-.4-.3-.8-.5-1.1-.9-1-.9-1-1.6.1-2.5.6-.5 1.2-.9 1.8-1.5-3.8 2-7.2 1-10.3-1.4-2.1-1.6-2.7-4.9-1.3-6.7.1.2.2.3.2.5.2.8.6 1.5 1.2 2-.5-.7-.6-1.6-.6-2.7.5 0 .9.1 1.4.1 1.4.1 2.7.1 4.1.3 1 .1 1.3 1 .7 1.9-.7 1-3.4 1.6-4.8 1l-.6-.3c1.5 1.3 3.7 1.5 5.5.1.6-.4.7-1.5 1-2.3-.1-.1-.3-.2-.4-.3 1.6-.2 3.2-.4 4.7-.8 4.4-.9 6.3.4 6.9 4.9.2 4.7.2 9.4.3 14z"/><path class="st13" d="M124.1 62c.1.2-.1.5-.2.8-.3-.1-.6-.2-.7-.3-.2-.1-.2-.4-.4-.6-.1 1.3-.8 1.7-1.9 1.7-2 .1-3.9.3-5.9.3-1.1 0-1.9.1-2.3 0-1-.1-.9-.6-.9-3.3 0-3.9 4.1-6.4 7.5-4.7 2 .9 3.1 2.5 4 4.3.3.6.6 1.2.8 1.8zm-.3 73.5h-.6c.1 0 .1.1.2.1h-1.3c-12-.1-35.5-.4-35.5-.4 1.5-3.7.7-24.2 1.5-28.7 3.4.8 6.2 1.4 9.9 1l2.8-.5c.7.2 11 2.6 11.4 3.1s5 12.9 5.1 13.7c2.8 5.5 4.6 10.5 6.1 11.7h.4z"/><path class="st12" d="M123.7 60l-.4.2c-.9-1.8-2-3.4-4-4.3-3.5-1.7-7.5.8-7.5 4.7 0 2.7-.1 3.3.9 3.3v.4c-.5 0-.9-.1-1.4-.1 0 1.1 0 2.1.6 2.7-.5-.5-.9-1.2-1.2-2 0-.2-.2-.3-.2-.5-1.4 1.8-.8 5.2 1.3 6.7 3.1 2.4 6.5 3.4 10.3 1.4-.6.6-1.2 1-1.8 1.5-1.1.8-1.1 1.5-.1 2.5.3.4.7.6 1.1.9 1.3.8 2.7 1.7 4.1 2.6-1.9 0-3.3-1.5-5-1.3-.1.1-.1.3-.2.4.9.8 1.8 1.7 2.7 2.5l-.1.1c-1-.6-2.1-1.2-3.2-1.7-.1.1-.3.2-.4.4.5 1 .9 2 1.2 2.6-.2.7-.3 1-.5 1.4-.2-.4-.4-.8-.6-1.3-.7-1.9-1.3-3.8-2-5.7-.6-1.7-1.4-2.2-3.2-1.6-1.3.4-2.6.9-3.7 1.7-5.5 3.7-9.3 8.6-11 15.1-.1.4-.3.9-.4 1.3-.1-5.5 2.1-10.1 5.4-14.3-3 .2-4.9 1.9-6.2 4.2-1.3 2.2-2.2 4.6-3.2 6.9.1-.7.1-1.5.3-2.2.6-1.8 1.3-3.5 1.9-5.3.1-.3.1-.7.1-1.1-.5 0-1-.2-1.3 0-.4.2-.8.6-1.1.9-.5.5-1 1.1-1.5 1.7l-.2-.2c.5-.7 1-1.5 1.4-2.1-2.4.1-4.8.4-7.1.1-2.3-.3-4.7-.9-6.7-2.3.8 0 1.5.2 2.3.4.7.2 1.5.4 2.3.6-1.1-3-3.8-5.8-6-5.8h-.1c.2-.7.3-1.4.5-2.1.7-2.5 1.2-5.2 2.2-7.6 1.2-2.8 3.7-3.4 6.4-1.9.3.2.6.3 1 .5.7-2.3 1.8-4.1 4.2-4.8 2.6-.7 4.2.9 6 2.8.6-2.8 1.8-4.8 4.4-5.5 2.7-.8 4.8.2 6.6 2.1 1.7-2.5 2.4-3.1 4.1-3.7.7-.2 1.3-.4 2-.6h1.6c1.7.8 3.4 1.7 4.3 3.4.5.7.7 1.3 1.1 2zm-13.2 4.1c.8-.3.9-.9.7-1.6-.3-.9-.6-1.9-1-2.7-1.1-2.2-3-3-5.4-2.6-2.3.4-3.8 1.9-4.1 4.2-.1.6-.1 1.3-.2 2-.1 0-.2.1-.3.1.8 3.3 1.6 6.6 2.6 9.8.5 1.5 2.2 2.2 4.3 2 1.9-.1 3.2-.9 3.9-2.6.1-.3-.2-.8-.5-1.2-1.6-1.9-1.8-4-.9-6.3.2-.5.5-1 .9-1.1zm-6.7 13.4c-.5-.5-.8-.9-1.4-1.5l-.5 2c.8-.2 1.2-.3 1.9-.5zm-3.6-1.6c.7-.6 1.3-1.9 1.2-2.7-.7-3.6-1.5-7.1-2.7-10.6-.8-2.3-2.5-2.8-5-2.2-2.2.6-3.4 2.1-3.3 4.8.7 3 1.3 6.5 3.2 9.6 1.4 2.6 4.4 3.1 6.6 1.1zM99 80.6c.1-.1.1-.3.1-.4-.9-.2-1.8-.4-2.8-.6-.1.2-.1.4-.2.5 1 .1 2 .3 2.9.5zm-4.4.2c-.4-.7-.7-1.3-1.2-2.1-.2 1-.4 1.7-.7 2.8.8-.3 1.2-.5 1.9-.7zm-3.9-3.3c1.2-.8 1.6-2 1.3-3.3-.6-2.6-1.3-5.2-2.1-7.7-.5-1.6-1.7-2.3-3.3-2.3-1.7-.1-3.2.4-3.8 2-.8 2.1-1.3 4.4-1.6 6.7-.2 1.4.8 2.3 2.1 3.1-.2-1.4-.4-2.6-.6-3.7.1 0 .1-.1.2-.1.5 1.1 1 2.3 1.6 3.3.6.9 1.4 1.7 2.2 2.3 1.3.9 2.7.5 4-.3z"/><path class="st13" d="M111.1 62.5c.2.7.2 1.2-.7 1.6-.4.2-.7.7-.9 1.1-.9 2.3-.7 4.4.9 6.3.3.3.6.9.5 1.2-.7 1.7-2.1 2.5-3.9 2.6-2.1.2-3.9-.5-4.3-2-1-3.2-1.7-6.5-2.6-9.8.1 0 .2 0 .3-.1.1-.7.1-1.3.2-2 .3-2.3 1.8-3.8 4.1-4.2 2.4-.4 4.3.4 5.4 2.6.4.8.7 1.8 1 2.7zM102.5 76c.6.6.9 1 1.4 1.5-.7.2-1.2.3-1.8.5.1-.7.2-1.2.4-2zm-1.2-2.8c.2.8-.5 2.1-1.2 2.7-2.2 2-5.2 1.5-6.6-1.1-1.8-3.1-2.5-6.6-3.2-9.6-.1-2.7 1.1-4.2 3.3-4.8 2.5-.6 4.2-.1 5 2.2 1.2 3.5 2 7 2.7 10.6z"/><path class="st12" d="M121.9 135.6c-11.6-.1-34.6-.3-36.4 0 0-1.2.6-22.3.6-23.5.2-6.3-2.1-9-4.6-14.9-1.6-3.9-2.3-8-2.1-12.3 0-1.1-.5-2.1-.5-3.2-.1-1.3-.1-2.7.1-4 .1-.8.3-1.6.5-2.4h.1c.8.9 1.4 1.6 1.9 2.4-2.1-.2-2.5 0-2.3 1.3.1 1 .7 2 1.1 3-.1 0-.3 0-.8.2.7.9 1.2 1.7 1.6 2.2-.4.8-1.1 1.4-1.1 2.1.2 3.4.3 6.8 3.1 9.4-.3.2-.5.3-.8.4.4 2.1 2.1 2.9 3.9 3.8-.7.3-1.2.4-1.7.6.3 1.8 1.1 3.1 2.8 3.8 1.5.6 3 1.2 4.6 1.7 1.9.6 3.9.9 5.8 1.4-3.7.4-6.5-.2-9.9-1-.8 4.4 0 25-1.5 28.7.1-.1 23.7.2 35.6.3z"/><path class="st13" d="M99.1 80.2c0 .1-.1.3-.1.4-.9-.2-1.8-.3-2.8-.5.1-.2.1-.3.2-.5.9.1 1.8.3 2.7.6zm-5.7-1.5c.5.8.8 1.4 1.2 2.1-.6.3-1.1.4-1.8.7.2-1.1.4-1.8.6-2.8zM92 74.2c.3 1.3-.1 2.5-1.3 3.3-1.3.8-2.6 1.2-3.9.2-.8-.6-1.6-1.4-2.2-2.3-.7-1-1.1-2.2-1.6-3.3-.1 0-.1.1-.2.1.2 1.1.4 2.3.6 3.7-1.3-.8-2.3-1.8-2.1-3.1.3-2.3.8-4.6 1.6-6.7.6-1.6 2.1-2.1 3.8-2 1.6.1 2.9.8 3.3 2.3.7 2.6 1.4 5.2 2 7.8z"/></g><path class="st12" d="M99.2 112c-1.4 7.4-4.6 15.2-6.2 22.6-.1.6 1.8.9 1.9.3 1.5-7.4 3-14.8 4.4-22.3.1-.6 0-1.2-.1-.6zm8.8 24.2c-2.5-8-2.3-16.5-4-24.7-.1-.3-.4-.4-.6-.3-.3 0-.5.1-.5.5.2 6.1.5 12.1.8 18.2.2 3 .1 7.1 4.3 6.3.1.3.1.5 0 0z"/></g></svg>