<svg xmlns="http://www.w3.org/2000/svg" viewBox="0 0 100 100"><path d="M96.6 41.1C91.3 12.3 61.8-4.6 34.2 5.3c-18.4 6.6-31 24.9-31 44.9C3 75.7 22.9 96.1 46.5 97.8c15.6 1.1 28.7-4.1 38.9-15.7 10.3-11.7 14-25.6 11.2-41zm-32.2-19c.1-1.8.4-3.6.6-5.3.1-.4.3-.8.5-1.2.1 0 .2 0 .3.1.1.4.3.9.3 1.3.4 4.7.9 9.3 1.2 14 .2 2.2.6 4.2 2.2 5.8.4.5.7 1 1.3 1.9-1.2 0-2.1.1-3 0-.2 0-.5-.4-.5-.7-.9-3.7-1.9-7.4-2.7-11.2-.3-1.7-.3-3.2-.2-4.7zM43.6 37.6c1-2.9 1.5-6.1 3.5-8.7 1.7-2.3 1.9-5.1 2.1-7.7.2-4.5.1-9 .1-13.6V5.9h2.5c.1 1.8.2 3.5.3 5.3.4 4.5.6 9.1 1.3 13.6.5 3 1.7 5.9 2.4 8.8.3 1.4.4 3 .5 4.4.1.8-.7.7-1.2.7-3-.1-5.9-.1-8.8-.2-.7 0-1.4 0-2-.1-.6.2-.9-.2-.7-.8zm-12.7-1.5c.9-1.3 1.4-2.8 1.4-4.4.2-6.8 1.2-13.6 2.6-20.3 0-.2.1-.3.3-.8.2.6.4.9.4 1.2.6 3.2 1.1 6.5 1.7 9.7.4 2.4-.4 4.6-1.6 6.7-1.6 2.6-2.6 5.3-3.3 8.2-.3 1.5-.5 1.5-2.3 1.1.3-.5.6-1 .8-1.4zm61.7 24.7c-5.2 21-24.4 35-45.7 33.3-22.5-1.7-38-19.9-40.1-39C5.6 44 8.2 33.8 14.5 24.6 17.6 20 24.3 13.7 26.8 13c.2 4.9 1.5 9.8.8 14.8-.2 1.7-3.3 4.2-5.3 4.2-2.2 0-3.6 1.3-4.9 2.9.9.6 1.4 0 1.9-.3.6-.3 1.1-.6 1.8-.7-1.2 2.3-4.6 2.6-5.1 5.7 1.8.6 3.5.6 5.2-.1 1.7-.8 3.4-1.6 5.1-2.3.4-.2.9-.3 1.7-.5-.2.8-.3 1.3-.3 1.7 0 .6 0 1.2.2 1.8.1.3.5.5.8.6.1 0 .5-.3.6-.6.5-1.1 1.4-.5 2-.4.3 0 .7.6.7.9 0 8.6.1 17.1-.1 25.7 0 1.1-1.1 2.3-1.7 3.4-.3.5-.6.9-.9 1.3-.9 1.5-1 3.2-.1 4.6 1.5 2.7 1.7 5.4 1.1 8.4-.2 1.2.2 2.2 1.3 2.8.2.1.4.2.5.4 1.3 1.8 3.2 2.1 5.3 2.1 1.7 0 3.5.1 5.1-.1 1.8-.2 2.2-1.5 1.1-3-.1-.2-.3-.3-.4-.5-1-.9-1.8-1.8-1.9-3.2v-.1c-2.7-4.3-2.4-9.2-2.7-13.9-.5-5.9.1-11.7 2.3-17.4 1.1-2.9 1.5-6 2.2-9.1.1-.2.1-.4.3-.9.3.8.6 1.3.7 1.8 1.1 3.2 2.1 6.5 3.2 9.7.3 1 .9 1.7 2 1.8 1.1 0 1.7-.7 2.1-1.6 1-2.3 1.9-4.6 2.9-6.9.6-1.3 1.4-2.5 2.1-3.7.1 0 .2.1.4.1.1.5.3.9.3 1.4.6 4.3 1.4 8.5 1.8 12.8.4 3.5.9 7.2.5 10.6-.8 6.9-1.7 13.8-4.4 20.4-.6 1.4.2 2.4 1.6 2.4 2.3-.1 4.6-.3 6.9-.5 1-.1 1.6-.7 1.8-1.6.4-1.8.7-3.6.9-5.5.2-1.7.3-3.5.4-5.2.1-1.6.3-3.3-.1-4.7-1.1-3.3-1-6.6-.6-9.9.4-3.9 1.2-7.8 1.6-11.7.3-3.1.2-6.2.3-9.3 0-1.3.1-1.5 1.4-1.4.8.1 1.6.2 2.4.5.8.2 1.6-.6 1.4-1.5-.1-.3-.2-.6-.2-.8-.1-.3-.1-.5-.3-1.2.8.3 1.4.4 1.9.7 1.1.7 2 1.5 3.1 2.1 1.1.6 2.3 1 3.5 1.4.4.1.9-.2 1.4-.3.2-.1.5-.2.7-.3.3-.1 1-.2 1-.3 0-.5.1-1.2-.2-1.6-.7-1.2-1.6-2.4-2.3-3.6-.8-1.2-1.8-2.1-3.2-2.4-2.5-.6-4.2-2.3-5.6-4.3-.4-.6-.6-1.4-.6-2.1.2-3.4.6-6.8.9-10.2.1-1.2.3-2.3.5-3.5 13.8 8.2 24.2 27.1 19 48z"/></svg>